<svg width="24" height="24" viewBox="0 0 24 24" fill="none" xmlns="http://www.w3.org/2000/svg"><path d="M15.240 4.204 C 14.943 4.314,14.674 4.429,14.643 4.460 C 14.595 4.508,14.594 4.541,14.640 4.680 C 14.677 4.792,14.682 4.876,14.657 4.945 C 14.628 5.025,13.242 5.851,7.880 8.980 C 4.173 11.144,1.039 12.995,0.915 13.094 C 0.656 13.301,0.329 13.765,0.200 14.108 C -0.166 15.080,0.007 16.178,0.656 17.004 C 1.366 17.907,2.597 18.238,3.573 17.787 C 3.687 17.735,6.831 15.911,10.560 13.733 L 17.340 9.775 18.154 9.599 C 18.657 9.491,18.977 9.403,18.989 9.370 C 19.000 9.341,18.796 8.945,18.535 8.489 C 18.165 7.845,18.037 7.653,17.956 7.625 C 17.862 7.592,17.343 7.885,13.001 10.419 C 10.334 11.975,8.056 13.283,7.939 13.324 C 7.583 13.449,7.205 13.491,6.859 13.442 C 6.479 13.390,5.221 12.981,5.116 12.876 C 4.995 12.755,5.018 12.581,5.170 12.468 C 5.242 12.415,7.856 10.882,10.980 9.061 C 14.104 7.241,16.692 5.715,16.730 5.671 C 16.768 5.627,16.800 5.555,16.800 5.510 C 16.800 5.411,16.101 4.167,15.991 4.070 C 15.947 4.031,15.882 4.001,15.846 4.002 C 15.810 4.004,15.537 4.095,15.240 4.204 M18.869 12.044 C 18.739 12.119,18.060 13.572,17.865 14.192 C 17.806 14.379,17.760 14.619,17.760 14.741 C 17.760 15.407,18.344 16.000,19.000 16.000 C 19.656 16.000,20.240 15.407,20.240 14.741 C 20.240 14.372,19.930 13.538,19.395 12.472 C 19.169 12.021,19.061 11.932,18.869 12.044 M0.062 21.609 C 0.010 21.684,0.000 21.864,-0.000 22.769 C -0.000 23.787,0.004 23.844,0.080 23.920 C 0.160 24.000,0.213 24.000,12.000 24.000 C 23.787 24.000,23.840 24.000,23.920 23.920 C 23.996 23.844,24.000 23.787,24.000 22.769 C 24.000 21.864,23.990 21.684,23.938 21.609 C 23.876 21.520,23.873 21.520,22.577 21.520 L 21.278 21.520 21.064 21.734 C 20.062 22.737,18.214 22.756,17.198 21.775 L 16.934 21.520 8.529 21.520 L 0.125 21.520 0.062 21.609 " fill="#333333" stroke="none" fill-rule="evenodd"></path></svg>