<svg width="24" height="24" viewBox="0 0 24 24" fill="none" xmlns="http://www.w3.org/2000/svg"><path d="M10.740 0.074 C 10.674 0.114,10.593 0.180,10.560 0.220 C 10.507 0.284,10.498 1.319,10.480 8.823 L 10.460 17.354 10.377 17.467 C 10.332 17.529,10.227 17.614,10.144 17.655 C 10.015 17.719,9.969 17.723,9.840 17.685 C 9.689 17.640,9.510 17.464,2.977 10.991 C 2.143 10.164,2.075 10.121,1.776 10.224 C 1.579 10.292,0.060 11.800,0.018 11.970 C -0.057 12.274,-0.346 11.969,5.863 18.128 C 10.417 22.644,11.718 23.913,11.842 23.959 C 11.981 24.010,12.019 24.010,12.158 23.959 C 12.282 23.913,13.587 22.639,18.137 18.127 C 24.346 11.970,24.057 12.274,23.981 11.970 C 23.950 11.845,22.492 10.352,22.303 10.252 C 22.157 10.175,21.901 10.176,21.787 10.254 C 21.739 10.286,20.037 11.961,18.003 13.975 C 15.353 16.601,14.269 17.651,14.173 17.682 C 14.000 17.740,13.813 17.680,13.657 17.516 L 13.540 17.395 13.520 8.842 C 13.500 0.362,13.499 0.288,13.420 0.200 C 13.245 0.007,13.195 -0.000,11.992 0.000 C 10.965 0.000,10.849 0.007,10.740 0.074 " fill="#333333" stroke="none" fill-rule="evenodd"></path></svg>