<svg width="24" height="24" viewBox="0 0 24 24" fill="none" xmlns="http://www.w3.org/2000/svg"><path d="M11.774 0.051 C 11.726 0.078,9.068 2.698,5.865 5.872 C -0.346 12.030,-0.056 11.724,0.018 12.030 C 0.035 12.101,0.339 12.435,0.872 12.967 C 1.775 13.868,1.839 13.910,2.124 13.788 C 2.208 13.752,3.483 12.518,5.483 10.535 C 7.256 8.778,8.941 7.111,9.227 6.830 L 9.747 6.320 9.948 6.320 C 10.184 6.320,10.339 6.419,10.425 6.625 C 10.471 6.736,10.480 8.115,10.481 15.189 C 10.481 21.853,10.492 23.641,10.531 23.719 C 10.559 23.773,10.642 23.859,10.716 23.909 C 10.849 23.998,10.872 24.000,11.988 24.000 C 13.195 24.000,13.245 23.993,13.420 23.800 C 13.499 23.712,13.500 23.638,13.520 15.153 L 13.540 6.594 13.689 6.457 C 13.819 6.338,13.866 6.320,14.046 6.320 L 14.253 6.320 14.793 6.850 C 15.090 7.141,16.775 8.809,18.537 10.555 C 20.527 12.527,21.792 13.752,21.876 13.788 C 22.161 13.910,22.225 13.868,23.128 12.967 C 23.661 12.435,23.965 12.101,23.982 12.030 C 24.056 11.725,24.346 12.030,18.135 5.872 C 14.932 2.698,12.273 0.078,12.226 0.051 C 12.116 -0.011,11.884 -0.011,11.774 0.051 " fill="#333333" stroke="none" fill-rule="evenodd"></path></svg>