<svg width="24" height="24" viewBox="0 0 24 24" fill="none" xmlns="http://www.w3.org/2000/svg"><path d="M11.860 0.075 C 11.794 0.117,11.395 0.499,10.974 0.926 C 10.138 1.772,10.092 1.843,10.212 2.124 C 10.248 2.208,11.467 3.467,13.425 5.443 C 15.160 7.194,16.828 8.879,17.130 9.187 L 17.680 9.746 17.680 9.954 C 17.680 10.134,17.662 10.181,17.543 10.311 L 17.406 10.460 8.873 10.480 C 1.927 10.496,0.323 10.510,0.248 10.553 C 0.197 10.581,0.121 10.662,0.078 10.733 C 0.006 10.851,0.000 10.942,0.000 11.992 C -0.000 13.195,0.007 13.245,0.200 13.420 C 0.288 13.499,0.362 13.500,8.847 13.520 L 17.406 13.540 17.543 13.689 C 17.662 13.819,17.680 13.866,17.680 14.046 L 17.680 14.254 17.130 14.813 C 16.828 15.121,15.160 16.806,13.425 18.557 C 11.467 20.533,10.248 21.792,10.212 21.876 C 10.090 22.161,10.132 22.225,11.033 23.128 C 11.565 23.661,11.899 23.965,11.970 23.982 C 12.275 24.056,11.970 24.345,18.128 18.137 C 22.639 13.587,23.913 12.282,23.959 12.158 C 24.010 12.019,24.010 11.981,23.959 11.842 C 23.913 11.718,22.645 10.418,18.164 5.900 C 15.009 2.719,12.378 0.090,12.316 0.058 C 12.164 -0.021,12.004 -0.015,11.860 0.075 " fill="#333333" stroke="none" fill-rule="evenodd"></path></svg>