<svg width="24" height="24" viewBox="0 0 24 24" fill="none" xmlns="http://www.w3.org/2000/svg"><path d="M11.660 0.074 C 11.520 0.159,0.124 11.646,0.051 11.774 C 0.025 11.821,0.003 11.923,0.003 12.000 C 0.003 12.077,0.025 12.179,0.051 12.226 C 0.078 12.274,2.698 14.932,5.872 18.135 C 12.030 24.346,11.724 24.056,12.030 23.982 C 12.101 23.965,12.435 23.661,12.967 23.128 C 13.868 22.225,13.910 22.161,13.788 21.876 C 13.752 21.792,12.524 20.523,10.555 18.537 C 8.809 16.775,7.141 15.090,6.850 14.793 L 6.320 14.253 6.320 14.046 C 6.320 13.866,6.338 13.819,6.457 13.689 L 6.594 13.540 15.153 13.520 C 23.638 13.500,23.712 13.499,23.800 13.420 C 23.993 13.245,24.000 13.195,24.000 11.992 C 24.000 10.942,23.994 10.851,23.922 10.733 C 23.879 10.662,23.803 10.581,23.752 10.553 C 23.677 10.510,22.073 10.496,15.127 10.480 L 6.594 10.460 6.457 10.311 C 6.338 10.181,6.320 10.134,6.320 9.954 L 6.320 9.747 6.850 9.207 C 7.141 8.910,8.809 7.225,10.555 5.463 C 12.524 3.477,13.752 2.208,13.788 2.124 C 13.909 1.842,13.864 1.773,13.006 0.907 C 12.574 0.470,12.171 0.088,12.112 0.057 C 11.965 -0.020,11.804 -0.014,11.660 0.074 " fill="#333333" stroke="none" fill-rule="evenodd"></path></svg>