<svg width="24" height="24" viewBox="0 0 24 24" fill="none" xmlns="http://www.w3.org/2000/svg"><path d="M11.057 3.038 C 11.011 3.057,10.925 3.130,10.867 3.199 L 10.760 3.326 10.759 6.373 C 10.759 8.740,10.748 9.442,10.708 9.520 C 10.593 9.749,10.595 9.750,7.799 8.137 C 6.077 7.144,5.137 6.624,5.043 6.613 C 4.758 6.578,4.666 6.675,4.192 7.500 C 3.735 8.296,3.699 8.406,3.820 8.641 C 3.889 8.774,3.876 8.766,6.960 10.540 C 8.137 11.217,9.132 11.798,9.170 11.831 C 9.271 11.919,9.259 12.100,9.146 12.187 C 9.095 12.227,7.895 12.926,6.480 13.740 C 4.511 14.873,3.891 15.248,3.834 15.340 C 3.690 15.573,3.726 15.689,4.192 16.500 C 4.667 17.328,4.758 17.422,5.047 17.387 C 5.146 17.374,6.017 16.894,7.730 15.906 C 9.125 15.102,10.314 14.423,10.370 14.397 C 10.514 14.332,10.675 14.381,10.721 14.504 C 10.745 14.566,10.760 15.789,10.760 17.643 L 10.760 20.681 10.897 20.831 L 11.034 20.980 11.996 20.980 L 12.958 20.980 13.089 20.849 L 13.220 20.719 13.240 17.596 C 13.260 14.532,13.261 14.472,13.340 14.414 C 13.384 14.382,13.467 14.362,13.523 14.370 C 13.580 14.378,14.792 15.056,16.217 15.876 C 17.963 16.882,18.855 17.374,18.954 17.387 C 19.241 17.422,19.331 17.329,19.807 16.500 C 20.274 15.688,20.309 15.573,20.166 15.340 C 20.109 15.248,19.485 14.871,17.520 13.740 C 16.105 12.926,14.906 12.227,14.854 12.187 C 14.741 12.100,14.729 11.919,14.830 11.831 C 14.868 11.798,15.863 11.217,17.040 10.540 C 20.124 8.766,20.111 8.774,20.180 8.641 C 20.301 8.406,20.265 8.296,19.807 7.500 C 19.332 6.674,19.241 6.578,18.957 6.613 C 18.863 6.625,17.925 7.143,16.200 8.137 C 13.405 9.749,13.406 9.748,13.292 9.520 C 13.252 9.442,13.241 8.740,13.241 6.369 L 13.240 3.319 13.103 3.169 L 12.966 3.020 12.053 3.011 C 11.551 3.007,11.103 3.019,11.057 3.038 " fill="#333333" stroke="none" fill-rule="evenodd"></path></svg>