<svg width="24" height="24" viewBox="0 0 24 24" fill="none" xmlns="http://www.w3.org/2000/svg"><path d="M10.889 3.657 L 10.740 3.794 10.720 7.220 C 10.701 10.554,10.698 10.648,10.622 10.703 C 10.580 10.734,10.516 10.760,10.481 10.760 C 10.446 10.760,8.990 10.301,7.247 9.740 C 5.504 9.179,4.032 8.720,3.977 8.720 C 3.856 8.720,3.684 8.804,3.595 8.906 C 3.560 8.947,3.409 9.346,3.261 9.794 C 3.050 10.428,2.996 10.640,3.014 10.752 C 3.064 11.057,3.002 11.032,6.320 12.098 C 8.003 12.638,9.457 13.109,9.550 13.144 C 9.724 13.208,9.791 13.318,9.750 13.471 C 9.740 13.509,8.853 14.737,7.778 16.200 C 6.583 17.827,5.809 18.916,5.786 19.003 C 5.713 19.273,5.818 19.398,6.580 19.948 C 6.954 20.218,7.319 20.456,7.390 20.476 C 7.563 20.526,7.758 20.468,7.888 20.330 C 7.944 20.270,8.857 19.038,9.916 17.593 C 10.993 16.122,11.876 14.954,11.920 14.940 C 11.964 14.926,12.036 14.926,12.080 14.940 C 12.124 14.954,13.007 16.122,14.084 17.593 C 15.143 19.038,16.056 20.270,16.112 20.330 C 16.242 20.468,16.437 20.526,16.610 20.476 C 16.681 20.456,17.046 20.218,17.420 19.948 C 18.182 19.398,18.287 19.273,18.214 19.003 C 18.191 18.916,17.418 17.828,16.222 16.200 C 15.147 14.737,14.260 13.509,14.249 13.471 C 14.209 13.318,14.276 13.208,14.450 13.144 C 14.543 13.109,15.997 12.638,17.680 12.098 C 20.998 11.032,20.936 11.057,20.986 10.752 C 21.004 10.640,20.950 10.428,20.739 9.794 C 20.591 9.346,20.440 8.947,20.405 8.906 C 20.316 8.804,20.144 8.720,20.023 8.720 C 19.968 8.720,18.496 9.179,16.753 9.740 C 15.010 10.301,13.554 10.760,13.519 10.760 C 13.484 10.760,13.420 10.734,13.378 10.703 C 13.302 10.648,13.299 10.554,13.280 7.220 L 13.260 3.794 13.111 3.657 L 12.961 3.520 12.000 3.520 L 11.039 3.520 10.889 3.657 " fill="#333333" stroke="none" fill-rule="evenodd"></path></svg>