<svg width="24" height="24" viewBox="0 0 24 24" fill="none" xmlns="http://www.w3.org/2000/svg"><path d="M5.820 2.076 C 5.732 2.116,5.621 2.192,5.573 2.245 C 5.482 2.345,0.202 11.425,0.075 11.700 C 0.035 11.788,0.002 11.923,0.002 12.000 C 0.002 12.077,0.035 12.212,0.075 12.300 C 0.202 12.575,5.482 21.655,5.573 21.755 C 5.621 21.808,5.732 21.884,5.820 21.924 C 5.974 21.995,6.310 21.998,14.800 21.999 C 23.478 22.000,23.622 21.998,23.748 21.922 C 24.022 21.755,24.000 22.613,24.000 12.000 C 24.000 1.387,24.022 2.245,23.748 2.078 C 23.622 2.002,23.478 2.000,14.800 2.001 C 6.310 2.002,5.974 2.005,5.820 2.076 M12.180 8.760 C 13.148 9.728,13.968 10.520,14.000 10.520 C 14.032 10.520,14.852 9.728,15.820 8.760 C 17.333 7.248,17.598 7.000,17.698 7.000 C 17.795 7.000,17.916 7.101,18.407 7.593 C 18.899 8.084,19.000 8.205,19.000 8.302 C 19.000 8.402,18.752 8.667,17.240 10.180 C 16.272 11.148,15.480 11.968,15.480 12.000 C 15.480 12.032,16.272 12.852,17.240 13.820 C 18.744 15.326,19.000 15.599,19.000 15.697 C 19.000 15.792,18.896 15.917,18.410 16.406 C 17.914 16.905,17.800 17.000,17.701 17.000 C 17.598 17.000,17.349 16.768,15.820 15.240 C 14.852 14.272,14.032 13.480,14.000 13.480 C 13.968 13.480,13.148 14.272,12.180 15.240 C 10.651 16.768,10.402 17.000,10.299 17.000 C 10.200 17.000,10.086 16.905,9.590 16.406 C 9.104 15.917,9.000 15.792,9.000 15.697 C 9.000 15.599,9.256 15.326,10.760 13.820 C 11.728 12.852,12.520 12.032,12.520 12.000 C 12.520 11.968,11.728 11.148,10.760 10.180 C 9.248 8.667,9.000 8.402,9.000 8.302 C 9.000 8.205,9.101 8.084,9.593 7.593 C 10.084 7.101,10.205 7.000,10.302 7.000 C 10.402 7.000,10.667 7.248,12.180 8.760 " fill="#333333" stroke="none" fill-rule="evenodd"></path></svg>