<svg width="24" height="24" viewBox="0 0 24 24" fill="none" xmlns="http://www.w3.org/2000/svg"><path d="M11.200 0.025 C 7.685 0.285,4.514 2.005,2.408 4.794 C 1.193 6.403,0.443 8.219,0.109 10.359 C -0.013 11.143,-0.013 12.857,0.109 13.641 C 0.622 16.932,2.214 19.633,4.793 21.590 C 6.386 22.799,8.222 23.558,10.359 23.891 C 11.143 24.013,12.857 24.013,13.641 23.891 C 15.780 23.557,17.614 22.799,19.212 21.586 C 21.595 19.778,23.220 17.180,23.776 14.284 C 23.917 13.550,23.965 13.113,23.973 12.492 C 23.979 12.039,23.970 11.940,23.923 11.940 C 23.856 11.940,23.839 11.993,23.701 12.640 C 23.245 14.772,22.067 16.898,20.440 18.520 C 18.229 20.726,15.154 22.000,12.040 22.000 C 7.430 22.000,3.391 18.860,2.303 14.429 C 2.090 13.560,2.027 13.016,2.025 12.020 C 2.023 10.828,2.149 9.976,2.480 8.947 C 3.639 5.334,6.761 2.680,10.508 2.123 C 11.558 1.967,12.179 1.980,13.100 2.180 C 15.656 2.733,17.770 4.626,18.597 7.103 C 19.447 9.645,18.906 12.385,17.151 14.420 C 15.811 15.974,13.724 16.973,11.820 16.973 C 10.561 16.973,9.324 16.423,8.395 15.450 C 6.970 13.959,6.602 11.727,7.480 9.890 C 7.736 9.352,7.989 8.980,8.376 8.571 C 8.799 8.123,9.241 7.801,9.820 7.517 C 11.436 6.725,13.297 6.860,14.824 7.880 C 15.235 8.155,15.885 8.813,16.157 9.230 C 16.474 9.714,16.541 9.685,16.479 9.094 C 16.312 7.480,15.383 6.149,13.940 5.456 C 13.147 5.075,12.407 4.950,11.450 5.033 C 10.474 5.118,9.777 5.308,8.933 5.720 C 6.230 7.040,4.671 9.927,5.060 12.894 C 5.476 16.068,7.940 18.522,11.136 18.945 C 12.504 19.125,14.515 18.681,16.000 17.870 C 18.126 16.708,19.752 14.780,20.501 12.531 C 20.854 11.471,20.978 10.684,20.978 9.500 C 20.978 8.316,20.854 7.529,20.501 6.469 C 19.437 3.276,16.630 0.813,13.340 0.184 C 12.649 0.052,11.746 -0.015,11.200 0.025 M11.620 10.039 C 10.906 10.197,10.359 10.674,10.110 11.356 C 9.993 11.675,9.994 12.327,10.112 12.650 C 10.323 13.228,10.774 13.678,11.356 13.890 C 11.673 14.006,12.327 14.006,12.644 13.890 C 13.226 13.678,13.677 13.228,13.888 12.650 C 13.954 12.471,13.972 12.327,13.972 12.000 C 13.972 11.673,13.954 11.529,13.888 11.350 C 13.677 10.770,13.216 10.312,12.644 10.114 C 12.389 10.025,11.858 9.986,11.620 10.039 " fill="#333333" stroke="none" fill-rule="evenodd"></path></svg>