<svg width="24" height="24" viewBox="0 0 24 24" fill="none" xmlns="http://www.w3.org/2000/svg"><path d="M11.535 0.041 C 10.993 0.139,10.483 0.405,10.079 0.800 C 9.481 1.385,9.186 2.218,9.282 3.056 C 9.356 3.714,9.591 4.193,10.079 4.682 C 10.628 5.232,11.223 5.479,12.000 5.479 C 12.479 5.479,12.809 5.402,13.240 5.190 C 13.511 5.057,13.649 4.954,13.921 4.682 C 14.409 4.193,14.644 3.714,14.718 3.056 C 14.898 1.476,13.709 0.086,12.121 0.020 C 11.911 0.011,11.648 0.021,11.535 0.041 M2.920 5.928 C 2.763 5.989,2.624 6.088,2.433 6.279 C 2.198 6.514,2.157 6.579,2.078 6.836 C 1.910 7.391,2.036 7.920,2.432 8.316 C 2.540 8.424,2.707 8.553,2.803 8.601 C 3.065 8.735,6.273 9.384,7.760 9.603 C 8.414 9.700,8.562 9.759,8.788 10.016 C 8.958 10.209,9.040 10.419,9.040 10.661 C 9.040 10.744,8.581 13.408,8.020 16.581 C 7.459 19.754,7.000 22.430,7.000 22.528 C 7.000 23.079,7.345 23.600,7.880 23.856 C 8.111 23.966,8.180 23.980,8.500 23.980 C 8.810 23.980,8.893 23.965,9.100 23.868 C 9.388 23.734,9.691 23.450,9.823 23.191 C 9.886 23.068,10.201 21.829,10.721 19.659 C 11.161 17.820,11.549 16.273,11.583 16.222 C 11.747 15.970,12.252 15.970,12.417 16.221 C 12.450 16.272,12.838 17.820,13.277 19.661 C 13.717 21.503,14.116 23.089,14.163 23.186 C 14.285 23.439,14.580 23.715,14.880 23.857 C 15.111 23.966,15.181 23.980,15.500 23.980 C 15.821 23.980,15.888 23.966,16.120 23.855 C 16.613 23.618,16.950 23.142,16.988 22.628 C 17.003 22.426,16.815 21.300,15.983 16.605 C 15.420 13.429,14.960 10.738,14.961 10.625 C 14.962 10.276,15.185 9.931,15.518 9.761 C 15.596 9.721,15.921 9.650,16.240 9.603 C 17.727 9.384,20.935 8.735,21.197 8.601 C 21.293 8.553,21.460 8.424,21.568 8.316 C 21.967 7.917,22.093 7.380,21.918 6.831 C 21.838 6.579,21.790 6.505,21.563 6.276 C 21.085 5.797,20.777 5.751,19.558 5.977 C 16.869 6.476,14.628 6.686,12.000 6.686 C 9.372 6.686,7.131 6.476,4.442 5.977 C 3.582 5.817,3.238 5.806,2.920 5.928 " fill="#333333" stroke="none" fill-rule="evenodd"></path></svg>