<svg width="24" height="24" viewBox="0 0 24 24" fill="none" xmlns="http://www.w3.org/2000/svg"><path d="M8.966 0.070 C 8.900 0.125,8.475 1.606,6.957 7.060 C 5.899 10.866,5.023 14.036,5.012 14.104 C 4.995 14.204,5.012 14.244,5.101 14.314 L 5.211 14.400 8.880 14.400 C 12.138 14.400,12.556 14.407,12.601 14.462 C 12.644 14.513,12.438 15.293,11.363 19.158 C 10.653 21.706,10.079 23.823,10.086 23.862 C 10.106 23.963,10.226 24.029,10.301 23.980 C 10.423 23.900,19.999 10.620,19.999 10.530 C 20.000 10.480,19.964 10.404,19.920 10.360 C 19.841 10.281,19.787 10.280,16.901 10.280 C 14.074 10.280,13.961 10.277,13.923 10.205 C 13.892 10.148,14.201 8.988,15.260 5.181 C 16.320 1.375,16.629 0.214,16.598 0.156 C 16.576 0.115,16.524 0.063,16.482 0.041 C 16.431 0.014,15.158 0.000,12.727 0.000 C 9.282 0.000,9.044 0.004,8.966 0.070 " fill="#333333" stroke="none" fill-rule="evenodd"></path></svg>