<svg width="24" height="24" viewBox="0 0 24 24" fill="none" xmlns="http://www.w3.org/2000/svg"><path d="M21.213 1.346 C 19.757 2.085,18.554 2.717,18.541 2.751 C 18.507 2.841,18.589 2.909,19.009 3.139 C 19.297 3.296,19.383 3.363,19.394 3.437 C 19.405 3.518,18.259 4.681,12.154 10.789 C 8.164 14.781,4.859 18.063,4.808 18.083 C 4.736 18.112,4.608 18.073,4.195 17.900 C 3.909 17.779,3.626 17.680,3.568 17.680 C 3.482 17.680,3.140 18.002,1.730 19.410 C 0.742 20.397,0.003 21.166,0.009 21.200 C 0.016 21.240,0.357 21.373,1.039 21.601 L 2.058 21.942 2.399 22.961 C 2.627 23.643,2.760 23.984,2.800 23.991 C 2.834 23.997,3.603 23.258,4.590 22.270 C 6.025 20.833,6.320 20.519,6.320 20.429 C 6.320 20.369,6.230 20.105,6.120 19.844 C 6.010 19.582,5.920 19.317,5.920 19.254 C 5.920 19.156,6.927 18.133,13.190 11.869 C 19.351 5.707,20.475 4.599,20.559 4.609 C 20.639 4.618,20.698 4.692,20.861 4.991 C 21.093 5.415,21.159 5.493,21.252 5.458 C 21.337 5.425,24.014 0.134,23.985 0.057 C 23.972 0.026,23.939 0.001,23.911 0.002 C 23.883 0.003,22.669 0.608,21.213 1.346 " fill="#333333" stroke="none" fill-rule="evenodd"></path></svg>