<svg width="24" height="24" viewBox="0 0 24 24" fill="none" xmlns="http://www.w3.org/2000/svg"><path d="M11.740 2.046 C 11.176 2.095,10.424 2.222,9.863 2.363 C 8.569 2.687,8.490 2.759,8.898 3.241 C 9.333 3.756,9.604 4.314,9.673 4.843 C 9.763 5.534,9.578 5.945,9.126 6.062 C 8.679 6.178,8.281 5.908,8.219 5.447 C 8.132 4.808,7.943 4.382,7.613 4.081 C 7.326 3.819,7.043 3.713,6.563 3.689 C 5.922 3.657,5.441 3.776,4.660 4.161 C 3.265 4.848,2.175 6.054,1.875 7.241 C 1.806 7.513,1.794 7.654,1.810 7.998 C 1.832 8.496,1.933 8.800,2.224 9.251 C 2.804 10.148,3.556 10.636,4.553 10.762 C 4.744 10.786,4.957 10.823,5.028 10.845 C 5.438 10.972,5.637 11.478,5.444 11.903 C 5.295 12.233,5.038 12.343,4.503 12.307 C 3.035 12.210,1.693 11.320,0.835 9.876 C 0.648 9.561,0.536 9.481,0.382 9.552 C 0.308 9.586,0.266 9.661,0.205 9.868 C 0.045 10.421,0.021 10.611,0.023 11.320 C 0.024 11.890,0.041 12.098,0.115 12.440 C 0.371 13.634,0.894 14.670,1.635 15.449 C 2.059 15.894,2.403 16.156,2.860 16.380 C 3.434 16.661,3.763 16.738,4.400 16.738 C 4.842 16.738,4.998 16.721,5.258 16.647 C 6.333 16.339,7.041 15.585,7.367 14.400 C 7.450 14.096,7.460 13.971,7.463 13.220 C 7.466 12.288,7.483 12.213,7.730 12.026 C 7.890 11.904,8.160 11.829,8.309 11.864 C 8.839 11.989,9.011 12.381,9.016 13.480 C 9.020 14.168,8.964 14.518,8.753 15.140 C 8.516 15.835,8.064 16.613,7.588 17.142 C 7.471 17.273,7.363 17.411,7.349 17.449 C 7.304 17.569,7.510 17.753,7.895 17.939 C 8.726 18.340,9.661 18.441,10.847 18.256 C 11.272 18.189,11.368 18.210,11.540 18.401 C 11.661 18.536,12.060 18.796,12.335 18.920 C 12.708 19.087,13.055 19.160,13.445 19.151 C 13.758 19.144,13.805 19.153,13.950 19.248 C 14.037 19.306,14.444 19.740,14.853 20.211 C 16.072 21.616,16.264 21.823,16.426 21.904 C 16.560 21.970,16.690 21.982,17.440 21.993 C 18.438 22.008,18.654 21.977,18.856 21.787 C 19.093 21.563,19.138 21.203,18.997 20.648 C 18.898 20.255,18.906 20.156,19.040 20.117 C 19.974 19.848,20.458 19.645,21.060 19.270 C 22.252 18.527,23.103 17.525,23.464 16.440 C 23.565 16.135,23.577 16.045,23.577 15.560 C 23.578 14.883,23.478 14.533,23.100 13.898 L 23.028 13.777 23.193 13.516 C 23.969 12.288,24.185 11.027,23.815 9.887 C 23.511 8.950,23.014 8.229,21.517 6.555 C 20.700 5.641,20.780 5.713,20.608 5.728 C 20.466 5.740,20.454 5.754,20.246 6.140 C 19.585 7.370,18.921 8.026,18.202 8.160 C 17.540 8.284,17.046 7.690,17.317 7.095 C 17.403 6.906,17.543 6.791,17.951 6.580 C 18.265 6.417,18.578 6.114,18.731 5.825 C 19.118 5.090,19.166 4.812,18.975 4.421 C 18.851 4.168,18.451 3.765,18.148 3.587 C 17.580 3.254,17.123 3.197,16.709 3.405 C 15.957 3.784,15.373 4.337,15.026 4.999 C 14.682 5.654,14.538 6.278,14.483 7.353 C 14.453 7.930,14.434 8.068,14.360 8.219 C 14.057 8.847,13.144 8.709,12.998 8.014 C 12.926 7.668,12.974 6.375,13.078 5.862 C 13.303 4.752,13.808 3.793,14.628 2.916 C 15.125 2.385,15.094 2.275,14.419 2.160 C 13.529 2.008,12.617 1.969,11.740 2.046 M10.707 6.443 C 10.982 6.546,11.173 6.840,11.240 7.263 C 11.308 7.684,11.226 8.129,11.006 8.539 C 10.846 8.837,10.930 9.132,11.225 9.305 C 11.415 9.416,11.616 9.421,12.006 9.322 C 12.512 9.195,12.991 9.662,12.901 10.195 C 12.866 10.403,12.688 10.648,12.511 10.732 C 11.710 11.112,10.849 10.908,10.052 10.150 C 9.850 9.958,9.677 9.800,9.668 9.800 C 9.659 9.800,9.464 9.862,9.235 9.938 C 7.988 10.351,6.873 10.116,6.328 9.326 C 6.196 9.134,6.180 9.083,6.180 8.862 C 6.180 8.660,6.200 8.584,6.287 8.452 C 6.477 8.166,6.816 8.026,7.098 8.119 C 7.177 8.145,7.335 8.247,7.449 8.344 C 7.873 8.706,8.424 8.733,9.059 8.422 C 9.325 8.292,9.659 7.944,9.716 7.736 C 9.741 7.647,9.750 7.452,9.736 7.280 C 9.715 7.013,9.723 6.960,9.809 6.801 C 9.973 6.497,10.400 6.326,10.707 6.443 M15.880 8.966 C 16.166 9.129,16.580 9.555,16.771 9.882 C 17.221 10.652,17.306 11.752,16.997 12.806 C 16.954 12.952,16.930 13.099,16.943 13.132 C 16.956 13.166,17.100 13.296,17.264 13.421 C 17.871 13.886,18.332 14.490,18.565 15.125 C 18.713 15.526,18.764 16.130,18.680 16.478 C 18.541 17.059,17.883 17.281,17.466 16.887 C 17.277 16.708,17.234 16.581,17.222 16.165 C 17.208 15.686,17.115 15.425,16.827 15.052 C 16.565 14.714,16.198 14.415,15.760 14.185 C 15.252 13.919,14.901 13.824,14.420 13.822 C 13.778 13.820,13.462 13.970,13.080 14.457 C 12.738 14.892,12.370 14.990,12.000 14.745 C 11.672 14.528,11.585 14.088,11.788 13.678 C 11.956 13.340,12.467 12.855,12.858 12.665 C 13.334 12.433,13.811 12.346,14.460 12.373 C 14.746 12.385,15.093 12.417,15.231 12.445 C 15.407 12.480,15.494 12.482,15.524 12.452 C 15.582 12.394,15.643 11.895,15.644 11.460 C 15.647 10.868,15.518 10.589,15.102 10.282 C 14.811 10.067,14.701 9.879,14.702 9.600 C 14.703 8.970,15.312 8.642,15.880 8.966 M20.777 10.336 C 20.968 10.448,21.110 10.677,21.145 10.928 C 21.175 11.150,21.042 11.485,20.876 11.603 C 20.753 11.691,20.252 11.827,19.628 11.943 C 19.194 12.023,18.981 11.997,18.753 11.835 C 18.498 11.654,18.398 11.182,18.550 10.883 C 18.689 10.610,18.845 10.532,19.542 10.383 C 20.332 10.214,20.555 10.206,20.777 10.336 " fill="#333333" stroke="none" fill-rule="evenodd"></path></svg>