<svg width="24" height="24" viewBox="0 0 24 24" fill="none" xmlns="http://www.w3.org/2000/svg"><path d="M11.200 0.025 C 7.677 0.288,4.536 1.991,2.412 4.790 C 1.198 6.390,0.443 8.216,0.109 10.359 C -0.013 11.143,-0.013 12.857,0.109 13.641 C 0.622 16.932,2.214 19.633,4.793 21.590 C 6.386 22.799,8.222 23.558,10.359 23.891 C 11.143 24.013,12.857 24.013,13.641 23.891 C 16.557 23.436,19.036 22.122,20.896 20.043 C 22.545 18.200,23.498 16.163,23.891 13.641 C 24.013 12.857,24.013 11.143,23.891 10.359 C 23.558 8.222,22.799 6.386,21.590 4.793 C 19.606 2.178,16.770 0.532,13.500 0.099 C 13.032 0.037,11.640 -0.007,11.200 0.025 M12.828 2.043 C 14.524 2.186,16.079 2.723,17.508 3.661 C 17.964 3.961,18.080 4.090,18.080 4.301 C 18.080 4.358,18.060 4.445,18.036 4.493 C 17.973 4.617,4.643 17.953,4.512 18.023 C 4.216 18.180,4.028 18.066,3.661 17.508 C 2.798 16.192,2.278 14.784,2.072 13.200 C 1.990 12.570,2.012 11.157,2.113 10.528 C 2.373 8.912,2.916 7.552,3.806 6.280 C 5.857 3.351,9.277 1.745,12.828 2.043 M19.924 5.982 C 20.002 6.022,20.150 6.205,20.338 6.492 C 21.204 7.813,21.716 9.201,21.927 10.800 C 22.010 11.428,21.989 12.840,21.887 13.472 C 21.627 15.088,21.084 16.448,20.194 17.720 C 17.826 21.102,13.676 22.678,9.660 21.720 C 8.480 21.439,7.187 20.854,6.229 20.168 C 5.936 19.958,5.850 19.727,5.977 19.488 C 6.042 19.366,19.375 6.033,19.500 5.966 C 19.615 5.904,19.785 5.910,19.924 5.982 " fill="#333333" stroke="none" fill-rule="evenodd"></path></svg>