<svg width="24" height="24" viewBox="0 0 24 24" fill="none" xmlns="http://www.w3.org/2000/svg"><path d="M20.776 4.634 C 20.690 4.697,18.301 7.081,15.466 9.933 C 12.632 12.785,10.251 15.156,10.175 15.203 C 10.022 15.298,9.818 15.313,9.675 15.240 C 9.623 15.213,8.122 13.735,6.339 11.956 L 3.098 8.720 2.915 8.720 C 2.669 8.720,2.570 8.798,1.735 9.645 C 1.016 10.375,0.963 10.454,1.021 10.730 C 1.042 10.835,1.874 11.687,5.294 15.113 C 7.629 17.452,9.592 19.393,9.656 19.427 C 9.816 19.511,10.013 19.503,10.169 19.406 C 10.241 19.361,13.147 16.474,16.626 12.992 C 21.746 7.867,22.958 6.635,22.979 6.530 C 23.037 6.251,22.988 6.178,22.205 5.387 C 21.795 4.972,21.411 4.608,21.352 4.577 C 21.174 4.483,20.952 4.505,20.776 4.634 " fill="#333333" stroke="none" fill-rule="evenodd"></path></svg>