<svg width="24" height="24" viewBox="0 0 24 24" fill="none" xmlns="http://www.w3.org/2000/svg"><path d="M11.773 5.070 C 11.630 5.149,0.119 16.691,0.046 16.827 C -0.012 16.938,-0.013 17.139,0.044 17.253 C 0.107 17.377,1.598 18.874,1.728 18.943 C 1.865 19.015,2.014 19.016,2.152 18.944 C 2.211 18.913,4.375 16.768,6.960 14.177 C 9.545 11.586,11.714 9.434,11.780 9.394 C 11.932 9.301,12.068 9.301,12.220 9.394 C 12.286 9.434,14.455 11.587,17.040 14.177 C 19.625 16.768,21.789 18.913,21.848 18.944 C 21.986 19.016,22.135 19.015,22.272 18.943 C 22.455 18.847,23.951 17.312,23.981 17.190 C 24.060 16.872,24.382 17.216,18.154 10.963 C 14.963 7.760,12.297 5.109,12.227 5.070 C 12.158 5.032,12.056 5.000,12.000 5.000 C 11.944 5.000,11.842 5.032,11.773 5.070 " fill="#333333" stroke="none" fill-rule="evenodd"></path></svg>