<svg width="24" height="24" viewBox="0 0 24 24" fill="none" xmlns="http://www.w3.org/2000/svg"><path d="M6.740 0.046 C 6.615 0.114,5.122 1.607,5.057 1.728 C 4.985 1.865,4.984 2.014,5.056 2.152 C 5.087 2.211,7.232 4.375,9.823 6.960 C 12.413 9.545,14.566 11.714,14.606 11.780 C 14.699 11.932,14.699 12.068,14.606 12.220 C 14.566 12.286,12.397 14.472,9.787 17.077 C 4.751 22.103,4.945 21.895,5.019 22.190 C 5.049 22.312,6.545 23.847,6.728 23.943 C 6.873 24.019,7.035 24.015,7.187 23.930 C 7.256 23.892,9.931 21.250,13.131 18.060 C 17.786 13.419,18.955 12.233,18.978 12.130 C 19.046 11.821,19.302 12.091,13.129 5.940 C 9.929 2.750,7.262 0.109,7.205 0.070 C 7.087 -0.008,6.861 -0.020,6.740 0.046 " fill="#333333" stroke="none" fill-rule="evenodd"></path></svg>