<svg width="24" height="24" viewBox="0 0 24 24" fill="none" xmlns="http://www.w3.org/2000/svg"><path d="M1.740 5.046 C 1.615 5.114,0.122 6.607,0.057 6.728 C -0.012 6.859,-0.015 7.069,0.051 7.185 C 0.078 7.232,2.719 9.898,5.920 13.110 C 10.589 17.794,11.766 18.955,11.870 18.978 C 12.155 19.040,12.210 19.001,13.184 18.025 C 24.571 6.619,24.064 7.145,23.981 6.810 C 23.951 6.688,22.455 5.153,22.272 5.057 C 22.135 4.985,21.986 4.984,21.848 5.056 C 21.789 5.087,19.602 7.255,16.989 9.873 C 13.422 13.447,12.208 14.641,12.119 14.660 C 12.054 14.675,11.946 14.674,11.880 14.660 C 11.789 14.640,10.601 13.472,7.010 9.873 C 4.397 7.255,2.211 5.087,2.152 5.056 C 2.024 4.990,1.851 4.985,1.740 5.046 " fill="#333333" stroke="none" fill-rule="evenodd"></path></svg>