<svg width="24" height="24" viewBox="0 0 24 24" fill="none" xmlns="http://www.w3.org/2000/svg"><path d="M4.564 0.575 C 4.513 0.637,0.001 14.584,0.001 14.683 C 0.000 14.718,0.040 14.784,0.090 14.829 C 0.139 14.875,2.808 16.836,6.020 19.186 C 11.138 22.931,11.877 23.460,12.000 23.460 C 12.123 23.460,12.862 22.931,17.980 19.186 C 21.192 16.836,23.861 14.875,23.910 14.829 C 23.959 14.784,24.000 14.720,24.000 14.687 C 24.000 14.592,19.487 0.636,19.436 0.575 C 19.367 0.492,4.633 0.492,4.564 0.575 M18.497 1.813 C 18.545 1.848,19.200 3.820,20.544 7.983 C 21.630 11.347,22.519 14.137,22.520 14.182 C 22.520 14.228,22.497 14.294,22.470 14.329 C 22.378 14.448,12.071 21.960,12.000 21.960 C 11.885 21.960,1.546 14.379,1.503 14.262 C 1.459 14.145,1.262 14.777,3.676 7.303 C 4.869 3.608,5.455 1.848,5.503 1.813 C 5.610 1.735,18.390 1.735,18.497 1.813 M6.424 3.052 C 6.330 3.121,2.952 13.568,2.969 13.739 C 2.979 13.847,3.371 14.144,7.260 16.990 C 12.344 20.710,11.930 20.417,12.048 20.385 C 12.098 20.371,14.138 18.897,16.580 17.109 C 20.614 14.155,21.021 13.847,21.031 13.739 C 21.048 13.568,17.670 3.121,17.576 3.052 C 17.471 2.975,6.530 2.975,6.424 3.052 M13.159 5.880 C 13.838 6.018,14.522 6.309,15.009 6.667 L 15.200 6.807 15.200 7.783 C 15.200 9.001,15.245 8.920,14.564 8.920 C 13.927 8.920,13.946 8.938,13.819 8.221 C 13.764 7.913,13.709 7.628,13.696 7.586 C 13.666 7.493,13.178 7.263,12.833 7.180 C 12.454 7.089,11.868 7.061,11.527 7.119 C 11.171 7.179,10.732 7.390,10.563 7.582 C 10.320 7.859,10.261 8.025,10.261 8.420 C 10.261 8.851,10.331 9.014,10.632 9.285 C 10.901 9.527,11.309 9.717,12.083 9.959 C 13.391 10.370,13.894 10.594,14.450 11.012 C 15.113 11.512,15.429 12.087,15.499 12.920 C 15.560 13.643,15.318 14.289,14.784 14.825 C 14.508 15.102,14.398 15.179,14.040 15.353 C 13.126 15.795,12.022 15.905,10.770 15.680 C 10.313 15.598,9.646 15.385,9.310 15.215 C 9.008 15.062,8.586 14.796,8.532 14.725 C 8.496 14.678,8.482 14.386,8.481 13.650 C 8.480 12.388,8.427 12.480,9.154 12.480 C 9.612 12.480,9.675 12.488,9.738 12.558 C 9.788 12.613,9.836 12.821,9.903 13.268 C 10.007 13.969,10.002 13.958,10.367 14.144 C 10.763 14.344,11.221 14.447,11.820 14.468 C 12.654 14.498,13.104 14.369,13.468 13.993 C 13.715 13.739,13.816 13.485,13.817 13.120 C 13.817 12.879,13.796 12.775,13.711 12.591 C 13.477 12.085,12.998 11.797,11.760 11.419 C 10.612 11.068,10.100 10.837,9.530 10.414 C 9.194 10.164,8.955 9.879,8.793 9.536 C 8.496 8.906,8.487 8.073,8.770 7.440 C 9.152 6.585,10.145 5.948,11.320 5.802 C 11.775 5.745,12.690 5.784,13.159 5.880 " fill="#333333" stroke="none" fill-rule="evenodd"></path></svg>