<svg width="24" height="24" viewBox="0 0 24 24" fill="none" xmlns="http://www.w3.org/2000/svg"><path d="M6.800 2.943 C 3.973 4.564,1.629 5.917,1.590 5.951 C 1.524 6.009,1.520 6.348,1.520 12.000 C 1.520 17.653,1.524 17.991,1.590 18.049 C 1.761 18.198,11.909 23.980,12.000 23.980 C 12.091 23.980,22.239 18.198,22.410 18.049 C 22.476 17.991,22.480 17.653,22.480 12.000 C 22.480 6.347,22.476 6.009,22.410 5.951 C 22.293 5.849,12.113 0.027,12.023 0.012 C 11.969 0.002,10.177 1.007,6.800 2.943 M16.606 4.040 C 19.078 5.455,21.132 6.640,21.170 6.673 C 21.236 6.729,21.240 7.033,21.240 12.000 C 21.240 16.967,21.236 17.271,21.170 17.327 C 20.989 17.481,12.090 22.540,12.000 22.540 C 11.910 22.540,3.010 17.481,2.830 17.327 C 2.764 17.271,2.760 16.967,2.760 11.999 C 2.760 7.321,2.767 6.724,2.821 6.679 C 2.855 6.651,4.920 5.460,7.411 4.032 C 10.487 2.269,11.967 1.441,12.026 1.452 C 12.073 1.460,14.134 2.625,16.606 4.040 M8.002 5.142 C 5.836 6.385,4.049 7.424,4.032 7.451 C 4.015 7.478,4.001 9.526,4.001 12.003 L 4.000 16.506 4.090 16.589 C 4.258 16.743,11.897 21.099,12.000 21.099 C 12.103 21.099,19.742 16.743,19.910 16.589 L 20.000 16.506 20.000 12.000 L 20.000 7.494 19.910 7.413 C 19.788 7.302,12.062 2.880,11.994 2.881 C 11.964 2.882,10.168 3.899,8.002 5.142 M15.800 8.300 L 15.800 9.600 15.120 9.600 C 14.499 9.600,14.440 9.594,14.439 9.530 C 14.438 9.492,14.412 9.208,14.380 8.900 C 14.348 8.592,14.321 8.335,14.321 8.330 C 14.320 8.324,13.550 8.324,12.610 8.330 L 10.900 8.340 10.889 9.750 L 10.879 11.160 12.679 11.160 L 14.480 11.160 14.480 11.840 L 14.480 12.520 12.680 12.520 L 10.880 12.520 10.880 14.100 L 10.880 15.680 12.700 15.680 C 14.406 15.680,14.520 15.676,14.521 15.610 C 14.522 15.572,14.548 15.288,14.580 14.980 C 14.612 14.672,14.639 14.415,14.639 14.410 C 14.640 14.405,14.946 14.400,15.320 14.400 L 16.000 14.400 16.000 15.700 L 16.000 17.000 11.999 17.000 L 7.998 17.000 8.009 16.470 L 8.020 15.940 8.570 15.840 L 9.120 15.741 9.120 12.013 C 9.120 8.497,9.116 8.284,9.050 8.265 C 9.011 8.254,8.760 8.204,8.490 8.155 L 8.000 8.066 8.000 7.533 L 8.000 7.000 11.900 7.000 L 15.800 7.000 15.800 8.300 " fill="#333333" stroke="none" fill-rule="evenodd"></path></svg>