<svg width="24" height="24" viewBox="0 0 24 24" fill="none" xmlns="http://www.w3.org/2000/svg"><path d="M5.950 5.950 C 1.226 10.674,0.000 11.921,0.000 12.000 C -0.000 12.146,11.854 24.000,12.000 24.000 C 12.146 24.000,24.000 12.146,24.000 12.000 C 24.000 11.854,12.146 -0.000,12.000 -0.000 C 11.921 -0.000,10.674 1.226,5.950 5.950 M17.170 6.830 C 21.929 11.589,22.200 11.868,22.200 12.000 C 22.200 12.132,21.929 12.411,17.170 17.170 C 12.411 21.929,12.132 22.200,12.000 22.200 C 11.868 22.200,11.589 21.929,6.830 17.170 C 2.071 12.411,1.800 12.132,1.800 12.000 C 1.800 11.868,2.071 11.589,6.830 6.830 C 11.589 2.071,11.868 1.800,12.000 1.800 C 12.132 1.800,12.411 2.071,17.170 6.830 M7.730 7.730 C 4.430 11.030,3.560 11.921,3.560 12.000 C 3.560 12.146,11.854 20.440,12.000 20.440 C 12.079 20.440,12.970 19.570,16.270 16.270 C 19.570 12.970,20.440 12.079,20.440 12.000 C 20.440 11.854,12.146 3.560,12.000 3.560 C 11.921 3.560,11.030 4.430,7.730 7.730 M13.228 7.118 C 13.896 7.254,14.377 7.450,14.930 7.813 L 15.240 8.016 15.240 9.088 L 15.240 10.160 14.622 10.160 L 14.005 10.160 13.982 9.990 C 13.921 9.530,13.840 8.857,13.840 8.811 C 13.840 8.727,13.489 8.527,13.140 8.411 C 12.849 8.314,12.762 8.305,12.180 8.302 C 11.396 8.299,11.128 8.368,10.650 8.693 C 9.996 9.138,9.574 9.910,9.439 10.908 C 9.366 11.445,9.408 12.599,9.516 13.029 C 9.751 13.969,10.222 14.608,10.940 14.963 C 11.395 15.188,11.742 15.252,12.380 15.228 C 12.906 15.208,13.178 15.154,13.594 14.989 L 13.820 14.900 13.888 14.420 C 13.925 14.156,13.967 13.864,13.980 13.770 L 14.005 13.600 14.623 13.600 L 15.241 13.600 15.231 14.667 L 15.220 15.734 14.941 15.885 C 14.127 16.326,12.787 16.572,11.714 16.478 C 10.519 16.373,9.644 15.979,8.935 15.227 C 8.288 14.540,7.926 13.702,7.796 12.584 C 7.738 12.083,7.773 10.899,7.858 10.481 C 8.251 8.561,9.562 7.296,11.420 7.043 C 11.851 6.984,12.757 7.021,13.228 7.118 " fill="#333333" stroke="none" fill-rule="evenodd"></path></svg>