<svg width="24" height="24" viewBox="0 0 24 24" fill="none" xmlns="http://www.w3.org/2000/svg"><path d="M3.353 4.579 C 1.007 7.470,0.057 8.669,0.049 8.749 C 0.039 8.844,2.253 18.486,2.361 18.822 C 2.391 18.915,2.456 18.971,2.630 19.057 C 3.314 19.394,11.970 23.480,12.000 23.480 C 12.030 23.480,20.686 19.394,21.370 19.057 C 21.545 18.971,21.608 18.915,21.638 18.822 C 21.748 18.480,23.961 8.844,23.951 8.748 C 23.943 8.669,22.997 7.475,20.647 4.578 L 17.353 0.520 11.999 0.520 L 6.645 0.520 3.353 4.579 M19.668 5.348 C 21.270 7.321,22.593 8.967,22.608 9.006 C 22.642 9.092,20.580 17.998,20.510 18.067 C 20.427 18.148,12.090 22.080,12.000 22.080 C 11.911 22.080,3.572 18.148,3.490 18.067 C 3.420 17.998,1.358 9.092,1.392 9.006 C 1.407 8.967,2.730 7.321,4.332 5.348 L 7.244 1.760 12.000 1.760 L 16.756 1.760 19.668 5.348 M7.830 3.050 C 7.766 3.099,2.890 9.095,2.773 9.267 C 2.720 9.346,2.793 9.689,3.619 13.247 C 4.258 15.999,4.543 17.159,4.591 17.204 C 4.704 17.308,11.891 20.691,12.000 20.691 C 12.109 20.691,19.297 17.308,19.409 17.204 C 19.457 17.159,19.736 16.026,20.361 13.340 C 20.846 11.250,21.254 9.493,21.266 9.437 C 21.285 9.347,20.960 8.929,18.780 6.237 C 17.401 4.533,16.236 3.109,16.192 3.070 C 16.116 3.004,15.858 3.000,12.003 3.000 C 8.778 3.000,7.881 3.011,7.830 3.050 M13.107 6.582 C 13.337 6.616,13.681 6.689,13.872 6.743 C 14.269 6.857,15.009 7.210,15.290 7.419 L 15.480 7.561 15.480 8.527 C 15.480 9.370,15.472 9.503,15.414 9.567 C 15.356 9.630,15.281 9.640,14.837 9.640 C 14.162 9.640,14.216 9.697,14.082 8.846 C 14.035 8.544,13.980 8.324,13.941 8.281 C 13.838 8.167,13.365 7.970,13.032 7.903 C 12.638 7.823,11.901 7.822,11.564 7.901 C 10.789 8.084,10.095 8.736,9.746 9.609 C 9.499 10.226,9.461 10.491,9.463 11.560 C 9.465 12.495,9.470 12.558,9.572 12.940 C 9.895 14.140,10.558 14.865,11.555 15.108 C 11.882 15.188,12.758 15.196,13.100 15.123 C 13.558 15.025,13.955 14.880,14.019 14.790 C 14.069 14.718,14.080 14.555,14.080 13.893 C 14.080 12.831,14.132 12.898,13.272 12.851 C 12.455 12.806,12.480 12.826,12.480 12.214 C 12.480 11.543,12.328 11.600,14.102 11.600 L 15.564 11.600 15.662 11.698 L 15.760 11.796 15.760 13.603 L 15.760 15.411 15.622 15.540 C 15.443 15.709,14.795 16.039,14.340 16.193 C 13.311 16.541,11.960 16.600,10.940 16.341 C 9.332 15.934,8.217 14.676,7.853 12.860 C 7.750 12.344,7.749 10.739,7.852 10.220 C 7.966 9.647,8.108 9.227,8.344 8.762 C 8.927 7.616,9.896 6.852,11.080 6.605 C 11.565 6.504,12.509 6.493,13.107 6.582 " fill="#333333" stroke="none" fill-rule="evenodd"></path></svg>