<svg width="24" height="24" viewBox="0 0 24 24" fill="none" xmlns="http://www.w3.org/2000/svg"><path d="M7.721 1.753 L 3.502 3.502 1.753 7.721 C 0.790 10.042,0.003 11.967,0.003 12.000 C 0.003 12.033,0.790 13.958,1.753 16.279 L 3.502 20.497 7.721 22.247 C 10.042 23.209,11.967 23.997,12.000 23.997 C 12.033 23.997,13.958 23.209,16.279 22.247 L 20.498 20.498 22.247 16.279 C 23.209 13.958,23.997 12.033,23.997 12.000 C 23.997 11.967,23.210 10.042,22.247 7.721 L 20.498 3.502 16.279 1.753 C 13.958 0.790,12.033 0.003,12.000 0.003 C 11.967 0.003,10.042 0.790,7.721 1.753 M15.780 2.898 C 17.821 3.743,19.508 4.452,19.528 4.472 C 19.584 4.528,22.640 11.921,22.640 12.000 C 22.640 12.079,19.584 19.472,19.528 19.528 C 19.472 19.584,12.079 22.640,12.000 22.640 C 11.921 22.640,4.528 19.584,4.472 19.528 C 4.416 19.472,1.360 12.079,1.360 12.000 C 1.360 11.921,4.416 4.528,4.472 4.472 C 4.532 4.412,11.892 1.366,11.985 1.363 C 12.031 1.361,13.739 2.052,15.780 2.898 M8.682 4.064 C 6.911 4.799,5.449 5.415,5.432 5.432 C 5.381 5.483,2.720 11.927,2.720 12.000 C 2.720 12.073,5.381 18.517,5.432 18.568 C 5.483 18.619,11.928 21.280,12.000 21.280 C 12.072 21.280,18.517 18.619,18.568 18.568 C 18.619 18.517,21.280 12.072,21.280 12.000 C 21.280 11.928,18.619 5.483,18.568 5.432 C 18.506 5.370,12.065 2.720,11.984 2.723 C 11.938 2.725,10.452 3.328,8.682 4.064 M13.920 7.113 C 15.380 7.498,16.244 8.598,16.246 10.076 C 16.248 11.002,15.998 11.678,15.445 12.240 C 15.010 12.682,14.627 12.895,13.920 13.090 C 13.658 13.162,13.461 13.175,12.376 13.196 C 11.408 13.215,11.117 13.232,11.066 13.275 C 11.007 13.324,11.000 13.461,11.000 14.500 C 11.000 15.429,11.011 15.679,11.054 15.715 C 11.083 15.739,11.284 15.796,11.501 15.840 C 11.718 15.885,11.928 15.951,11.968 15.987 C 12.070 16.079,12.075 16.815,11.974 16.927 C 11.912 16.996,11.802 17.000,10.136 17.000 L 8.365 17.000 8.302 16.911 C 8.257 16.846,8.240 16.723,8.240 16.456 C 8.240 15.969,8.261 15.945,8.776 15.840 C 8.994 15.795,9.197 15.739,9.226 15.715 C 9.270 15.678,9.280 15.018,9.280 11.997 C 9.280 8.384,9.279 8.322,9.201 8.281 C 9.158 8.258,8.959 8.205,8.760 8.164 C 8.259 8.061,8.240 8.039,8.240 7.563 C 8.240 7.276,8.256 7.155,8.303 7.087 L 8.367 6.997 10.973 7.010 C 13.524 7.023,13.587 7.025,13.920 7.113 M11.129 8.361 C 11.080 8.381,11.021 8.446,10.998 8.505 C 10.972 8.573,10.961 9.181,10.969 10.170 L 10.980 11.727 11.079 11.807 C 11.174 11.884,11.222 11.887,12.219 11.869 C 13.331 11.850,13.468 11.829,13.820 11.622 C 14.625 11.150,14.829 9.789,14.219 8.958 C 13.969 8.619,13.585 8.418,13.070 8.359 C 12.654 8.311,11.250 8.313,11.129 8.361 " fill="#333333" stroke="none" fill-rule="evenodd"></path></svg>