<svg width="24" height="24" viewBox="0 0 24 24" fill="none" xmlns="http://www.w3.org/2000/svg"><path d="M3.660 2.076 C 3.442 2.212,2.048 3.653,2.018 3.771 C 1.948 4.056,1.837 3.935,5.837 7.940 C 8.889 10.996,9.638 11.765,9.659 11.870 C 9.724 12.181,9.863 12.029,5.837 16.060 C 1.837 20.065,1.948 19.944,2.018 20.229 C 2.050 20.355,3.507 21.848,3.697 21.947 C 3.772 21.987,3.869 22.001,3.973 21.987 C 4.123 21.967,4.365 21.734,7.937 18.167 C 11.971 14.137,11.819 14.276,12.130 14.341 C 12.235 14.362,13.004 15.111,16.063 18.167 C 19.635 21.734,19.877 21.967,20.027 21.987 C 20.131 22.001,20.228 21.987,20.303 21.947 C 20.493 21.848,21.950 20.355,21.982 20.229 C 22.052 19.944,22.163 20.065,18.163 16.060 C 15.111 13.004,14.362 12.235,14.341 12.130 C 14.276 11.819,14.137 11.971,18.163 7.940 C 22.163 3.935,22.052 4.056,21.982 3.771 C 21.951 3.648,20.496 2.154,20.312 2.057 C 20.183 1.989,20.027 1.984,19.907 2.044 C 19.859 2.069,18.119 3.786,16.040 5.860 C 13.002 8.892,12.234 9.638,12.130 9.659 C 11.819 9.724,11.969 9.861,7.960 5.860 C 5.881 3.786,4.141 2.069,4.093 2.044 C 3.963 1.979,3.795 1.991,3.660 2.076 " fill="#333333" stroke="none" fill-rule="evenodd"></path></svg>