<svg width="24" height="24" viewBox="0 0 24 24" fill="none" xmlns="http://www.w3.org/2000/svg"><path d="M11.804 2.110 C 11.740 2.171,11.326 2.657,10.884 3.191 C 10.334 3.855,10.080 4.191,10.080 4.257 C 10.080 4.322,10.287 4.601,10.725 5.126 C 11.080 5.552,11.387 5.936,11.407 5.981 C 11.436 6.044,11.312 6.379,10.828 7.541 C 10.489 8.354,10.171 9.101,10.120 9.200 C 9.714 9.998,8.914 10.716,8.066 11.043 C 7.501 11.261,7.063 11.330,6.380 11.309 C 5.881 11.293,5.719 11.272,5.420 11.183 C 4.947 11.042,4.468 10.808,4.132 10.554 C 3.727 10.247,2.640 9.200,2.640 9.116 C 2.640 9.077,2.692 8.967,2.756 8.872 C 3.233 8.166,2.963 7.201,2.182 6.819 C 1.243 6.360,0.091 6.972,0.011 7.973 C -0.054 8.779,0.543 9.442,1.401 9.515 C 1.574 9.530,1.728 9.555,1.744 9.570 C 1.759 9.586,2.072 11.272,2.439 13.319 C 2.956 16.196,3.124 17.058,3.180 17.120 C 3.252 17.200,3.300 17.200,12.003 17.200 C 19.902 17.200,20.760 17.194,20.817 17.137 C 20.852 17.103,20.889 17.035,20.900 16.987 C 20.912 16.939,21.216 15.256,21.577 13.247 C 21.937 11.238,22.244 9.583,22.258 9.568 C 22.272 9.554,22.426 9.530,22.599 9.515 C 23.177 9.466,23.640 9.156,23.865 8.669 C 23.963 8.457,23.980 8.370,23.980 8.080 C 23.980 7.785,23.965 7.709,23.863 7.502 C 23.320 6.395,21.682 6.389,21.142 7.491 C 20.932 7.922,20.972 8.468,21.244 8.872 C 21.308 8.967,21.360 9.078,21.360 9.119 C 21.360 9.241,19.988 10.505,19.605 10.736 C 18.503 11.398,17.150 11.512,15.937 11.044 C 15.086 10.716,14.286 9.999,13.880 9.200 C 13.829 9.101,13.511 8.354,13.172 7.541 C 12.688 6.379,12.564 6.044,12.593 5.981 C 12.613 5.936,12.920 5.552,13.275 5.126 C 13.713 4.601,13.920 4.322,13.920 4.257 C 13.920 4.191,13.666 3.855,13.116 3.191 C 12.234 2.125,12.116 2.000,12.000 2.000 C 11.957 2.000,11.869 2.050,11.804 2.110 M3.603 19.225 C 3.556 19.285,3.529 19.365,3.540 19.415 C 3.550 19.462,3.632 19.914,3.722 20.420 C 3.900 21.418,3.961 21.585,4.219 21.782 C 4.520 22.012,4.108 22.000,12.000 22.000 C 19.892 22.000,19.480 22.012,19.781 21.782 C 20.043 21.582,20.100 21.423,20.296 20.340 C 20.473 19.361,20.475 19.338,20.404 19.240 L 20.331 19.140 12.009 19.130 L 3.686 19.120 3.603 19.225 " fill="#333333" stroke="none" fill-rule="evenodd"></path></svg>