<svg width="24" height="24" viewBox="0 0 24 24" fill="none" xmlns="http://www.w3.org/2000/svg"><path d="M11.580 2.047 C 10.859 2.185,10.199 2.848,10.044 3.592 C 9.789 4.816,10.751 6.000,12.000 6.000 C 13.080 6.000,14.000 5.080,14.000 4.000 C 14.000 3.477,13.790 2.983,13.404 2.596 C 12.913 2.106,12.277 1.914,11.580 2.047 M0.205 10.585 C 0.018 10.716,0.000 10.839,-0.000 12.000 C -0.000 13.161,0.018 13.284,0.205 13.415 C 0.290 13.475,1.246 13.480,12.000 13.480 C 22.754 13.480,23.710 13.475,23.795 13.415 C 23.982 13.284,24.000 13.161,24.000 12.000 C 24.000 10.839,23.982 10.716,23.795 10.585 C 23.710 10.525,22.754 10.520,12.000 10.520 C 1.246 10.520,0.290 10.525,0.205 10.585 M11.620 18.039 C 10.906 18.197,10.359 18.674,10.110 19.356 C 9.993 19.675,9.994 20.327,10.112 20.650 C 10.323 21.228,10.774 21.678,11.356 21.890 C 11.529 21.953,11.676 21.972,12.000 21.972 C 12.324 21.972,12.471 21.953,12.644 21.890 C 13.226 21.678,13.677 21.228,13.888 20.650 C 13.954 20.471,13.972 20.327,13.972 20.000 C 13.972 19.673,13.954 19.529,13.888 19.350 C 13.677 18.770,13.216 18.312,12.644 18.114 C 12.389 18.025,11.858 17.986,11.620 18.039 " fill="#333333" stroke="none" fill-rule="evenodd"></path></svg>