<svg width="24" height="24" viewBox="0 0 24 24" fill="none" xmlns="http://www.w3.org/2000/svg"><path d="M1.880 9.583 C 1.123 9.782,0.476 10.357,0.184 11.091 C -0.366 12.475,0.445 14.050,1.898 14.419 C 2.204 14.497,2.796 14.497,3.102 14.419 C 3.871 14.224,4.520 13.652,4.816 12.909 C 5.366 11.525,4.555 9.950,3.102 9.581 C 2.803 9.505,2.173 9.506,1.880 9.583 M11.392 9.582 C 10.892 9.703,10.339 10.059,10.045 10.449 C 9.689 10.921,9.521 11.418,9.521 12.000 C 9.521 12.982,10.029 13.802,10.908 14.237 C 11.565 14.563,12.435 14.563,13.092 14.237 C 13.771 13.900,14.251 13.305,14.420 12.590 C 14.547 12.052,14.475 11.395,14.237 10.905 C 13.912 10.240,13.301 9.748,12.592 9.581 C 12.281 9.507,11.697 9.508,11.392 9.582 M20.889 9.578 C 20.242 9.735,19.566 10.280,19.268 10.885 C 19.065 11.299,18.986 11.684,19.013 12.140 C 19.053 12.797,19.273 13.277,19.757 13.764 C 20.237 14.247,20.824 14.492,21.500 14.492 C 21.916 14.492,22.181 14.429,22.589 14.235 C 23.182 13.953,23.650 13.421,23.870 12.781 C 23.965 12.504,23.980 12.397,23.980 12.000 C 23.980 11.603,23.965 11.496,23.870 11.219 C 23.650 10.579,23.182 10.047,22.589 9.765 C 22.408 9.678,22.165 9.588,22.048 9.564 C 21.769 9.506,21.154 9.514,20.889 9.578 " fill="#333333" stroke="none" fill-rule="evenodd"></path></svg>