<svg width="24" height="24" viewBox="0 0 24 24" fill="none" xmlns="http://www.w3.org/2000/svg"><path d="M11.500 0.057 C 10.709 0.239,10.094 0.720,9.765 1.411 C 9.571 1.819,9.508 2.084,9.508 2.500 C 9.508 2.918,9.571 3.181,9.770 3.600 C 9.898 3.869,9.995 4.003,10.236 4.243 C 10.774 4.778,11.256 4.980,12.000 4.980 C 12.397 4.980,12.504 4.965,12.781 4.870 C 13.421 4.650,13.953 4.182,14.235 3.589 C 14.429 3.181,14.492 2.916,14.492 2.500 C 14.492 2.084,14.429 1.819,14.235 1.411 C 13.846 0.593,13.028 0.057,12.106 0.017 C 11.879 0.007,11.649 0.022,11.500 0.057 M11.392 9.582 C 10.892 9.703,10.339 10.059,10.045 10.449 C 9.689 10.921,9.521 11.418,9.521 12.000 C 9.521 12.982,10.029 13.802,10.908 14.237 C 11.565 14.563,12.435 14.563,13.092 14.237 C 13.771 13.900,14.251 13.305,14.420 12.590 C 14.547 12.052,14.475 11.395,14.237 10.905 C 13.912 10.240,13.301 9.748,12.592 9.581 C 12.281 9.507,11.697 9.508,11.392 9.582 M11.496 19.059 C 10.563 19.262,9.814 19.982,9.581 20.898 C 9.503 21.204,9.503 21.796,9.581 22.102 C 9.776 22.871,10.348 23.520,11.091 23.816 C 12.475 24.366,14.050 23.555,14.419 22.102 C 14.497 21.796,14.497 21.204,14.419 20.898 C 14.092 19.611,12.773 18.782,11.496 19.059 " fill="#333333" stroke="none" fill-rule="evenodd"></path></svg>