<svg width="24" height="24" viewBox="0 0 24 24" fill="none" xmlns="http://www.w3.org/2000/svg"><path d="M2.000 4.801 C 1.521 4.902,0.970 5.222,0.639 5.592 C 0.387 5.873,0.138 6.368,0.060 6.740 C -0.149 7.741,0.278 8.770,1.138 9.336 C 2.307 10.104,3.933 9.726,4.641 8.520 C 5.310 7.380,4.978 5.907,3.889 5.187 C 3.473 4.912,3.103 4.795,2.600 4.778 C 2.369 4.770,2.099 4.781,2.000 4.801 M11.368 4.841 C 10.652 5.029,10.092 5.495,9.760 6.180 C 9.562 6.590,9.504 6.897,9.530 7.391 C 9.557 7.883,9.665 8.225,9.913 8.606 C 10.162 8.986,10.493 9.279,10.897 9.476 C 11.299 9.671,11.565 9.733,12.000 9.733 C 12.187 9.733,12.439 9.710,12.560 9.683 C 12.893 9.607,13.397 9.344,13.660 9.110 C 13.951 8.850,14.253 8.393,14.364 8.045 C 14.470 7.711,14.508 7.091,14.443 6.751 C 14.382 6.437,14.135 5.920,13.924 5.668 C 13.298 4.919,12.302 4.596,11.368 4.841 M21.000 4.801 C 20.521 4.902,19.970 5.222,19.639 5.592 C 19.387 5.873,19.138 6.368,19.060 6.740 C 18.851 7.741,19.278 8.770,20.138 9.336 C 21.307 10.104,22.933 9.726,23.641 8.520 C 24.310 7.380,23.978 5.907,22.889 5.187 C 22.473 4.912,22.103 4.795,21.600 4.778 C 21.369 4.770,21.099 4.781,21.000 4.801 M2.146 14.285 C 1.315 14.393,0.539 14.989,0.200 15.780 C 0.098 16.017,-0.000 16.506,0.001 16.768 C 0.002 17.313,0.267 17.992,0.639 18.408 C 0.893 18.692,1.290 18.957,1.680 19.103 C 1.947 19.202,2.035 19.215,2.480 19.217 C 3.038 19.220,3.208 19.180,3.700 18.926 C 4.507 18.509,5.049 17.539,4.986 16.620 C 4.886 15.139,3.615 14.094,2.146 14.285 M11.660 14.280 C 10.947 14.379,10.312 14.783,9.913 15.395 C 9.665 15.775,9.557 16.117,9.530 16.609 C 9.504 17.103,9.562 17.410,9.760 17.820 C 10.557 19.467,12.750 19.737,13.924 18.332 C 14.135 18.080,14.382 17.563,14.443 17.249 C 14.508 16.909,14.470 16.289,14.364 15.955 C 14.016 14.859,12.822 14.120,11.660 14.280 M21.157 14.281 C 20.650 14.341,20.098 14.621,19.714 15.015 C 18.180 16.586,19.302 19.239,21.500 19.239 C 23.340 19.239,24.546 17.320,23.744 15.667 C 23.270 14.692,22.262 14.152,21.157 14.281 " fill="#333333" stroke="none" fill-rule="evenodd"></path></svg>