<svg width="24" height="24" viewBox="0 0 24 24" fill="none" xmlns="http://www.w3.org/2000/svg"><path d="M6.720 0.062 C 6.365 0.138,5.867 0.393,5.592 0.639 C 5.192 0.996,4.887 1.546,4.795 2.072 C 4.608 3.143,5.165 4.241,6.140 4.723 C 7.681 5.485,9.503 4.515,9.715 2.819 C 9.929 1.108,8.401 -0.299,6.720 0.062 M16.290 0.044 C 15.435 0.187,14.657 0.874,14.373 1.737 C 14.284 2.008,14.266 2.131,14.266 2.500 C 14.266 2.869,14.284 2.992,14.373 3.263 C 14.828 4.646,16.324 5.346,17.680 4.811 C 19.330 4.159,19.773 2.015,18.520 0.756 C 17.926 0.159,17.128 -0.095,16.290 0.044 M6.649 9.576 C 6.359 9.649,5.899 9.884,5.668 10.076 C 4.459 11.083,4.459 12.914,5.668 13.924 C 5.920 14.135,6.437 14.382,6.751 14.443 C 7.091 14.508,7.711 14.470,8.045 14.364 C 8.393 14.253,8.850 13.951,9.110 13.660 C 9.344 13.397,9.607 12.893,9.683 12.560 C 9.747 12.278,9.747 11.722,9.683 11.440 C 9.607 11.107,9.344 10.603,9.110 10.340 C 8.851 10.050,8.394 9.747,8.045 9.635 C 7.711 9.527,6.964 9.496,6.649 9.576 M16.093 9.600 C 15.404 9.780,14.841 10.246,14.524 10.897 C 14.329 11.299,14.267 11.565,14.267 12.000 C 14.267 12.435,14.329 12.701,14.524 13.103 C 14.721 13.507,15.014 13.838,15.394 14.087 C 15.775 14.335,16.117 14.443,16.609 14.470 C 17.103 14.496,17.410 14.438,17.820 14.240 C 19.467 13.443,19.737 11.250,18.332 10.076 C 18.096 9.879,17.573 9.622,17.288 9.564 C 16.967 9.497,16.420 9.514,16.093 9.600 M6.720 19.062 C 6.365 19.138,5.867 19.393,5.592 19.639 C 5.192 19.996,4.887 20.546,4.795 21.072 C 4.608 22.143,5.165 23.241,6.140 23.723 C 7.681 24.485,9.503 23.515,9.715 21.819 C 9.929 20.108,8.401 18.701,6.720 19.062 M16.220 19.066 C 15.316 19.257,14.568 19.979,14.334 20.889 C 14.251 21.212,14.251 21.788,14.334 22.111 C 14.571 23.032,15.323 23.749,16.248 23.937 C 16.833 24.056,17.320 23.990,17.878 23.715 C 18.465 23.425,18.909 22.895,19.145 22.200 C 19.202 22.033,19.220 21.864,19.220 21.500 C 19.220 21.136,19.202 20.967,19.145 20.800 C 18.909 20.105,18.465 19.575,17.878 19.285 C 17.322 19.011,16.803 18.942,16.220 19.066 " fill="#333333" stroke="none" fill-rule="evenodd"></path></svg>