<svg width="24" height="24" viewBox="0 0 24 24" fill="none" xmlns="http://www.w3.org/2000/svg"><path d="M2.611 2.611 C 2.098 3.125,2.000 3.242,2.000 3.341 C 2.000 3.446,3.110 4.570,11.270 12.730 C 19.430 20.890,20.554 22.000,20.659 22.000 C 20.758 22.000,20.875 21.902,21.389 21.389 C 21.902 20.875,22.000 20.758,22.000 20.659 C 22.000 20.554,20.893 19.433,12.730 11.270 C 4.575 3.116,3.445 2.000,3.341 2.000 C 3.242 2.000,3.124 2.098,2.611 2.611 M11.260 4.026 C 10.367 4.097,9.431 4.252,8.750 4.440 C 8.454 4.522,8.360 4.593,8.360 4.736 C 8.360 4.841,10.489 6.986,10.671 7.065 C 10.786 7.115,10.859 7.114,11.251 7.056 C 11.800 6.975,12.574 7.000,13.083 7.116 C 14.714 7.486,16.063 8.648,16.662 10.199 C 16.969 10.994,17.069 11.901,16.944 12.745 C 16.895 13.078,16.889 13.220,16.921 13.305 C 16.945 13.369,17.696 14.153,18.612 15.070 C 19.986 16.446,20.278 16.720,20.370 16.720 C 20.551 16.720,21.353 15.953,22.101 15.064 C 22.688 14.367,23.454 13.241,23.826 12.531 C 23.992 12.213,24.007 12.162,23.992 11.956 C 23.972 11.679,23.724 11.213,23.099 10.280 C 21.251 7.521,18.752 5.572,15.840 4.621 C 14.386 4.146,12.625 3.917,11.260 4.026 M3.123 7.640 C 2.141 8.531,0.976 10.026,0.254 11.319 C 0.035 11.711,0.020 11.754,0.020 12.000 C 0.020 12.245,0.035 12.290,0.253 12.681 C 0.572 13.254,1.243 14.252,1.657 14.767 C 2.749 16.127,3.909 17.168,5.312 18.047 C 8.081 19.783,11.383 20.390,14.494 19.736 C 15.476 19.529,15.640 19.462,15.640 19.264 C 15.640 19.159,13.511 17.014,13.329 16.935 C 13.214 16.885,13.141 16.886,12.749 16.944 C 12.200 17.025,11.426 17.000,10.917 16.884 C 8.353 16.303,6.673 13.852,7.056 11.255 C 7.105 10.922,7.111 10.780,7.079 10.695 C 7.055 10.631,6.304 9.847,5.388 8.930 C 4.009 7.549,3.722 7.280,3.629 7.280 C 3.546 7.280,3.421 7.368,3.123 7.640 " fill="#333333" stroke="none" fill-rule="evenodd"></path></svg>