<svg width="24" height="24" viewBox="0 0 24 24" fill="none" xmlns="http://www.w3.org/2000/svg"><path d="M11.220 4.025 C 10.698 4.067,9.934 4.172,9.489 4.263 C 5.772 5.027,2.389 7.584,0.312 11.200 C -0.109 11.933,-0.109 12.065,0.313 12.799 C 1.063 14.103,2.157 15.482,3.197 16.432 C 5.371 18.417,7.812 19.569,10.600 19.926 C 11.154 19.997,12.846 19.997,13.400 19.926 C 16.188 19.569,18.629 18.417,20.803 16.432 C 21.843 15.482,22.937 14.103,23.687 12.799 C 24.109 12.065,24.109 11.935,23.687 11.201 C 21.409 7.238,17.664 4.622,13.520 4.100 C 13.034 4.038,11.622 3.992,11.220 4.025 M12.601 7.042 C 13.369 7.136,14.154 7.432,14.824 7.881 C 14.998 7.997,15.313 8.265,15.524 8.476 C 17.687 10.640,17.425 14.175,14.964 16.022 C 14.405 16.441,13.631 16.780,12.900 16.925 C 12.532 16.998,11.468 16.998,11.100 16.925 C 10.425 16.791,9.678 16.478,9.155 16.111 C 8.462 15.624,7.901 14.963,7.517 14.180 C 6.982 13.089,6.864 11.865,7.180 10.680 C 7.309 10.196,7.683 9.433,7.994 9.016 C 9.061 7.588,10.840 6.826,12.601 7.042 M11.392 9.582 C 10.892 9.703,10.339 10.059,10.045 10.449 C 9.689 10.921,9.521 11.418,9.521 12.000 C 9.521 12.982,10.029 13.802,10.908 14.237 C 11.565 14.563,12.435 14.563,13.092 14.237 C 13.771 13.900,14.251 13.305,14.420 12.590 C 14.547 12.052,14.475 11.395,14.237 10.905 C 13.912 10.240,13.301 9.748,12.592 9.581 C 12.281 9.507,11.697 9.508,11.392 9.582 " fill="#333333" stroke="none" fill-rule="evenodd"></path></svg>