<svg width="24" height="24" viewBox="0 0 24 24" fill="none" xmlns="http://www.w3.org/2000/svg"><path d="M8.122 0.070 C 8.013 0.159,8.009 0.235,8.094 0.660 C 8.409 2.235,8.357 3.693,7.942 4.946 C 7.612 5.945,7.091 6.801,5.804 8.460 C 4.790 9.767,4.385 10.371,3.977 11.180 C 3.345 12.435,3.061 13.575,3.012 15.063 C 2.952 16.895,3.362 18.631,4.185 20.030 C 5.239 21.821,6.960 23.097,9.058 23.642 C 11.146 24.185,13.558 24.109,15.580 23.436 C 16.095 23.265,17.159 22.725,17.580 22.422 C 19.729 20.874,20.892 18.444,20.987 15.300 C 21.135 10.444,18.585 5.160,14.713 2.296 C 12.855 0.922,10.845 0.176,8.577 0.020 C 8.260 -0.002,8.203 0.004,8.122 0.070 M13.321 11.101 C 13.530 11.209,13.556 11.318,13.550 12.044 C 13.546 12.598,13.559 12.755,13.633 13.055 C 13.756 13.554,13.974 13.992,14.426 14.651 C 15.040 15.548,15.100 15.642,15.260 15.960 C 15.597 16.628,15.731 17.227,15.732 18.060 C 15.734 18.902,15.590 19.524,15.243 20.188 C 14.598 21.418,13.365 22.063,11.802 21.987 C 10.842 21.941,10.077 21.651,9.505 21.116 C 8.649 20.318,8.265 19.294,8.268 17.820 C 8.271 16.568,8.567 15.379,9.165 14.219 C 9.996 12.603,11.241 11.504,12.651 11.139 C 13.091 11.026,13.168 11.021,13.321 11.101 " fill="#333333" stroke="none" fill-rule="evenodd"></path></svg>