<svg width="24" height="24" viewBox="0 0 24 24" fill="none" xmlns="http://www.w3.org/2000/svg"><path d="M6.180 0.025 C 5.712 0.062,4.870 0.172,4.480 0.245 C 3.713 0.389,2.436 0.764,2.208 0.912 C 1.985 1.056,2.000 0.255,2.000 12.408 C 2.000 23.458,2.001 23.622,2.078 23.748 C 2.213 23.970,2.325 24.000,3.000 24.000 C 3.675 24.000,3.787 23.970,3.922 23.748 C 3.998 23.623,4.000 23.513,4.000 19.154 C 4.000 14.961,4.004 14.684,4.070 14.604 C 4.127 14.536,4.251 14.501,4.720 14.422 C 5.641 14.267,6.269 14.227,7.379 14.252 C 9.156 14.291,10.188 14.505,12.144 15.241 C 13.685 15.821,14.783 16.064,16.307 16.163 C 17.473 16.238,18.799 16.116,20.018 15.822 C 20.631 15.675,21.643 15.351,21.789 15.257 C 22.014 15.112,22.001 15.561,21.990 8.096 L 21.980 1.229 21.874 1.149 L 21.768 1.070 21.283 1.234 C 18.335 2.230,15.297 2.184,12.356 1.098 C 10.628 0.460,9.913 0.270,8.580 0.097 C 8.147 0.040,6.572 -0.007,6.180 0.025 " fill="#333333" stroke="none" fill-rule="evenodd"></path></svg>