<svg width="24" height="24" viewBox="0 0 24 24" fill="none" xmlns="http://www.w3.org/2000/svg"><path d="M9.687 0.027 C 9.546 0.084,9.557 0.231,9.765 1.062 C 9.932 1.728,9.961 1.891,9.920 1.940 C 9.879 1.989,9.739 2.000,9.121 2.000 C 8.427 2.000,8.367 2.006,8.301 2.079 C 8.247 2.138,8.206 2.341,8.134 2.889 C 8.081 3.291,8.043 3.682,8.049 3.759 C 8.061 3.913,8.153 3.980,8.406 4.019 C 8.617 4.052,8.807 4.195,8.910 4.399 C 9.000 4.576,9.000 4.584,8.999 6.498 L 8.998 8.420 8.569 8.555 C 6.937 9.067,5.358 10.064,4.073 11.392 C 2.447 13.073,1.445 15.141,1.094 17.540 C 0.995 18.217,0.994 19.792,1.093 20.460 C 1.245 21.489,1.526 22.492,1.910 23.379 C 2.061 23.727,2.128 23.836,2.236 23.909 L 2.372 24.000 11.996 24.000 C 21.545 24.000,21.621 23.999,21.751 23.920 C 22.073 23.724,22.674 21.960,22.886 20.590 C 23.004 19.828,23.015 18.274,22.907 17.540 C 22.553 15.136,21.553 13.073,19.927 11.392 C 18.642 10.064,17.063 9.067,15.431 8.555 L 15.002 8.420 15.001 6.498 C 15.000 4.584,15.000 4.576,15.090 4.399 C 15.193 4.195,15.383 4.052,15.594 4.019 C 15.847 3.980,15.939 3.913,15.951 3.759 C 15.957 3.682,15.919 3.291,15.866 2.889 C 15.794 2.341,15.753 2.138,15.699 2.079 C 15.633 2.006,15.573 2.000,14.879 2.000 C 14.261 2.000,14.121 1.989,14.080 1.940 C 14.039 1.891,14.068 1.728,14.235 1.062 C 14.447 0.215,14.455 0.085,14.300 0.025 C 14.221 -0.005,9.763 -0.003,9.687 0.027 M12.952 4.048 C 12.988 4.084,13.000 4.796,13.000 7.008 C 13.000 10.372,12.952 10.039,13.446 10.119 C 14.956 10.364,16.425 11.020,17.640 11.993 C 19.119 13.178,20.226 14.885,20.703 16.714 C 20.827 17.192,20.828 17.340,20.710 17.416 C 20.630 17.467,19.695 17.396,12.300 16.778 C 7.724 16.395,3.931 16.082,3.870 16.081 C 3.810 16.081,3.722 16.042,3.675 15.995 C 3.552 15.872,3.590 15.725,3.915 15.066 C 4.825 13.215,6.221 11.819,8.060 10.919 C 8.875 10.520,9.689 10.259,10.554 10.119 C 11.048 10.039,11.000 10.372,11.000 7.008 C 11.000 4.796,11.012 4.084,11.048 4.048 C 11.116 3.980,12.884 3.980,12.952 4.048 " fill="#333333" stroke="none" fill-rule="evenodd"></path></svg>