<svg width="24" height="24" viewBox="0 0 24 24" fill="none" xmlns="http://www.w3.org/2000/svg"><path d="M11.491 0.037 C 11.420 0.055,11.312 0.101,11.251 0.140 C 10.906 0.359,10.797 0.568,10.756 1.086 C 10.700 1.805,10.433 2.098,9.672 2.279 C 9.489 2.322,9.214 2.394,9.060 2.439 C 8.683 2.548,8.392 2.544,8.140 2.425 C 7.909 2.316,7.818 2.226,7.587 1.875 C 7.364 1.536,7.128 1.389,6.770 1.367 C 6.521 1.351,6.490 1.359,6.128 1.545 C 5.657 1.786,5.435 1.993,5.341 2.278 C 5.241 2.577,5.274 2.818,5.463 3.171 C 5.606 3.437,5.619 3.485,5.619 3.780 C 5.619 4.016,5.599 4.137,5.544 4.240 C 5.416 4.482,4.445 5.438,4.220 5.544 C 3.895 5.698,3.614 5.679,3.198 5.473 C 2.910 5.330,2.822 5.305,2.600 5.303 C 2.128 5.298,1.830 5.539,1.496 6.198 C 1.341 6.503,1.320 6.833,1.439 7.109 C 1.541 7.345,1.627 7.434,1.992 7.680 C 2.337 7.913,2.481 8.139,2.508 8.488 C 2.525 8.698,2.500 8.844,2.362 9.360 C 2.161 10.109,2.108 10.239,1.932 10.421 C 1.711 10.648,1.509 10.728,1.080 10.759 C 0.665 10.789,0.459 10.867,0.275 11.066 C 0.049 11.310,0.020 11.416,0.020 12.000 C 0.020 12.620,0.067 12.760,0.360 13.011 C 0.547 13.171,0.730 13.226,1.171 13.257 C 1.524 13.282,1.726 13.367,1.932 13.579 C 2.108 13.761,2.161 13.891,2.362 14.640 C 2.562 15.386,2.564 15.642,2.374 15.951 C 2.266 16.125,2.197 16.186,1.750 16.500 C 1.427 16.728,1.274 17.219,1.407 17.604 C 1.501 17.876,1.844 18.402,2.001 18.516 C 2.353 18.771,2.722 18.777,3.173 18.535 C 3.437 18.394,3.485 18.381,3.780 18.381 C 4.031 18.381,4.134 18.400,4.260 18.467 C 4.454 18.571,5.440 19.564,5.544 19.760 C 5.599 19.863,5.619 19.984,5.619 20.220 C 5.619 20.515,5.606 20.563,5.465 20.827 C 5.223 21.278,5.229 21.647,5.484 21.999 C 5.598 22.156,6.124 22.499,6.396 22.593 C 6.617 22.669,6.917 22.650,7.140 22.545 C 7.368 22.438,7.452 22.354,7.655 22.032 C 7.889 21.663,8.185 21.485,8.572 21.482 C 8.765 21.480,9.848 21.749,10.130 21.869 C 10.213 21.904,10.343 21.994,10.421 22.068 C 10.645 22.287,10.722 22.480,10.756 22.914 C 10.790 23.335,10.869 23.542,11.066 23.725 C 11.310 23.951,11.416 23.980,12.000 23.980 C 12.477 23.980,12.559 23.970,12.700 23.894 C 13.060 23.699,13.202 23.444,13.244 22.914 C 13.278 22.480,13.355 22.287,13.579 22.068 C 13.657 21.994,13.787 21.904,13.870 21.869 C 14.152 21.749,15.235 21.480,15.428 21.482 C 15.815 21.485,16.111 21.663,16.345 22.032 C 16.548 22.354,16.632 22.438,16.860 22.545 C 17.083 22.650,17.383 22.669,17.604 22.593 C 17.876 22.499,18.402 22.156,18.516 21.999 C 18.771 21.647,18.777 21.278,18.535 20.827 C 18.394 20.563,18.381 20.515,18.381 20.220 C 18.381 19.984,18.401 19.863,18.456 19.760 C 18.560 19.564,19.546 18.571,19.740 18.467 C 19.866 18.400,19.969 18.381,20.220 18.381 C 20.515 18.381,20.563 18.394,20.827 18.535 C 21.278 18.777,21.647 18.771,21.999 18.516 C 22.156 18.402,22.499 17.876,22.593 17.604 C 22.726 17.220,22.573 16.729,22.250 16.500 C 22.157 16.434,22.005 16.326,21.912 16.259 C 21.663 16.082,21.515 15.819,21.492 15.512 C 21.475 15.302,21.500 15.156,21.638 14.640 C 21.839 13.891,21.892 13.761,22.068 13.579 C 22.284 13.358,22.470 13.284,22.909 13.246 C 23.335 13.210,23.543 13.130,23.725 12.934 C 23.951 12.690,23.980 12.584,23.980 12.000 C 23.980 11.523,23.970 11.441,23.894 11.300 C 23.698 10.938,23.442 10.796,22.916 10.759 C 22.603 10.736,22.493 10.710,22.326 10.619 C 21.967 10.424,21.880 10.264,21.638 9.360 C 21.500 8.845,21.475 8.697,21.492 8.488 C 21.519 8.139,21.663 7.913,22.008 7.680 C 22.376 7.431,22.438 7.369,22.545 7.140 C 22.698 6.816,22.677 6.556,22.469 6.150 C 22.237 5.699,22.118 5.553,21.870 5.417 C 21.697 5.322,21.614 5.301,21.400 5.303 C 21.178 5.305,21.091 5.329,20.802 5.473 C 20.386 5.679,20.105 5.698,19.780 5.544 C 19.555 5.438,18.584 4.482,18.456 4.240 C 18.401 4.137,18.381 4.016,18.381 3.780 C 18.381 3.485,18.394 3.437,18.537 3.171 C 18.911 2.472,18.707 1.973,17.872 1.545 C 17.510 1.359,17.479 1.351,17.230 1.367 C 16.872 1.389,16.636 1.536,16.413 1.875 C 16.182 2.226,16.091 2.316,15.860 2.425 C 15.608 2.544,15.317 2.548,14.940 2.439 C 14.786 2.394,14.511 2.322,14.328 2.279 C 13.567 2.098,13.300 1.805,13.244 1.086 C 13.201 0.543,13.059 0.298,12.665 0.091 C 12.524 0.017,11.715 -0.021,11.491 0.037 M13.420 4.637 C 16.455 5.251,18.786 7.588,19.360 10.592 C 19.440 11.011,19.442 11.051,19.382 11.142 L 19.318 11.240 15.880 11.240 L 12.441 11.240 12.348 11.090 C 12.296 11.008,11.531 9.687,10.647 8.155 C 9.681 6.481,9.040 5.329,9.040 5.268 C 9.040 5.212,9.067 5.138,9.101 5.105 C 9.193 5.013,10.079 4.737,10.580 4.644 C 11.226 4.524,11.190 4.527,12.120 4.538 C 12.821 4.546,13.061 4.565,13.420 4.637 M7.688 6.090 C 7.792 6.172,11.080 11.901,11.080 12.000 C 11.080 12.070,8.239 17.060,7.772 17.810 C 7.637 18.028,7.511 18.015,7.192 17.751 C 5.784 16.585,4.844 14.888,4.580 13.035 C 4.505 12.503,4.505 11.497,4.580 10.965 C 4.844 9.111,5.783 7.416,7.192 6.249 C 7.447 6.038,7.571 5.998,7.688 6.090 M19.360 12.840 C 19.458 12.938,19.458 12.903,19.357 13.428 C 18.920 15.695,17.426 17.667,15.360 18.701 C 13.571 19.597,11.576 19.742,9.651 19.115 C 9.126 18.945,9.040 18.891,9.040 18.732 C 9.040 18.624,12.319 12.899,12.432 12.810 C 12.481 12.771,13.234 12.760,15.888 12.760 C 19.227 12.760,19.281 12.761,19.360 12.840 " fill="#333333" stroke="none" fill-rule="evenodd"></path></svg>