<svg width="24" height="24" viewBox="0 0 24 24" fill="none" xmlns="http://www.w3.org/2000/svg"><path d="M8.433 0.040 C 7.843 0.134,7.221 0.380,6.731 0.712 C 5.955 1.240,5.394 2.037,5.130 2.989 C 5.034 3.337,5.022 3.448,5.022 4.000 C 5.023 4.681,5.088 5.022,5.323 5.573 C 5.520 6.037,5.687 6.000,3.377 6.000 C 1.191 6.000,1.235 5.995,1.078 6.252 C 1.004 6.373,1.000 6.464,1.000 8.000 C 1.000 9.536,1.004 9.627,1.078 9.748 C 1.246 10.022,0.280 10.000,12.008 10.000 C 22.463 10.000,22.622 9.999,22.748 9.922 C 23.001 9.768,23.000 9.772,23.000 7.992 C 23.000 6.464,22.996 6.373,22.922 6.252 C 22.765 5.995,22.809 6.000,20.623 6.000 C 18.308 6.000,18.482 6.040,18.682 5.555 C 18.922 4.974,18.977 4.681,18.976 4.000 C 18.975 3.460,18.961 3.330,18.871 2.995 C 18.617 2.054,18.046 1.240,17.269 0.712 C 16.913 0.471,16.341 0.214,15.938 0.113 C 15.429 -0.013,14.571 -0.013,14.062 0.113 C 13.424 0.272,12.738 0.645,12.243 1.104 L 12.000 1.329 11.757 1.104 C 11.266 0.649,10.574 0.270,9.958 0.120 C 9.572 0.026,8.783 -0.016,8.433 0.040 M9.383 2.043 C 10.151 2.184,10.816 2.849,10.957 3.617 C 11.018 3.956,11.015 5.889,10.952 5.952 C 10.888 6.016,8.894 6.019,8.592 5.956 C 8.021 5.837,7.454 5.394,7.207 4.875 C 6.836 4.096,6.989 3.204,7.596 2.596 C 8.085 2.108,8.698 1.918,9.383 2.043 M15.383 2.043 C 16.185 2.190,16.839 2.872,16.967 3.695 C 17.128 4.734,16.433 5.742,15.408 5.956 C 15.106 6.019,13.112 6.016,13.048 5.952 C 12.985 5.889,12.982 3.956,13.043 3.617 C 13.113 3.238,13.299 2.894,13.596 2.596 C 14.085 2.108,14.698 1.918,15.383 2.043 M3.252 12.078 C 2.982 12.243,3.000 11.810,3.000 18.008 C 3.000 23.503,3.002 23.623,3.078 23.748 C 3.241 24.014,3.022 24.000,7.000 24.000 C 10.978 24.000,10.759 24.014,10.922 23.748 C 10.998 23.623,11.000 23.504,11.000 18.000 C 11.000 12.496,10.998 12.377,10.922 12.252 C 10.759 11.986,10.979 12.000,6.992 12.000 C 3.480 12.000,3.376 12.002,3.252 12.078 M13.252 12.078 C 12.982 12.243,13.000 11.810,13.000 18.008 C 13.000 23.503,13.002 23.623,13.078 23.748 C 13.241 24.014,13.022 24.000,17.000 24.000 C 20.978 24.000,20.759 24.014,20.922 23.748 C 20.998 23.623,21.000 23.504,21.000 18.000 C 21.000 12.496,20.998 12.377,20.922 12.252 C 20.759 11.986,20.979 12.000,16.992 12.000 C 13.480 12.000,13.376 12.002,13.252 12.078 " fill="#333333" stroke="none" fill-rule="evenodd"></path></svg>