<svg width="24" height="24" viewBox="0 0 24 24" fill="none" xmlns="http://www.w3.org/2000/svg"><path d="M10.880 1.902 C 9.725 2.662,8.732 3.340,8.673 3.408 C 8.535 3.565,8.496 3.786,8.573 3.965 C 8.609 4.046,9.353 4.818,10.439 5.900 C 11.432 6.890,12.271 7.749,12.303 7.808 C 12.377 7.948,12.376 8.173,12.300 8.319 C 12.267 8.383,9.505 11.056,6.161 14.260 C -0.402 20.548,-0.045 20.183,0.016 20.546 C 0.039 20.684,0.189 20.845,1.427 22.067 C 2.929 23.548,2.946 23.561,3.272 23.472 C 3.462 23.420,3.239 23.644,9.900 16.820 C 12.927 13.718,15.438 11.164,15.480 11.145 C 15.521 11.126,15.600 11.121,15.655 11.135 C 15.714 11.150,16.562 11.960,17.730 13.116 C 19.879 15.244,19.834 15.208,20.179 15.115 C 20.315 15.078,20.571 14.844,21.820 13.611 C 24.013 11.446,23.951 11.511,23.983 11.341 C 24.043 11.020,24.049 11.027,21.961 8.940 C 19.853 6.833,19.878 6.863,20.090 6.679 C 20.382 6.425,20.437 6.358,20.476 6.214 C 20.559 5.908,20.533 5.873,19.230 4.568 C 18.564 3.900,17.953 3.320,17.872 3.277 C 17.592 3.132,17.382 3.190,17.114 3.487 C 16.814 3.820,16.817 3.821,15.932 2.969 C 15.518 2.571,14.820 1.883,14.380 1.440 C 13.940 0.997,13.531 0.609,13.472 0.577 C 13.413 0.546,13.278 0.520,13.172 0.520 C 12.987 0.520,12.905 0.569,10.880 1.902 " fill="#333333" stroke="none" fill-rule="evenodd"></path></svg>