<svg width="24" height="24" viewBox="0 0 24 24" fill="none" xmlns="http://www.w3.org/2000/svg"><path d="M12.300 0.035 C 12.079 0.094,11.850 0.236,11.706 0.403 C 11.423 0.734,11.440 0.396,11.440 5.838 C 11.440 10.510,11.437 10.748,11.367 10.878 C 11.293 11.016,11.080 11.160,10.949 11.160 C 10.813 11.160,10.612 11.049,10.523 10.924 C 10.439 10.806,10.415 10.582,10.101 6.980 C 9.731 2.737,9.765 2.958,9.433 2.658 C 9.111 2.367,8.707 2.267,8.288 2.375 C 7.837 2.490,7.489 2.800,7.377 3.186 C 7.319 3.384,7.337 3.634,7.778 8.713 C 8.032 11.639,8.240 14.112,8.240 14.209 C 8.240 14.342,8.217 14.408,8.147 14.473 C 8.035 14.579,7.839 14.587,7.729 14.490 C 7.685 14.451,7.078 13.628,6.380 12.660 C 5.682 11.692,5.036 10.823,4.945 10.728 C 4.854 10.633,4.663 10.498,4.521 10.428 C 4.287 10.313,4.226 10.300,3.901 10.300 C 3.593 10.300,3.506 10.316,3.311 10.408 C 2.617 10.733,2.336 11.480,2.610 12.268 C 2.707 12.546,3.466 13.894,5.893 18.100 C 7.757 21.330,7.829 21.440,8.559 22.160 C 9.464 23.052,10.649 23.671,11.900 23.905 C 12.496 24.017,13.628 24.007,14.200 23.885 C 15.458 23.617,16.421 23.098,17.325 22.201 C 18.282 21.252,18.931 20.158,19.393 18.711 C 19.481 18.436,19.590 18.042,19.635 17.835 C 19.679 17.629,20.121 14.839,20.617 11.637 L 21.519 5.813 21.458 5.579 C 21.424 5.450,21.376 5.317,21.351 5.282 C 21.090 4.933,20.787 4.757,20.395 4.729 C 20.017 4.702,19.759 4.796,19.498 5.056 C 19.329 5.226,19.283 5.305,19.226 5.520 C 19.188 5.663,18.933 7.066,18.658 8.638 C 18.355 10.371,18.134 11.533,18.097 11.590 C 18.018 11.711,17.806 11.840,17.686 11.840 C 17.512 11.840,17.332 11.721,17.242 11.547 L 17.155 11.380 17.532 7.067 C 17.805 3.939,17.899 2.705,17.875 2.575 C 17.828 2.322,17.727 2.127,17.553 1.953 C 17.317 1.717,17.108 1.629,16.736 1.608 C 16.445 1.592,16.385 1.602,16.163 1.702 C 15.856 1.839,15.625 2.090,15.540 2.375 C 15.502 2.503,15.346 4.127,15.125 6.689 C 14.741 11.142,14.772 10.918,14.508 11.084 C 14.273 11.231,13.952 11.116,13.826 10.840 C 13.793 10.767,13.775 9.374,13.760 5.760 L 13.740 0.780 13.654 0.620 C 13.544 0.418,13.349 0.233,13.126 0.122 C 12.937 0.027,12.503 -0.019,12.300 0.035 " fill="#333333" stroke="none" fill-rule="evenodd"></path></svg>