<svg width="24" height="24" viewBox="0 0 24 24" fill="none" xmlns="http://www.w3.org/2000/svg"><path d="M5.986 0.395 C 5.952 0.922,5.864 1.372,5.695 1.881 C 4.933 4.187,2.815 5.828,0.395 5.986 L 0.000 6.012 0.000 7.011 L 0.000 8.011 0.428 7.982 C 2.413 7.849,4.124 7.109,5.511 5.783 C 7.003 4.358,7.841 2.542,7.982 0.428 L 8.011 0.000 7.011 0.000 L 6.012 0.000 5.986 0.395 M10.985 0.550 C 10.875 2.754,10.122 4.826,8.774 6.633 C 8.314 7.248,7.248 8.314,6.633 8.774 C 4.828 10.120,2.740 10.880,0.550 10.986 L 0.000 11.012 0.000 12.000 L 0.000 12.988 0.550 13.014 C 2.740 13.120,4.828 13.880,6.633 15.226 C 7.248 15.686,8.314 16.752,8.774 17.367 C 10.122 19.174,10.875 21.246,10.985 23.450 L 11.012 24.000 12.000 24.000 L 12.988 24.000 13.014 23.456 C 13.119 21.262,13.877 19.175,15.226 17.367 C 15.686 16.752,16.752 15.686,17.367 15.226 C 19.172 13.880,21.260 13.120,23.450 13.014 L 24.000 12.988 24.000 12.000 L 24.000 11.012 23.450 10.986 C 21.260 10.880,19.172 10.120,17.367 8.774 C 16.752 8.314,15.686 7.248,15.226 6.633 C 13.880 4.828,13.120 2.740,13.014 0.550 L 12.988 -0.000 12.000 -0.000 L 11.012 0.000 10.985 0.550 M16.016 0.410 C 16.158 2.540,16.992 4.353,18.489 5.783 C 19.881 7.113,21.589 7.851,23.590 7.984 L 24.000 8.011 24.000 7.012 L 24.000 6.012 23.605 5.986 C 22.157 5.891,20.802 5.275,19.766 4.238 C 18.726 3.198,18.109 1.849,18.015 0.407 L 17.988 0.000 16.988 0.000 L 15.989 0.000 16.016 0.410 M12.137 5.310 C 12.283 5.655,12.752 6.526,13.014 6.940 C 14.005 8.501,15.274 9.797,16.837 10.840 C 17.300 11.149,18.243 11.672,18.650 11.845 C 18.820 11.918,18.960 11.987,18.960 12.000 C 18.960 12.013,18.820 12.082,18.650 12.155 C 18.243 12.328,17.300 12.851,16.837 13.160 C 15.274 14.203,14.005 15.499,13.014 17.060 C 12.752 17.474,12.283 18.345,12.137 18.690 C 12.074 18.839,12.012 18.960,12.000 18.960 C 11.988 18.960,11.926 18.839,11.863 18.690 C 11.717 18.345,11.248 17.474,10.986 17.060 C 9.995 15.499,8.726 14.203,7.163 13.160 C 6.700 12.851,5.757 12.328,5.350 12.155 C 5.179 12.082,5.040 12.013,5.040 12.000 C 5.040 11.988,5.162 11.926,5.310 11.863 C 5.661 11.713,6.533 11.244,6.940 10.986 C 8.569 9.952,9.945 8.576,10.985 6.940 C 11.243 6.535,11.713 5.662,11.863 5.310 C 11.926 5.162,11.988 5.040,12.000 5.040 C 12.012 5.040,12.074 5.162,12.137 5.310 M11.580 10.047 C 10.707 10.214,10.000 11.087,10.000 12.000 C 10.000 12.920,10.690 13.768,11.592 13.956 C 12.816 14.211,14.000 13.249,14.000 12.000 C 14.000 11.477,13.790 10.983,13.404 10.596 C 12.913 10.106,12.277 9.914,11.580 10.047 M0.000 16.988 L 0.000 17.988 0.395 18.014 C 0.922 18.048,1.372 18.136,1.881 18.305 C 4.187 19.067,5.828 21.185,5.986 23.605 L 6.012 24.000 7.011 24.000 L 8.011 24.000 7.982 23.572 C 7.849 21.587,7.109 19.876,5.783 18.489 C 4.353 16.992,2.540 16.158,0.410 16.016 L 0.000 15.989 0.000 16.988 M23.420 16.026 C 23.354 16.034,23.129 16.060,22.920 16.084 C 22.437 16.139,21.574 16.359,21.104 16.546 C 20.094 16.948,19.258 17.482,18.489 18.217 C 16.991 19.648,16.158 21.458,16.016 23.590 L 15.989 24.000 16.988 24.000 L 17.988 24.000 18.015 23.593 C 18.209 20.623,20.623 18.209,23.593 18.015 L 24.000 17.988 24.000 16.994 L 24.000 16.000 23.770 16.006 C 23.643 16.009,23.486 16.018,23.420 16.026 " fill="#333333" stroke="none" fill-rule="evenodd"></path></svg>