<svg width="24" height="24" viewBox="0 0 24 24" fill="none" xmlns="http://www.w3.org/2000/svg"><path d="M0.512 1.272 C 0.038 1.746,0.000 1.794,0.000 1.934 C 0.000 2.016,0.026 2.133,0.057 2.192 C 0.089 2.251,4.666 6.849,10.228 12.410 L 20.340 22.520 20.513 22.520 C 20.751 22.520,20.805 22.485,21.253 22.046 C 21.696 21.610,21.760 21.514,21.760 21.276 L 21.760 21.108 11.671 11.004 C 6.123 5.447,1.537 0.869,1.481 0.830 C 1.422 0.790,1.305 0.760,1.202 0.760 C 1.026 0.760,1.015 0.769,0.512 1.272 M17.300 2.087 C 16.132 2.152,14.929 2.555,13.907 3.224 C 13.428 3.538,13.208 3.712,12.795 4.108 C 12.609 4.285,12.455 4.400,12.403 4.400 C 12.351 4.400,12.188 4.278,11.986 4.088 C 10.951 3.113,9.772 2.490,8.400 2.194 C 8.033 2.115,7.863 2.103,7.056 2.102 C 6.039 2.100,6.000 2.108,6.000 2.335 C 6.000 2.448,6.698 3.158,13.233 9.693 C 19.855 16.315,20.476 16.925,20.582 16.913 C 20.669 16.903,20.768 16.818,20.990 16.560 C 22.191 15.168,23.126 13.486,23.580 11.900 C 23.852 10.952,23.979 10.003,23.978 8.920 C 23.978 7.471,23.762 6.442,23.236 5.380 C 22.654 4.205,21.749 3.287,20.620 2.725 C 19.593 2.215,18.561 2.016,17.300 2.087 M1.212 6.481 C 1.112 6.521,1.041 6.731,0.942 7.280 C 0.712 8.565,0.776 10.105,1.118 11.504 C 1.805 14.313,3.585 16.802,6.780 19.421 C 7.818 20.272,9.293 21.346,11.106 22.571 C 12.418 23.457,12.383 23.456,13.576 22.650 C 14.826 21.805,15.695 21.197,15.750 21.128 C 15.777 21.093,15.800 21.021,15.800 20.968 C 15.800 20.893,14.212 19.278,8.655 13.706 C 4.725 9.765,1.471 6.518,1.425 6.491 C 1.325 6.435,1.326 6.435,1.212 6.481 " fill="#333333" stroke="none" fill-rule="evenodd"></path></svg>