<svg width="24" height="24" viewBox="0 0 24 24" fill="none" xmlns="http://www.w3.org/2000/svg"><path d="M5.704 1.041 C 4.089 1.226,2.582 2.005,1.631 3.147 C 0.596 4.390,0.078 5.867,0.013 7.760 C -0.078 10.439,0.744 12.938,2.480 15.260 C 3.002 15.959,3.371 16.383,4.093 17.116 C 5.729 18.777,7.705 20.322,11.152 22.635 C 11.881 23.124,12.119 23.124,12.848 22.635 C 16.297 20.320,18.243 18.799,19.907 17.114 C 20.632 16.381,21.001 15.956,21.518 15.260 C 23.127 13.095,23.899 10.971,23.985 8.480 C 24.096 5.283,22.825 2.831,20.460 1.677 C 20.196 1.548,19.837 1.396,19.663 1.338 C 18.120 0.828,16.290 0.917,14.749 1.578 C 13.881 1.950,13.159 2.421,12.513 3.035 C 12.200 3.332,12.090 3.413,12.000 3.413 C 11.910 3.413,11.800 3.332,11.487 3.035 C 10.437 2.036,9.112 1.368,7.680 1.116 C 7.153 1.023,6.181 0.987,5.704 1.041 " fill="#333333" stroke="none" fill-rule="evenodd"></path></svg>