<svg width="24" height="24" viewBox="0 0 24 24" fill="none" xmlns="http://www.w3.org/2000/svg"><path d="M5.060 1.598 C 3.766 1.828,2.693 2.374,1.838 3.236 C 0.906 4.177,0.351 5.330,0.094 6.860 C -0.017 7.518,-0.006 8.968,0.115 9.760 C 0.697 13.563,2.897 16.523,7.587 19.813 C 8.525 20.472,11.154 22.170,11.558 22.379 C 11.755 22.481,12.005 22.519,12.195 22.477 C 12.499 22.408,15.575 20.438,17.000 19.399 C 18.349 18.415,19.145 17.741,20.161 16.723 C 22.333 14.547,23.478 12.407,23.886 9.760 C 24.013 8.932,24.014 7.441,23.887 6.750 C 23.692 5.683,23.375 4.860,22.867 4.100 C 22.143 3.019,21.066 2.214,19.799 1.808 C 19.088 1.580,18.788 1.540,17.840 1.542 C 16.878 1.545,16.542 1.596,15.703 1.867 C 15.193 2.032,14.180 2.530,14.102 2.655 C 14.034 2.762,13.120 5.794,13.120 5.912 C 13.120 5.968,13.447 6.372,14.039 7.049 C 14.749 7.861,14.959 8.125,14.959 8.208 C 14.960 8.280,14.537 9.015,13.692 10.408 C 12.994 11.559,12.417 12.545,12.409 12.600 C 12.398 12.670,12.646 13.213,13.217 14.376 C 13.670 15.298,14.040 16.095,14.040 16.149 C 14.040 16.208,13.498 17.093,12.654 18.413 C 11.892 19.605,11.254 20.597,11.235 20.617 C 11.217 20.638,11.191 20.644,11.178 20.631 C 11.165 20.619,11.246 19.782,11.357 18.772 C 11.469 17.762,11.560 16.884,11.560 16.821 C 11.560 16.752,11.155 15.890,10.540 14.648 C 9.979 13.516,9.520 12.550,9.520 12.502 C 9.520 12.419,9.687 12.133,11.179 9.673 C 11.727 8.769,11.845 8.547,11.825 8.465 C 11.811 8.409,11.467 7.984,11.060 7.520 C 10.463 6.838,10.320 6.653,10.320 6.559 C 10.320 6.495,10.480 5.811,10.676 5.040 C 10.872 4.269,11.022 3.601,11.011 3.557 C 10.963 3.376,10.084 2.706,9.420 2.346 C 8.699 1.954,7.951 1.703,7.140 1.581 C 6.589 1.498,5.575 1.506,5.060 1.598 " fill="#333333" stroke="none" fill-rule="evenodd"></path></svg>