<svg width="24" height="24" viewBox="0 0 24 24" fill="none" xmlns="http://www.w3.org/2000/svg"><path d="M11.300 0.038 C 11.256 0.056,11.175 0.120,11.120 0.179 L 11.020 0.286 11.020 1.241 L 11.020 2.195 11.138 2.318 C 11.281 2.467,11.400 2.500,12.000 2.558 C 13.668 2.720,15.335 3.376,16.720 4.414 C 17.181 4.760,17.996 5.544,18.348 5.980 C 19.399 7.282,20.067 8.753,20.366 10.427 C 20.447 10.877,20.458 11.069,20.458 12.000 C 20.458 12.931,20.447 13.123,20.366 13.573 C 20.118 14.958,19.649 16.138,18.900 17.260 C 18.480 17.888,18.159 18.272,17.595 18.820 C 16.344 20.035,14.929 20.819,13.235 21.236 C 12.704 21.367,11.999 21.480,11.715 21.480 C 11.454 21.481,11.269 21.545,11.138 21.682 L 11.020 21.805 11.020 22.760 L 11.020 23.715 11.137 23.837 C 11.292 23.999,11.429 24.018,12.032 23.963 C 13.584 23.820,14.906 23.448,16.300 22.761 C 17.525 22.157,18.505 21.456,19.461 20.501 C 21.331 18.631,22.471 16.361,22.885 13.680 C 22.962 13.184,22.975 12.940,22.975 12.000 C 22.975 11.060,22.962 10.816,22.885 10.320 C 22.469 7.627,21.326 5.357,19.440 3.480 C 18.503 2.547,17.506 1.836,16.300 1.241 C 14.905 0.552,13.544 0.170,12.020 0.041 C 11.461 -0.006,11.407 -0.006,11.300 0.038 M10.291 7.050 C 9.628 7.698,9.520 7.839,9.520 8.049 C 9.520 8.135,9.540 8.245,9.564 8.293 C 9.589 8.341,10.093 8.867,10.684 9.462 C 11.276 10.057,11.760 10.564,11.760 10.589 C 11.760 10.614,11.732 10.663,11.697 10.697 C 11.641 10.754,11.114 10.760,6.507 10.761 C 2.486 10.761,1.359 10.772,1.281 10.811 C 1.227 10.839,1.141 10.922,1.091 10.996 C 1.003 11.127,1.000 11.163,1.000 12.000 C 1.000 12.837,1.003 12.873,1.091 13.004 C 1.141 13.078,1.227 13.161,1.281 13.189 C 1.359 13.228,2.486 13.239,6.507 13.239 C 11.114 13.240,11.641 13.246,11.697 13.303 C 11.732 13.337,11.760 13.386,11.760 13.411 C 11.760 13.436,11.276 13.943,10.684 14.538 C 10.093 15.133,9.589 15.659,9.564 15.707 C 9.499 15.835,9.510 16.087,9.586 16.201 C 9.693 16.363,10.691 17.361,10.808 17.423 C 10.867 17.454,10.993 17.480,11.087 17.480 C 11.257 17.480,11.259 17.478,12.512 16.230 C 13.202 15.543,14.377 14.356,15.123 13.594 L 16.480 12.208 16.480 12.000 L 16.480 11.792 15.123 10.406 C 14.377 9.644,13.202 8.457,12.512 7.770 L 11.257 6.520 11.044 6.520 L 10.832 6.520 10.291 7.050 " fill="#333333" stroke="none" fill-rule="evenodd"></path></svg>