<svg width="24" height="24" viewBox="0 0 24 24" fill="none" xmlns="http://www.w3.org/2000/svg"><path d="M11.200 0.025 C 7.677 0.288,4.536 1.991,2.412 4.790 C 1.205 6.381,0.464 8.165,0.108 10.339 C 0.024 10.853,0.023 10.945,0.010 17.349 C -0.003 23.829,-0.003 23.837,0.079 23.919 C 0.123 23.963,0.201 24.000,0.250 24.000 C 0.317 24.000,1.012 23.328,2.856 21.484 L 5.371 18.968 5.352 18.741 L 5.333 18.514 4.896 18.076 C 4.438 17.616,4.279 17.522,4.054 17.578 C 3.980 17.596,3.662 17.882,3.157 18.383 C 2.473 19.062,2.358 19.160,2.248 19.160 C 1.980 19.160,1.994 19.403,2.010 14.994 C 2.025 11.133,2.028 11.005,2.112 10.507 C 2.444 8.552,3.158 6.990,4.391 5.520 C 5.735 3.918,7.711 2.718,9.760 2.260 C 10.616 2.068,11.044 2.024,12.020 2.025 C 13.016 2.027,13.560 2.090,14.429 2.303 C 18.036 3.189,20.931 6.142,21.740 9.760 C 21.924 10.583,21.975 11.051,21.976 11.960 C 21.979 13.122,21.851 14.008,21.537 14.997 C 20.312 18.868,16.923 21.588,12.862 21.962 C 12.052 22.037,12.000 22.098,12.000 23.000 C 12.000 23.551,12.009 23.635,12.081 23.752 C 12.218 23.977,12.370 24.013,12.956 23.961 C 15.869 23.703,18.456 22.506,20.482 20.477 C 22.329 18.627,23.479 16.330,23.886 13.680 C 24.013 12.852,24.015 11.159,23.891 10.359 C 23.558 8.222,22.799 6.386,21.590 4.793 C 19.606 2.178,16.770 0.532,13.500 0.099 C 13.032 0.037,11.640 -0.007,11.200 0.025 M11.252 4.078 C 10.985 4.241,11.000 4.007,11.000 8.140 C 11.000 11.316,11.009 11.900,11.057 11.992 C 11.089 12.051,12.313 13.297,13.778 14.760 L 16.440 17.420 16.661 17.420 L 16.883 17.420 17.361 16.937 L 17.840 16.454 17.840 16.238 L 17.840 16.022 15.464 13.641 C 14.158 12.331,13.069 11.221,13.044 11.173 C 13.013 11.111,13.000 10.105,13.000 7.733 C 13.000 4.478,12.997 4.376,12.922 4.252 C 12.786 4.030,12.676 4.000,11.992 4.000 C 11.456 4.000,11.364 4.010,11.252 4.078 " fill="#333333" stroke="none" fill-rule="evenodd"></path></svg>