<svg width="24" height="24" viewBox="0 0 24 24" fill="none" xmlns="http://www.w3.org/2000/svg"><path d="M3.664 0.063 C 3.436 0.146,3.257 0.297,3.131 0.511 L 3.020 0.700 3.010 11.915 C 3.003 19.544,3.013 23.178,3.041 23.283 C 3.102 23.509,3.313 23.761,3.539 23.878 L 3.738 23.980 11.938 23.990 C 21.146 24.002,20.375 24.027,20.700 23.702 C 21.029 23.373,21.000 24.509,21.000 12.000 C 21.000 -0.506,21.029 0.627,20.701 0.299 C 20.376 -0.027,21.147 -0.000,11.983 0.003 C 5.003 0.005,3.797 0.014,3.664 0.063 M11.344 2.656 L 11.480 2.792 11.480 7.323 C 11.480 11.483,11.475 11.860,11.414 11.927 C 11.377 11.967,11.307 12.000,11.256 12.000 C 11.198 12.000,10.700 11.639,9.878 11.000 C 9.066 10.369,8.557 10.000,8.500 10.000 C 8.443 10.000,7.934 10.369,7.122 11.000 C 6.371 11.583,5.800 12.000,5.751 12.000 C 5.704 12.000,5.633 11.970,5.593 11.934 C 5.523 11.870,5.520 11.675,5.520 7.330 L 5.520 2.792 5.656 2.656 L 5.792 2.520 8.500 2.520 L 11.208 2.520 11.344 2.656 " fill="#333333" stroke="none" fill-rule="evenodd"></path></svg>