<svg width="24" height="24" viewBox="0 0 24 24" fill="none" xmlns="http://www.w3.org/2000/svg"><path d="M5.900 1.063 C 5.714 1.159,5.603 1.282,5.558 1.438 C 5.530 1.534,5.520 4.990,5.528 12.087 L 5.540 22.594 5.622 22.705 C 5.668 22.765,5.755 22.852,5.815 22.898 C 5.924 22.978,5.967 22.980,8.016 22.980 L 10.106 22.980 10.257 22.865 C 10.543 22.647,10.522 23.587,10.510 11.944 L 10.500 1.406 10.416 1.293 C 10.370 1.231,10.262 1.140,10.176 1.091 C 10.020 1.001,10.016 1.001,8.020 1.001 C 6.285 1.001,6.004 1.009,5.900 1.063 M20.200 3.197 C 19.376 3.275,19.025 3.323,18.933 3.372 C 18.775 3.455,18.641 3.639,18.615 3.810 C 18.597 3.926,20.126 22.110,20.181 22.429 C 20.207 22.581,20.364 22.779,20.523 22.861 C 20.585 22.894,20.733 22.920,20.852 22.920 C 21.083 22.920,23.205 22.737,23.440 22.697 C 23.656 22.660,23.826 22.534,23.920 22.340 L 24.005 22.164 23.218 12.892 C 22.348 2.649,22.429 3.372,22.124 3.170 C 21.946 3.052,21.696 3.056,20.200 3.197 M0.360 5.089 C 0.228 5.155,0.156 5.228,0.090 5.358 L 0.000 5.537 0.000 14.000 L 0.000 22.463 0.090 22.642 C 0.156 22.772,0.228 22.845,0.360 22.911 C 0.539 23.002,0.546 23.003,2.063 22.991 L 3.586 22.980 3.737 22.865 C 4.021 22.648,4.000 23.369,4.000 14.000 C 4.000 4.631,4.021 5.352,3.737 5.135 L 3.586 5.020 2.063 5.009 C 0.546 4.997,0.539 4.998,0.360 5.089 M12.418 7.056 C 12.257 7.126,12.089 7.331,12.060 7.491 C 12.047 7.562,12.042 8.106,12.048 8.700 L 12.060 9.780 14.996 9.790 C 17.131 9.798,17.946 9.788,17.986 9.755 C 18.029 9.719,18.040 9.491,18.040 8.624 C 18.040 7.576,18.037 7.530,17.950 7.358 C 17.884 7.228,17.812 7.156,17.682 7.090 L 17.503 7.000 15.022 7.002 C 13.049 7.003,12.515 7.014,12.418 7.056 M12.058 11.290 C 12.048 11.318,12.044 13.005,12.050 15.040 L 12.060 18.740 15.017 18.750 C 17.357 18.758,17.982 18.750,18.007 18.710 C 18.044 18.652,18.052 11.399,18.016 11.303 C 17.994 11.246,17.694 11.240,15.034 11.240 C 12.706 11.240,12.073 11.251,12.058 11.290 M12.057 20.254 C 12.046 20.283,12.042 20.822,12.048 21.451 C 12.059 22.533,12.064 22.600,12.142 22.705 C 12.188 22.765,12.275 22.852,12.335 22.898 C 12.444 22.979,12.492 22.980,14.973 22.991 L 17.500 23.002 17.680 22.911 C 17.812 22.844,17.884 22.772,17.950 22.642 C 18.037 22.470,18.040 22.424,18.040 21.380 C 18.040 20.590,18.027 20.283,17.992 20.248 C 17.918 20.174,12.086 20.179,12.057 20.254 " fill="#333333" stroke="none" fill-rule="evenodd"></path></svg>