<svg width="24" height="24" viewBox="0 0 24 24" fill="none" xmlns="http://www.w3.org/2000/svg"><path d="M9.120 0.039 C 7.316 0.220,5.707 0.807,4.280 1.806 C 0.738 4.286,-0.822 8.759,0.422 12.865 C 0.918 14.499,1.728 15.850,2.939 17.061 C 3.713 17.836,4.453 18.383,5.377 18.863 C 8.721 20.602,12.740 20.325,15.804 18.143 L 16.108 17.926 16.111 18.044 C 16.113 18.109,16.151 18.220,16.195 18.291 C 16.240 18.362,17.523 19.665,19.048 21.187 C 22.054 24.188,21.920 24.072,22.249 23.964 C 22.450 23.897,23.942 22.385,23.979 22.210 C 24.044 21.903,24.114 21.982,21.226 19.086 C 19.727 17.582,18.430 16.299,18.344 16.236 C 18.243 16.161,18.140 16.120,18.051 16.120 L 17.913 16.120 18.051 15.930 C 19.315 14.195,20.000 12.117,20.000 10.026 C 19.999 5.429,16.853 1.390,12.430 0.303 C 11.446 0.062,10.028 -0.052,9.120 0.039 M11.420 2.638 C 14.453 3.246,16.751 5.550,17.367 8.600 C 17.448 9.004,17.460 9.175,17.460 10.000 C 17.460 10.825,17.448 10.996,17.367 11.400 C 16.890 13.762,15.413 15.691,13.280 16.738 C 10.423 18.141,6.963 17.560,4.702 15.298 C 3.648 14.244,2.937 12.905,2.633 11.400 C 2.552 10.996,2.540 10.825,2.540 10.000 C 2.540 9.175,2.552 9.004,2.633 8.600 C 3.290 5.344,5.875 2.947,9.160 2.545 C 9.237 2.536,9.678 2.533,10.140 2.539 C 10.814 2.548,11.067 2.567,11.420 2.638 " fill="#333333" stroke="none" fill-rule="evenodd"></path></svg>