<svg width="24" height="24" viewBox="0 0 24 24" fill="none" xmlns="http://www.w3.org/2000/svg"><path d="M11.905 2.059 C 11.684 2.138,11.475 2.320,11.368 2.528 C 11.191 2.871,10.648 4.254,10.669 4.308 C 10.714 4.427,10.827 4.440,11.066 4.356 C 11.402 4.238,12.021 4.210,12.357 4.298 C 12.716 4.392,12.978 4.534,13.226 4.769 C 13.602 5.124,13.706 5.340,14.226 6.835 C 14.964 8.956,15.471 11.014,15.624 12.514 C 15.660 12.859,15.695 13.161,15.702 13.187 C 15.709 13.213,15.865 13.333,16.049 13.454 C 16.922 14.029,17.400 14.914,17.400 15.956 C 17.400 16.464,17.251 16.540,16.868 16.228 C 16.527 15.950,15.824 15.560,15.664 15.560 C 15.543 15.560,15.472 15.689,15.341 16.149 C 15.167 16.760,14.967 17.300,14.715 17.836 C 14.507 18.279,14.483 18.399,14.583 18.482 C 14.771 18.639,16.450 18.058,17.500 17.474 C 19.155 16.552,20.752 15.157,21.543 13.940 C 22.300 12.774,23.021 10.734,23.579 8.173 C 23.760 7.340,24.000 5.991,24.000 5.804 C 23.999 5.602,23.834 5.269,23.674 5.150 C 23.380 4.931,23.490 4.940,21.280 4.939 C 19.528 4.938,19.148 4.927,18.740 4.868 C 17.113 4.629,16.049 4.175,13.581 2.666 C 13.075 2.357,12.598 2.082,12.521 2.054 C 12.337 1.988,12.098 1.990,11.905 2.059 M11.558 5.396 C 11.409 5.444,11.327 5.491,10.640 5.913 C 8.956 6.950,7.850 7.528,6.980 7.827 C 5.839 8.219,4.602 8.348,2.460 8.301 C 0.702 8.262,0.758 8.259,0.525 8.377 C 0.309 8.487,0.161 8.653,0.057 8.902 C -0.023 9.092,-0.010 9.290,0.163 10.500 C 0.497 12.841,0.987 14.531,1.777 16.065 C 3.052 18.539,5.114 20.333,8.000 21.481 C 9.271 21.987,9.587 22.059,10.040 21.944 C 10.410 21.851,10.679 21.648,11.129 21.125 C 12.795 19.189,13.843 17.336,14.280 15.552 C 14.485 14.717,14.532 14.270,14.507 13.420 C 14.471 12.201,14.234 10.909,13.715 9.100 C 13.335 7.772,12.707 5.994,12.531 5.743 C 12.341 5.473,11.854 5.299,11.558 5.396 M19.840 9.061 C 20.365 9.269,20.819 9.710,21.002 10.190 C 21.094 10.430,21.149 10.919,21.104 11.097 C 21.069 11.236,20.894 11.235,20.673 11.095 C 20.052 10.704,18.919 10.383,17.971 10.332 C 17.599 10.312,17.509 10.295,17.452 10.231 C 17.386 10.158,17.388 10.146,17.481 9.967 C 17.534 9.864,17.687 9.670,17.820 9.535 C 18.076 9.276,18.346 9.116,18.691 9.019 C 18.969 8.941,19.594 8.964,19.840 9.061 M11.435 10.724 C 11.887 10.826,12.439 11.240,12.657 11.642 C 12.758 11.828,12.762 11.851,12.706 11.936 C 12.650 12.022,12.612 12.030,12.153 12.050 C 11.313 12.087,10.371 12.341,9.649 12.723 C 9.445 12.831,9.243 12.920,9.200 12.920 C 9.157 12.920,9.091 12.873,9.053 12.816 C 8.992 12.723,8.990 12.676,9.032 12.387 C 9.132 11.705,9.537 11.140,10.129 10.859 C 10.556 10.656,10.952 10.615,11.435 10.724 M5.203 12.424 C 5.703 12.571,6.121 12.894,6.377 13.331 C 6.480 13.508,6.484 13.528,6.427 13.615 C 6.370 13.701,6.332 13.710,5.893 13.730 C 5.033 13.771,4.083 14.025,3.365 14.406 C 2.785 14.713,2.663 14.645,2.747 14.060 C 2.860 13.281,3.426 12.622,4.160 12.417 C 4.419 12.345,4.946 12.348,5.203 12.424 M11.400 15.800 C 11.478 15.800,11.530 16.103,11.508 16.423 C 11.477 16.861,11.388 17.194,11.198 17.580 C 10.715 18.563,9.693 19.201,8.604 19.199 C 8.089 19.198,7.732 19.117,7.300 18.903 C 6.759 18.636,6.310 18.213,6.014 17.694 C 5.861 17.425,5.849 17.321,5.957 17.223 C 6.026 17.160,6.063 17.158,6.339 17.202 C 6.787 17.275,7.703 17.229,8.300 17.104 C 9.311 16.892,10.263 16.496,10.897 16.023 C 11.097 15.875,11.279 15.766,11.310 15.778 C 11.341 15.790,11.382 15.800,11.400 15.800 " fill="#333333" stroke="none" fill-rule="evenodd"></path></svg>