<svg width="24" height="24" viewBox="0 0 24 24" fill="none" xmlns="http://www.w3.org/2000/svg"><path d="M1.252 1.078 C 0.999 1.232,1.000 1.228,1.000 3.008 C 1.000 4.536,1.004 4.627,1.078 4.748 C 1.232 5.000,1.229 5.000,3.000 5.000 C 4.771 5.000,4.768 5.000,4.922 4.748 C 4.996 4.627,5.000 4.536,5.000 3.008 C 5.000 1.228,5.001 1.232,4.748 1.078 C 4.627 1.004,4.536 1.000,3.000 1.000 C 1.464 1.000,1.373 1.004,1.252 1.078 M10.252 1.078 C 9.999 1.232,10.000 1.228,10.000 3.008 C 10.000 4.536,10.004 4.627,10.078 4.748 C 10.232 5.000,10.229 5.000,12.000 5.000 C 13.771 5.000,13.768 5.000,13.922 4.748 C 13.996 4.627,14.000 4.536,14.000 3.008 C 14.000 1.228,14.001 1.232,13.748 1.078 C 13.627 1.004,13.536 1.000,12.000 1.000 C 10.464 1.000,10.373 1.004,10.252 1.078 M19.252 1.078 C 18.999 1.232,19.000 1.228,19.000 3.008 C 19.000 4.536,19.004 4.627,19.078 4.748 C 19.232 5.000,19.229 5.000,21.000 5.000 C 22.771 5.000,22.768 5.000,22.922 4.748 C 22.996 4.627,23.000 4.536,23.000 3.008 C 23.000 1.228,23.001 1.232,22.748 1.078 C 22.627 1.004,22.536 1.000,21.000 1.000 C 19.464 1.000,19.373 1.004,19.252 1.078 M1.252 10.078 C 0.999 10.232,1.000 10.228,1.000 12.008 C 1.000 13.536,1.004 13.627,1.078 13.748 C 1.232 14.000,1.229 14.000,3.000 14.000 C 4.771 14.000,4.768 14.000,4.922 13.748 C 4.996 13.627,5.000 13.536,5.000 12.008 C 5.000 10.228,5.001 10.232,4.748 10.078 C 4.627 10.004,4.536 10.000,3.000 10.000 C 1.464 10.000,1.373 10.004,1.252 10.078 M10.252 10.078 C 9.999 10.232,10.000 10.228,10.000 12.008 C 10.000 13.536,10.004 13.627,10.078 13.748 C 10.232 14.000,10.229 14.000,12.000 14.000 C 13.771 14.000,13.768 14.000,13.922 13.748 C 13.996 13.627,14.000 13.536,14.000 12.008 C 14.000 10.228,14.001 10.232,13.748 10.078 C 13.627 10.004,13.536 10.000,12.000 10.000 C 10.464 10.000,10.373 10.004,10.252 10.078 M19.252 10.078 C 18.999 10.232,19.000 10.228,19.000 12.008 C 19.000 13.536,19.004 13.627,19.078 13.748 C 19.232 14.000,19.229 14.000,21.000 14.000 C 22.771 14.000,22.768 14.000,22.922 13.748 C 22.996 13.627,23.000 13.536,23.000 12.008 C 23.000 10.228,23.001 10.232,22.748 10.078 C 22.627 10.004,22.536 10.000,21.000 10.000 C 19.464 10.000,19.373 10.004,19.252 10.078 M1.252 19.078 C 0.999 19.232,1.000 19.228,1.000 21.008 C 1.000 22.536,1.004 22.627,1.078 22.748 C 1.232 23.000,1.229 23.000,3.000 23.000 C 4.771 23.000,4.768 23.000,4.922 22.748 C 4.996 22.627,5.000 22.536,5.000 21.008 C 5.000 19.228,5.001 19.232,4.748 19.078 C 4.627 19.004,4.536 19.000,3.000 19.000 C 1.464 19.000,1.373 19.004,1.252 19.078 M10.252 19.078 C 9.999 19.232,10.000 19.228,10.000 21.008 C 10.000 22.536,10.004 22.627,10.078 22.748 C 10.232 23.000,10.229 23.000,12.000 23.000 C 13.771 23.000,13.768 23.000,13.922 22.748 C 13.996 22.627,14.000 22.536,14.000 21.008 C 14.000 19.228,14.001 19.232,13.748 19.078 C 13.627 19.004,13.536 19.000,12.000 19.000 C 10.464 19.000,10.373 19.004,10.252 19.078 M19.252 19.078 C 18.999 19.232,19.000 19.228,19.000 21.008 C 19.000 22.536,19.004 22.627,19.078 22.748 C 19.232 23.000,19.229 23.000,21.000 23.000 C 22.771 23.000,22.768 23.000,22.922 22.748 C 22.996 22.627,23.000 22.536,23.000 21.008 C 23.000 19.228,23.001 19.232,22.748 19.078 C 22.627 19.004,22.536 19.000,21.000 19.000 C 19.464 19.000,19.373 19.004,19.252 19.078 " fill="#333333" stroke="none" fill-rule="evenodd"></path></svg>