<svg width="24" height="24" viewBox="0 0 24 24" fill="none" xmlns="http://www.w3.org/2000/svg"><path d="M0.382 3.269 C 0.238 3.306,0.110 3.415,0.055 3.547 C 0.014 3.643,-0.000 3.896,-0.000 4.500 C -0.000 5.404,0.024 5.526,0.225 5.662 C 0.338 5.739,0.497 5.740,12.000 5.740 C 23.503 5.740,23.662 5.739,23.775 5.662 C 23.976 5.526,24.000 5.404,24.000 4.500 C 24.000 3.596,23.976 3.474,23.775 3.338 C 23.662 3.261,23.499 3.260,12.060 3.255 C 5.680 3.251,0.425 3.258,0.382 3.269 M0.169 10.897 L 0.020 11.034 0.020 12.000 L 0.020 12.966 0.169 13.103 L 0.319 13.240 12.000 13.240 L 23.681 13.240 23.831 13.103 L 23.980 12.966 23.980 12.000 L 23.980 11.034 23.831 10.897 L 23.681 10.760 12.000 10.760 L 0.319 10.760 0.169 10.897 M0.382 18.269 C 0.238 18.306,0.110 18.415,0.055 18.547 C 0.014 18.643,-0.000 18.896,-0.000 19.500 C -0.000 20.404,0.024 20.526,0.225 20.662 C 0.338 20.739,0.497 20.740,12.000 20.740 C 23.503 20.740,23.662 20.739,23.775 20.662 C 23.976 20.526,24.000 20.404,24.000 19.500 C 24.000 18.596,23.976 18.474,23.775 18.338 C 23.662 18.261,23.499 18.260,12.060 18.255 C 5.680 18.251,0.425 18.258,0.382 18.269 " fill="#333333" stroke="none" fill-rule="evenodd"></path></svg>