<svg width="24" height="24" viewBox="0 0 24 24" fill="none" xmlns="http://www.w3.org/2000/svg"><path d="M10.049 1.047 C 10.022 1.074,10.000 1.111,10.000 1.130 C 10.000 1.148,10.200 1.383,10.445 1.652 C 11.674 3.001,12.568 4.571,13.192 6.480 C 13.775 8.264,14.040 9.987,14.040 12.000 C 14.040 14.013,13.775 15.736,13.192 17.520 C 12.566 19.435,11.673 21.002,10.438 22.355 C 10.069 22.758,9.994 22.861,10.027 22.915 C 10.065 22.974,10.240 22.980,11.791 22.980 L 13.514 22.980 13.620 22.880 C 13.768 22.741,14.092 22.272,14.449 21.680 C 16.584 18.134,17.438 13.483,16.780 8.980 C 16.553 7.428,16.089 5.772,15.475 4.327 C 14.984 3.173,14.006 1.482,13.620 1.120 L 13.514 1.020 11.806 1.009 C 10.495 1.000,10.087 1.009,10.049 1.047 " fill="#333333" stroke="none" fill-rule="evenodd"></path></svg>