<svg width="24" height="24" viewBox="0 0 24 24" fill="none" xmlns="http://www.w3.org/2000/svg"><path d="M10.500 1.038 C 10.138 1.190,8.953 3.233,8.364 4.720 C 7.682 6.442,7.281 8.143,7.072 10.200 C 7.005 10.857,7.005 13.143,7.072 13.800 C 7.337 16.413,7.929 18.540,8.970 20.620 C 9.416 21.511,10.115 22.632,10.380 22.880 L 10.486 22.980 12.209 22.980 C 13.752 22.980,13.935 22.973,13.972 22.915 C 14.005 22.863,13.927 22.756,13.562 22.355 C 12.325 20.999,11.433 19.432,10.808 17.520 C 10.223 15.731,9.960 14.017,9.960 12.000 C 9.960 9.181,10.527 6.652,11.659 4.420 C 12.224 3.306,12.760 2.525,13.562 1.645 C 13.927 1.244,14.005 1.137,13.972 1.085 C 13.936 1.027,13.751 1.019,12.256 1.012 C 11.334 1.008,10.544 1.020,10.500 1.038 " fill="#333333" stroke="none" fill-rule="evenodd"></path></svg>