<svg width="24" height="24" viewBox="0 0 24 24" fill="none" xmlns="http://www.w3.org/2000/svg"><path d="M4.979 1.039 C 4.280 1.138,3.569 1.414,2.980 1.814 C 2.589 2.079,2.055 2.624,1.778 3.040 C 0.558 4.872,0.793 7.258,2.346 8.818 C 3.263 9.740,4.479 10.208,5.796 10.148 C 8.770 10.011,10.802 7.161,9.975 4.284 C 9.520 2.701,8.159 1.449,6.509 1.097 C 6.164 1.023,5.316 0.991,4.979 1.039 M16.820 1.072 C 16.727 1.130,15.356 3.465,10.821 11.284 C 4.442 22.280,4.797 21.633,4.996 21.886 C 5.113 22.035,6.736 22.965,6.916 22.987 C 7.013 22.999,7.099 22.979,7.180 22.928 C 7.273 22.869,8.646 20.532,13.179 12.716 C 19.557 1.721,19.203 2.367,19.004 2.114 C 18.887 1.965,17.264 1.035,17.084 1.013 C 16.987 1.001,16.901 1.021,16.820 1.072 M6.198 3.387 C 6.553 3.485,6.862 3.664,7.161 3.946 C 8.002 4.739,8.105 6.025,7.404 6.960 C 6.870 7.671,5.979 8.006,5.110 7.821 C 4.665 7.727,4.339 7.547,3.995 7.204 C 3.510 6.719,3.306 6.231,3.311 5.560 C 3.314 5.113,3.404 4.782,3.621 4.420 C 4.156 3.527,5.196 3.110,6.198 3.387 M17.645 13.904 C 16.006 14.179,14.611 15.369,14.083 16.944 C 13.526 18.606,13.955 20.432,15.189 21.653 C 15.903 22.360,16.766 22.792,17.760 22.942 C 19.721 23.238,21.676 22.197,22.537 20.398 C 22.941 19.554,23.078 18.660,22.942 17.760 C 22.747 16.466,22.034 15.336,20.959 14.618 C 20.545 14.342,20.271 14.209,19.803 14.056 C 19.161 13.846,18.337 13.788,17.645 13.904 M18.981 16.200 C 19.824 16.416,20.482 17.104,20.663 17.958 C 20.734 18.293,20.733 18.511,20.660 18.859 C 20.467 19.768,19.768 20.467,18.859 20.660 C 18.511 20.733,18.293 20.734,17.958 20.663 C 16.909 20.441,16.120 19.478,16.120 18.420 C 16.120 17.402,16.851 16.462,17.845 16.202 C 18.229 16.101,18.592 16.101,18.981 16.200 " fill="#333333" stroke="none" fill-rule="evenodd"></path></svg>