<svg width="24" height="24" viewBox="0 0 24 24" fill="none" xmlns="http://www.w3.org/2000/svg"><path d="M11.300 0.046 C 10.891 0.091,10.222 0.256,9.849 0.404 C 8.004 1.137,6.692 2.611,6.199 4.506 C 5.369 7.700,7.297 10.966,10.506 11.801 C 12.945 12.435,15.548 11.450,16.960 9.359 C 17.737 8.208,18.093 6.834,17.966 5.476 C 17.649 2.090,14.681 -0.328,11.300 0.046 M10.800 14.024 C 7.666 14.196,5.308 14.650,3.303 15.466 C 2.399 15.834,1.331 16.437,1.168 16.671 C 1.064 16.821,1.000 17.023,1.000 17.204 C 1.000 17.494,1.598 18.498,2.290 19.372 C 2.707 19.899,3.664 20.855,4.200 21.281 C 5.953 22.673,7.977 23.540,10.291 23.889 C 11.118 24.013,12.882 24.013,13.709 23.889 C 16.023 23.540,18.047 22.673,19.800 21.281 C 20.336 20.855,21.293 19.899,21.710 19.372 C 22.402 18.498,23.000 17.494,23.000 17.204 C 23.000 17.024,22.936 16.821,22.833 16.673 C 22.731 16.526,22.241 16.210,21.640 15.903 C 19.771 14.948,17.352 14.348,14.367 14.098 C 13.697 14.041,11.359 13.993,10.800 14.024 " fill="#333333" stroke="none" fill-rule="evenodd"></path></svg>