<svg width="24" height="24" viewBox="0 0 24 24" fill="none" xmlns="http://www.w3.org/2000/svg"><path d="M0.252 0.078 C -0.023 0.246,-0.000 -0.826,0.000 12.008 C 0.000 23.454,0.001 23.622,0.078 23.748 C 0.246 24.023,-0.826 24.000,12.008 24.000 C 23.454 24.000,23.622 23.999,23.748 23.922 C 24.023 23.754,24.000 24.825,24.000 12.000 C 24.000 -0.825,24.023 0.246,23.748 0.078 C 23.622 0.001,23.454 0.000,12.000 0.000 C 0.546 0.000,0.378 0.001,0.252 0.078 M19.628 2.078 C 19.856 2.217,19.940 2.491,19.823 2.712 C 19.791 2.771,18.076 4.507,16.013 6.570 C 13.217 9.363,12.227 10.329,12.130 10.357 C 12.050 10.380,11.950 10.380,11.870 10.357 C 11.773 10.329,10.783 9.363,7.987 6.570 C 5.924 4.507,4.209 2.771,4.177 2.712 C 4.060 2.491,4.144 2.217,4.372 2.078 C 4.498 2.002,4.632 2.000,12.000 2.000 C 19.368 2.000,19.502 2.002,19.628 2.078 M2.712 4.177 C 2.771 4.209,4.516 5.933,6.590 8.008 L 10.360 11.781 10.360 12.000 L 10.360 12.219 6.590 15.992 C 4.516 18.067,2.771 19.791,2.712 19.823 C 2.491 19.940,2.217 19.856,2.078 19.628 C 2.002 19.502,2.000 19.368,2.000 12.008 C 2.000 3.731,1.980 4.364,2.252 4.198 C 2.404 4.106,2.563 4.098,2.712 4.177 M21.724 4.182 C 21.790 4.216,21.879 4.302,21.922 4.372 C 21.998 4.498,22.000 4.632,22.000 12.000 C 22.000 19.368,21.998 19.502,21.922 19.628 C 21.783 19.856,21.509 19.940,21.288 19.823 C 21.229 19.791,19.483 18.067,17.410 15.992 L 13.640 12.219 13.640 12.000 L 13.640 11.781 17.390 8.026 C 19.453 5.961,21.194 4.238,21.260 4.196 C 21.406 4.104,21.564 4.099,21.724 4.182 M15.992 17.410 C 18.067 19.483,19.791 21.229,19.823 21.288 C 19.854 21.347,19.880 21.448,19.880 21.512 C 19.880 21.653,19.734 21.881,19.599 21.949 C 19.454 22.022,4.546 22.022,4.401 21.949 C 4.266 21.881,4.120 21.653,4.120 21.512 C 4.120 21.448,4.146 21.347,4.177 21.288 C 4.209 21.229,5.933 19.483,8.008 17.410 L 11.781 13.640 12.000 13.640 L 12.219 13.640 15.992 17.410 " fill="#333333" stroke="none" fill-rule="evenodd"></path></svg>