<svg width="24" height="24" viewBox="0 0 24 24" fill="none" xmlns="http://www.w3.org/2000/svg"><path d="M10.854 1.077 C 10.785 1.119,10.713 1.177,10.694 1.207 C 10.675 1.236,10.651 3.295,10.640 5.782 C 10.621 10.075,10.616 10.309,10.547 10.415 C 10.393 10.650,10.601 10.640,5.742 10.640 L 1.281 10.640 1.151 10.757 L 1.020 10.873 1.020 11.996 L 1.020 13.118 1.124 13.222 C 1.181 13.279,1.298 13.342,1.384 13.362 C 1.472 13.382,3.457 13.399,5.945 13.399 C 10.321 13.400,10.350 13.401,10.453 13.482 C 10.510 13.527,10.576 13.630,10.598 13.712 C 10.625 13.809,10.640 15.377,10.640 18.289 L 10.640 22.719 10.757 22.849 L 10.873 22.980 11.996 22.980 L 13.118 22.980 13.222 22.876 C 13.279 22.819,13.342 22.702,13.362 22.616 C 13.382 22.528,13.399 20.539,13.399 18.047 L 13.400 13.634 13.517 13.517 L 13.634 13.400 18.047 13.399 C 20.539 13.399,22.528 13.382,22.616 13.362 C 22.702 13.342,22.819 13.279,22.876 13.222 L 22.980 13.118 22.980 11.996 L 22.980 10.873 22.849 10.757 L 22.719 10.640 18.258 10.640 C 13.537 10.640,13.632 10.644,13.480 10.460 C 13.428 10.397,13.417 9.806,13.400 5.864 C 13.384 2.230,13.370 1.322,13.327 1.248 C 13.299 1.197,13.218 1.121,13.147 1.078 C 13.030 1.006,12.940 1.000,12.000 1.000 C 11.065 1.000,10.969 1.007,10.854 1.077 " fill="#333333" stroke="none" fill-rule="evenodd"></path></svg>