<svg width="24" height="24" viewBox="0 0 24 24" fill="none" xmlns="http://www.w3.org/2000/svg"><path d="M0.009 1.067 L 0.020 2.135 3.940 5.430 C 6.096 7.242,7.907 8.759,7.965 8.801 L 8.070 8.878 8.474 8.474 L 8.878 8.070 8.801 7.965 C 8.758 7.907,7.241 6.096,5.430 3.940 L 2.135 0.020 1.067 0.009 L -0.001 -0.001 0.009 1.067 M10.817 0.230 C 10.852 0.549,11.400 6.874,11.400 6.955 C 11.400 7.012,11.472 7.020,12.000 7.020 C 12.528 7.020,12.600 7.012,12.600 6.955 C 12.600 6.874,13.148 0.549,13.183 0.230 L 13.208 0.000 12.000 -0.000 L 10.792 -0.000 10.817 0.230 M21.471 0.490 C 20.963 1.090,15.240 7.915,15.170 8.004 C 15.127 8.059,15.178 8.126,15.525 8.473 L 15.930 8.878 16.035 8.801 C 16.093 8.759,17.904 7.241,20.060 5.430 L 23.980 2.135 23.991 1.068 L 24.001 0.000 22.944 0.000 L 21.886 0.000 21.471 0.490 M11.440 9.058 C 10.799 9.196,10.368 9.430,9.897 9.899 C 9.589 10.204,9.505 10.318,9.347 10.640 C 9.088 11.167,9.022 11.443,9.022 12.000 C 9.022 12.557,9.088 12.833,9.347 13.360 C 9.504 13.680,9.590 13.797,9.897 14.103 C 10.203 14.410,10.320 14.496,10.640 14.653 C 11.163 14.910,11.441 14.976,12.000 14.976 C 12.559 14.976,12.837 14.910,13.360 14.653 C 13.680 14.496,13.797 14.410,14.103 14.103 C 14.410 13.797,14.496 13.680,14.653 13.360 C 14.910 12.837,14.976 12.559,14.976 12.000 C 14.976 11.441,14.910 11.163,14.653 10.640 C 14.496 10.320,14.410 10.203,14.103 9.897 C 13.797 9.590,13.680 9.504,13.360 9.347 C 13.151 9.244,12.872 9.132,12.740 9.098 C 12.403 9.009,11.759 8.990,11.440 9.058 M0.000 12.000 L 0.000 13.199 0.230 13.175 C 0.356 13.162,1.933 13.023,3.734 12.866 L 7.007 12.580 7.007 12.000 L 7.007 11.420 3.734 11.134 C 1.933 10.977,0.356 10.837,0.230 10.825 L 0.000 10.801 0.000 12.000 M20.446 11.115 L 16.993 11.420 16.993 12.000 L 16.993 12.580 20.266 12.866 C 22.067 13.023,23.643 13.163,23.770 13.175 L 24.000 13.199 24.000 11.999 C 24.000 11.064,23.989 10.801,23.950 10.805 C 23.922 10.807,22.346 10.946,20.446 11.115 M4.036 18.492 L 0.020 21.864 0.009 22.933 L -0.001 24.001 1.067 23.991 L 2.135 23.980 5.430 20.060 C 7.241 17.904,8.759 16.093,8.801 16.035 L 8.878 15.930 8.473 15.525 C 8.251 15.302,8.065 15.120,8.060 15.120 C 8.056 15.120,6.245 16.637,4.036 18.492 M15.511 15.530 L 15.121 15.930 15.199 16.035 C 15.241 16.093,16.758 17.904,18.570 20.060 L 21.864 23.980 22.932 23.991 L 24.000 24.001 24.000 22.942 L 24.000 21.882 19.974 18.501 C 17.759 16.641,15.937 15.122,15.924 15.125 C 15.911 15.129,15.725 15.311,15.511 15.530 M11.418 17.020 C 11.412 17.042,11.279 18.554,11.122 20.380 C 10.966 22.206,10.828 23.768,10.815 23.850 L 10.793 24.000 11.993 24.000 L 13.192 24.000 13.172 23.770 C 13.160 23.643,13.023 22.067,12.866 20.266 L 12.580 16.993 12.005 16.986 C 11.650 16.982,11.425 16.995,11.418 17.020 " fill="#333333" stroke="none" fill-rule="evenodd"></path></svg>