<svg width="24" height="24" viewBox="0 0 24 24" fill="none" xmlns="http://www.w3.org/2000/svg"><path d="M4.873 2.246 C 2.970 3.652,1.467 5.711,0.675 8.000 C 0.215 9.326,0.023 10.518,0.025 12.020 C 0.027 13.258,0.107 13.912,0.400 15.080 C 1.010 17.507,2.544 19.903,4.480 21.452 C 5.039 21.899,5.222 22.013,5.332 21.986 C 5.403 21.968,5.548 21.780,5.869 21.291 C 6.111 20.922,6.322 20.596,6.338 20.568 C 6.405 20.448,6.309 20.323,5.931 20.038 C 5.388 19.628,4.488 18.717,4.057 18.140 C 2.977 16.698,2.356 15.181,2.074 13.300 C 1.993 12.756,2.003 11.139,2.092 10.580 C 2.389 8.718,3.019 7.222,4.115 5.780 C 4.498 5.277,5.388 4.379,5.860 4.021 C 6.270 3.710,6.360 3.620,6.360 3.521 C 6.360 3.443,5.510 2.129,5.409 2.050 C 5.298 1.963,5.216 1.993,4.873 2.246 M18.569 2.070 C 18.445 2.178,17.640 3.441,17.640 3.527 C 17.640 3.619,17.720 3.698,18.166 4.048 C 19.950 5.444,21.255 7.532,21.759 9.800 C 21.923 10.535,21.976 11.069,21.976 12.000 C 21.976 12.931,21.923 13.465,21.759 14.200 C 21.246 16.508,19.919 18.605,18.069 20.033 C 17.847 20.204,17.668 20.373,17.655 20.424 C 17.628 20.534,17.632 20.543,18.144 21.320 C 18.593 22.004,18.655 22.057,18.866 21.946 C 19.051 21.849,19.790 21.244,20.197 20.858 C 24.365 16.897,25.208 10.557,22.221 5.640 C 21.430 4.338,20.157 2.955,19.023 2.165 C 18.761 1.982,18.687 1.967,18.569 2.070 M7.940 6.248 C 7.771 6.344,7.286 6.765,6.976 7.086 C 5.554 8.556,4.822 10.687,5.042 12.712 C 5.249 14.610,6.155 16.311,7.580 17.478 C 7.922 17.758,8.019 17.812,8.125 17.779 C 8.227 17.746,9.120 16.391,9.120 16.268 C 9.120 16.208,8.983 16.051,8.685 15.772 C 8.180 15.298,7.868 14.901,7.597 14.387 C 6.946 13.149,6.825 11.712,7.262 10.406 C 7.553 9.537,7.969 8.900,8.685 8.228 C 8.983 7.949,9.120 7.792,9.120 7.732 C 9.120 7.623,8.235 6.262,8.141 6.226 C 8.053 6.192,8.035 6.194,7.940 6.248 M15.846 6.228 C 15.762 6.261,14.880 7.634,14.880 7.732 C 14.880 7.792,15.017 7.949,15.315 8.228 C 15.820 8.702,16.132 9.099,16.403 9.613 C 17.077 10.895,17.180 12.401,16.685 13.753 C 16.398 14.537,15.990 15.138,15.315 15.772 C 15.017 16.051,14.880 16.208,14.880 16.268 C 14.880 16.391,15.773 17.746,15.875 17.779 C 15.981 17.812,16.077 17.759,16.420 17.479 C 17.838 16.322,18.751 14.606,18.958 12.712 C 19.210 10.401,18.225 8.000,16.420 6.522 C 16.043 6.213,15.973 6.177,15.846 6.228 M11.620 10.039 C 10.906 10.197,10.359 10.674,10.110 11.356 C 9.993 11.675,9.994 12.327,10.112 12.650 C 10.323 13.228,10.774 13.678,11.356 13.890 C 11.673 14.006,12.327 14.006,12.644 13.890 C 13.226 13.678,13.677 13.228,13.888 12.650 C 13.954 12.471,13.972 12.327,13.972 12.000 C 13.972 11.673,13.954 11.529,13.888 11.350 C 13.677 10.770,13.216 10.312,12.644 10.114 C 12.389 10.025,11.858 9.986,11.620 10.039 " fill="#333333" stroke="none" fill-rule="evenodd"></path></svg>