<svg width="24" height="24" viewBox="0 0 24 24" fill="none" xmlns="http://www.w3.org/2000/svg"><path d="M11.672 0.041 C 11.590 0.061,11.113 0.283,10.612 0.534 C 9.207 1.236,8.301 1.612,6.985 2.037 C 5.155 2.627,2.958 2.999,1.295 3.000 C 1.036 3.000,0.828 3.022,0.719 3.061 C 0.464 3.150,0.221 3.370,0.099 3.619 L -0.008 3.837 0.011 5.649 C 0.025 6.960,0.049 7.615,0.096 8.020 C 0.387 10.521,1.006 12.615,2.099 14.800 C 3.920 18.440,6.891 21.489,10.552 23.473 C 11.370 23.916,11.553 23.980,12.000 23.980 C 12.447 23.980,12.630 23.916,13.448 23.473 C 16.481 21.830,19.016 19.481,20.889 16.580 C 22.377 14.276,23.404 11.526,23.797 8.800 C 23.957 7.689,23.979 7.298,23.979 5.500 L 23.980 3.740 23.871 3.554 C 23.635 3.152,23.314 3.000,22.705 3.000 C 21.443 2.999,19.755 2.770,18.280 2.398 C 16.592 1.973,15.217 1.452,13.418 0.556 C 12.435 0.067,12.359 0.036,12.098 0.020 C 11.945 0.011,11.753 0.020,11.672 0.041 " fill="#333333" stroke="none" fill-rule="evenodd"></path></svg>