<svg width="24" height="24" viewBox="0 0 24 24" fill="none" xmlns="http://www.w3.org/2000/svg"><path d="M11.109 0.039 C 8.953 0.249,7.021 1.025,5.376 2.343 C 3.749 3.646,2.499 5.512,1.919 7.503 C 1.582 8.659,1.437 9.921,1.542 10.780 C 1.699 12.073,1.735 12.708,1.735 14.240 C 1.736 15.134,1.715 16.006,1.687 16.320 C 1.560 17.727,1.570 17.829,1.868 18.160 C 2.041 18.353,2.065 18.364,3.572 18.962 C 4.412 19.296,5.154 19.596,5.220 19.629 C 5.393 19.716,5.556 19.877,5.645 20.052 C 5.690 20.139,5.856 20.863,6.036 21.756 C 6.377 23.454,6.412 23.559,6.712 23.787 C 7.015 24.018,7.123 24.027,7.920 23.887 C 8.752 23.741,9.037 23.700,9.780 23.618 C 10.544 23.533,12.572 23.498,13.400 23.555 C 14.482 23.629,15.006 23.698,16.520 23.965 C 16.840 24.021,17.042 23.975,17.288 23.787 C 17.588 23.559,17.623 23.454,17.964 21.756 C 18.144 20.863,18.310 20.139,18.355 20.052 C 18.444 19.877,18.607 19.716,18.780 19.629 C 18.846 19.596,19.588 19.296,20.428 18.962 C 21.935 18.364,21.959 18.353,22.132 18.160 C 22.430 17.829,22.440 17.727,22.313 16.320 C 22.285 16.007,22.264 15.132,22.264 14.240 C 22.265 12.708,22.300 12.073,22.454 10.817 C 22.536 10.154,22.471 9.203,22.281 8.294 C 21.952 6.720,21.214 5.173,20.174 3.880 C 18.811 2.186,16.721 0.860,14.560 0.319 C 13.563 0.070,12.055 -0.053,11.109 0.039 M8.380 9.881 C 9.355 10.187,10.055 10.871,10.385 11.840 C 10.445 12.017,10.459 12.173,10.457 12.640 C 10.455 13.160,10.444 13.250,10.350 13.513 C 10.293 13.675,10.186 13.909,10.113 14.033 C 9.933 14.340,9.359 14.906,9.040 15.091 C 8.126 15.621,6.874 15.621,5.960 15.091 C 5.641 14.906,5.067 14.340,4.887 14.033 C 4.814 13.909,4.707 13.675,4.648 13.513 C 4.553 13.248,4.542 13.165,4.541 12.640 C 4.540 11.988,4.572 11.849,4.848 11.312 C 5.239 10.552,6.059 9.961,6.951 9.799 C 7.284 9.738,8.067 9.783,8.380 9.881 M17.380 9.881 C 18.355 10.187,19.055 10.871,19.385 11.840 C 19.445 12.017,19.459 12.173,19.457 12.640 C 19.455 13.160,19.444 13.250,19.350 13.513 C 19.293 13.675,19.186 13.909,19.113 14.033 C 18.933 14.340,18.359 14.906,18.040 15.091 C 17.126 15.621,15.874 15.621,14.960 15.091 C 14.641 14.906,14.067 14.340,13.887 14.033 C 13.814 13.909,13.707 13.675,13.648 13.513 C 13.553 13.248,13.542 13.165,13.541 12.640 C 13.540 11.988,13.572 11.849,13.848 11.312 C 14.239 10.552,15.059 9.961,15.951 9.799 C 16.284 9.738,17.067 9.783,17.380 9.881 M12.489 16.042 C 12.695 16.099,12.963 16.312,13.069 16.504 C 13.119 16.595,13.288 17.206,13.458 17.912 C 13.713 18.969,13.752 19.175,13.712 19.261 C 13.687 19.316,13.626 19.372,13.577 19.384 C 13.529 19.396,13.184 19.324,12.812 19.223 C 12.440 19.122,12.074 19.040,12.000 19.040 C 11.926 19.040,11.560 19.122,11.188 19.223 C 10.116 19.514,10.143 19.568,10.541 17.914 C 10.715 17.188,10.878 16.602,10.930 16.508 C 11.038 16.315,11.253 16.134,11.465 16.059 C 11.649 15.993,12.277 15.983,12.489 16.042 " fill="#333333" stroke="none" fill-rule="evenodd"></path></svg>