<svg width="24" height="24" viewBox="0 0 24 24" fill="none" xmlns="http://www.w3.org/2000/svg"><path d="M11.083 0.067 L 10.987 0.133 11.015 1.663 C 11.036 2.811,11.031 3.201,10.996 3.222 C 10.970 3.238,10.424 2.990,9.761 2.660 C 8.829 2.196,8.550 2.074,8.471 2.094 C 8.394 2.113,8.297 2.241,8.065 2.632 C 7.897 2.914,7.760 3.181,7.760 3.225 C 7.760 3.270,7.800 3.342,7.850 3.386 C 7.899 3.431,8.637 3.903,9.490 4.437 C 10.342 4.970,11.051 5.426,11.066 5.450 C 11.109 5.519,11.192 9.851,11.153 9.930 C 11.105 10.023,10.724 10.239,10.606 10.240 C 10.521 10.240,6.864 8.108,6.721 7.974 C 6.674 7.930,6.647 7.559,6.579 6.015 L 6.496 4.109 6.400 4.032 C 6.313 3.962,6.249 3.956,5.694 3.967 C 5.180 3.978,5.072 3.991,5.014 4.049 C 4.955 4.108,4.934 4.303,4.872 5.389 C 4.833 6.088,4.791 6.683,4.781 6.710 C 4.771 6.737,4.738 6.760,4.709 6.760 C 4.679 6.760,4.080 6.418,3.377 6.000 C 2.605 5.541,2.059 5.241,1.996 5.240 C 1.939 5.240,1.865 5.271,1.832 5.310 C 1.702 5.460,1.000 6.709,1.000 6.790 C 1.000 6.916,1.129 6.997,2.480 7.721 C 3.151 8.081,3.712 8.392,3.726 8.414 C 3.741 8.435,3.745 8.472,3.735 8.496 C 3.726 8.520,3.255 8.835,2.689 9.196 C 1.566 9.913,1.480 9.976,1.480 10.092 C 1.480 10.179,1.977 11.057,2.090 11.170 C 2.128 11.208,2.198 11.240,2.244 11.240 C 2.290 11.240,3.058 10.866,3.952 10.410 C 4.846 9.954,5.627 9.564,5.687 9.545 C 5.784 9.514,6.013 9.627,7.708 10.540 C 8.760 11.106,9.660 11.607,9.710 11.652 C 9.786 11.721,9.800 11.775,9.800 12.000 C 9.800 12.225,9.786 12.279,9.710 12.349 C 9.617 12.435,6.056 14.371,5.843 14.451 C 5.730 14.494,5.652 14.460,4.512 13.878 C 3.846 13.538,3.075 13.145,2.799 13.004 C 2.404 12.802,2.274 12.753,2.190 12.774 C 2.105 12.795,2.022 12.904,1.796 13.287 C 1.465 13.848,1.450 13.888,1.530 14.010 C 1.563 14.060,2.068 14.407,2.653 14.780 C 3.238 15.154,3.725 15.480,3.735 15.504 C 3.745 15.528,3.741 15.565,3.726 15.587 C 3.712 15.609,3.124 15.938,2.420 16.318 C 1.716 16.698,1.109 17.037,1.070 17.071 C 1.032 17.105,1.000 17.169,1.000 17.214 C 1.000 17.301,1.768 18.643,1.862 18.722 C 1.894 18.748,1.969 18.762,2.031 18.753 C 2.092 18.744,2.713 18.398,3.411 17.984 C 4.171 17.533,4.704 17.240,4.740 17.254 C 4.773 17.267,4.801 17.328,4.802 17.389 C 4.804 17.450,4.836 18.036,4.875 18.691 C 4.934 19.704,4.955 19.892,5.014 19.951 C 5.072 20.009,5.179 20.022,5.694 20.033 C 6.249 20.044,6.313 20.038,6.400 19.968 L 6.496 19.891 6.579 17.986 C 6.625 16.934,6.680 16.064,6.701 16.043 C 6.810 15.936,10.529 13.760,10.603 13.760 C 10.714 13.760,11.110 13.985,11.154 14.073 C 11.173 14.110,11.166 15.127,11.140 16.333 C 11.095 18.404,11.088 18.529,11.016 18.597 C 10.974 18.636,10.265 19.088,9.440 19.600 C 8.615 20.113,7.900 20.569,7.850 20.613 C 7.801 20.658,7.760 20.730,7.760 20.775 C 7.760 20.819,7.897 21.086,8.065 21.368 C 8.292 21.751,8.395 21.887,8.468 21.905 C 8.542 21.924,8.851 21.791,9.765 21.344 C 10.425 21.022,10.982 20.769,11.004 20.782 C 11.029 20.798,11.033 21.353,11.015 22.337 L 10.987 23.867 11.083 23.933 C 11.164 23.990,11.297 24.000,12.000 24.000 C 12.703 24.000,12.836 23.990,12.917 23.933 L 13.013 23.867 12.985 22.337 C 12.967 21.353,12.971 20.798,12.996 20.782 C 13.018 20.769,13.575 21.022,14.235 21.344 C 15.149 21.791,15.458 21.924,15.532 21.905 C 15.605 21.887,15.708 21.751,15.935 21.368 C 16.103 21.086,16.240 20.819,16.240 20.775 C 16.240 20.730,16.200 20.658,16.150 20.613 C 16.101 20.569,15.385 20.113,14.560 19.600 C 13.735 19.088,13.025 18.636,12.983 18.596 C 12.910 18.528,12.904 18.408,12.859 16.332 C 12.833 15.119,12.827 14.110,12.846 14.073 C 12.890 13.985,13.286 13.760,13.397 13.760 C 13.471 13.760,17.189 15.935,17.298 16.042 C 17.318 16.063,17.373 16.937,17.420 17.985 L 17.505 19.891 17.600 19.968 C 17.687 20.038,17.751 20.044,18.306 20.033 C 18.820 20.022,18.928 20.009,18.986 19.951 C 19.045 19.892,19.066 19.697,19.128 18.611 C 19.167 17.912,19.209 17.317,19.219 17.290 C 19.229 17.262,19.261 17.240,19.289 17.240 C 19.317 17.241,19.915 17.583,20.617 18.000 C 21.418 18.476,21.934 18.760,22.001 18.760 C 22.060 18.760,22.135 18.729,22.168 18.690 C 22.294 18.544,23.000 17.292,23.000 17.214 C 23.000 17.169,22.968 17.105,22.930 17.071 C 22.892 17.037,22.284 16.698,21.580 16.318 C 20.876 15.938,20.288 15.609,20.274 15.587 C 20.259 15.565,20.255 15.528,20.265 15.504 C 20.275 15.480,20.762 15.154,21.347 14.780 C 21.932 14.407,22.437 14.060,22.470 14.010 C 22.550 13.888,22.535 13.848,22.204 13.287 C 21.978 12.904,21.895 12.795,21.810 12.774 C 21.695 12.745,21.820 12.686,19.448 13.898 C 18.350 14.460,18.270 14.494,18.158 14.452 C 17.933 14.367,14.300 12.388,14.251 12.324 C 14.224 12.289,14.202 12.142,14.201 11.997 C 14.200 11.774,14.214 11.721,14.290 11.652 C 14.340 11.607,15.240 11.106,16.292 10.540 C 17.988 9.626,18.216 9.513,18.313 9.545 C 18.373 9.564,19.154 9.954,20.048 10.410 C 20.942 10.866,21.710 11.240,21.756 11.240 C 21.802 11.240,21.872 11.208,21.912 11.168 C 22.005 11.075,22.520 10.179,22.520 10.110 C 22.520 9.990,22.359 9.868,21.345 9.220 C 20.760 8.846,20.274 8.520,20.264 8.496 C 20.255 8.472,20.259 8.435,20.274 8.413 C 20.288 8.391,20.849 8.080,21.520 7.720 C 22.869 6.998,23.000 6.916,23.000 6.790 C 23.000 6.709,22.298 5.460,22.168 5.310 C 22.135 5.271,22.061 5.240,22.004 5.240 C 21.941 5.241,21.395 5.541,20.623 6.000 C 19.920 6.418,19.321 6.760,19.291 6.760 C 19.262 6.760,19.229 6.737,19.219 6.710 C 19.209 6.683,19.167 6.088,19.128 5.389 C 19.066 4.303,19.045 4.108,18.986 4.049 C 18.928 3.991,18.820 3.978,18.306 3.967 C 17.751 3.956,17.687 3.962,17.600 4.032 L 17.505 4.109 17.420 6.015 C 17.352 7.543,17.324 7.932,17.278 7.975 C 17.135 8.108,13.478 10.240,13.394 10.240 C 13.276 10.239,12.895 10.023,12.848 9.930 C 12.827 9.889,12.832 8.942,12.859 7.669 C 12.897 5.868,12.916 5.467,12.963 5.421 C 12.994 5.391,13.712 4.932,14.557 4.402 C 15.403 3.873,16.127 3.410,16.167 3.373 C 16.207 3.337,16.240 3.271,16.240 3.226 C 16.240 3.181,16.103 2.914,15.935 2.632 C 15.703 2.241,15.606 2.113,15.529 2.094 C 15.450 2.074,15.171 2.196,14.239 2.660 C 13.576 2.990,13.030 3.238,13.004 3.222 C 12.969 3.201,12.964 2.811,12.985 1.663 L 13.013 0.133 12.917 0.067 C 12.775 -0.033,11.225 -0.033,11.083 0.067 " fill="#333333" stroke="none" fill-rule="evenodd"></path></svg>