<svg width="24" height="24" viewBox="0 0 24 24" fill="none" xmlns="http://www.w3.org/2000/svg"><path d="M5.320 0.080 C 5.240 0.160,5.240 0.213,5.240 10.411 C 5.240 21.758,5.262 20.840,4.987 20.840 C 4.873 20.840,4.747 20.727,3.820 19.797 C 2.084 18.055,1.056 17.080,0.958 17.080 C 0.900 17.080,0.723 17.225,0.435 17.511 C 0.100 17.842,0.000 17.966,0.000 18.047 C 0.000 18.134,0.522 18.670,2.929 21.058 C 4.540 22.656,5.899 23.973,5.949 23.986 C 6.001 23.999,6.080 23.983,6.130 23.949 C 6.180 23.916,7.520 22.598,9.110 21.021 C 11.484 18.665,12.000 18.134,12.000 18.047 C 12.000 17.966,11.900 17.842,11.565 17.511 C 11.277 17.225,11.100 17.080,11.042 17.080 C 10.944 17.080,9.916 18.055,8.180 19.797 C 7.253 20.727,7.127 20.840,7.013 20.840 C 6.738 20.840,6.760 21.758,6.760 10.411 C 6.760 0.213,6.760 0.160,6.680 0.080 C 6.607 0.007,6.547 0.000,6.000 0.000 C 5.453 0.000,5.393 0.007,5.320 0.080 M16.048 0.048 C 15.997 0.099,15.977 1.293,16.024 1.417 C 16.046 1.474,16.321 1.480,18.721 1.480 C 20.191 1.480,21.422 1.491,21.457 1.504 C 21.492 1.518,21.520 1.553,21.520 1.583 C 21.520 1.614,20.278 3.299,18.760 5.328 L 16.000 9.017 16.000 9.461 C 16.000 9.752,16.016 9.920,16.048 9.952 C 16.118 10.022,23.882 10.022,23.952 9.952 C 24.003 9.901,24.023 8.707,23.976 8.583 C 23.954 8.526,23.679 8.520,21.279 8.520 C 19.809 8.520,18.578 8.509,18.543 8.496 C 18.508 8.482,18.480 8.446,18.480 8.416 C 18.480 8.385,19.722 6.704,21.240 4.680 L 24.000 0.999 24.000 0.548 C 24.000 0.250,23.984 0.080,23.952 0.048 C 23.882 -0.022,16.118 -0.022,16.048 0.048 M19.013 14.031 C 18.986 14.048,18.295 16.270,17.477 18.970 C 16.239 23.050,15.997 23.888,16.039 23.939 C 16.081 23.989,16.205 24.000,16.739 24.000 C 17.307 24.000,17.395 23.991,17.448 23.930 C 17.482 23.892,17.676 23.296,17.881 22.606 C 18.085 21.917,18.278 21.328,18.309 21.296 C 18.356 21.250,18.646 21.240,20.000 21.240 C 21.354 21.240,21.644 21.250,21.691 21.296 C 21.722 21.328,21.915 21.917,22.119 22.606 C 22.324 23.296,22.518 23.892,22.552 23.930 C 22.605 23.991,22.693 24.000,23.261 24.000 C 23.794 24.000,23.919 23.989,23.961 23.939 C 24.003 23.888,23.762 23.056,22.540 19.029 C 21.730 16.362,21.043 14.139,21.013 14.090 C 20.959 14.001,20.951 14.000,20.009 14.001 C 19.487 14.001,19.039 14.015,19.013 14.031 M20.173 16.070 C 20.226 16.241,20.491 17.124,20.761 18.034 C 21.166 19.395,21.243 19.694,21.197 19.723 C 21.165 19.743,20.625 19.759,19.995 19.759 C 19.081 19.760,18.841 19.749,18.805 19.706 C 18.763 19.656,19.003 18.805,19.823 16.090 C 19.903 15.826,19.938 15.760,20.000 15.760 C 20.061 15.760,20.097 15.824,20.173 16.070 " fill="#333333" stroke="none" fill-rule="evenodd"></path></svg>