<svg width="24" height="24" viewBox="0 0 24 24" fill="none" xmlns="http://www.w3.org/2000/svg"><path d="M5.320 0.080 C 5.240 0.160,5.240 0.213,5.240 10.411 C 5.240 21.758,5.262 20.840,4.987 20.840 C 4.873 20.840,4.747 20.727,3.820 19.797 C 2.084 18.055,1.056 17.080,0.958 17.080 C 0.900 17.080,0.723 17.225,0.435 17.511 C 0.100 17.842,0.000 17.966,0.000 18.047 C 0.000 18.134,0.522 18.670,2.929 21.058 C 4.540 22.656,5.899 23.973,5.949 23.986 C 6.001 23.999,6.080 23.983,6.130 23.949 C 6.180 23.916,7.520 22.598,9.110 21.021 C 11.484 18.665,12.000 18.134,12.000 18.047 C 12.000 17.966,11.900 17.842,11.565 17.511 C 11.277 17.225,11.100 17.080,11.042 17.080 C 10.944 17.080,9.916 18.055,8.180 19.797 C 7.253 20.727,7.127 20.840,7.013 20.840 C 6.738 20.840,6.760 21.758,6.760 10.411 C 6.760 0.213,6.760 0.160,6.680 0.080 C 6.607 0.007,6.547 0.000,6.000 0.000 C 5.453 0.000,5.393 0.007,5.320 0.080 M19.013 0.031 C 18.986 0.048,18.295 2.270,17.477 4.970 C 16.239 9.050,15.997 9.888,16.039 9.939 C 16.081 9.989,16.205 10.000,16.739 10.000 C 17.307 10.000,17.395 9.991,17.448 9.930 C 17.482 9.892,17.676 9.296,17.881 8.606 C 18.085 7.917,18.278 7.328,18.309 7.296 C 18.393 7.213,21.607 7.213,21.691 7.296 C 21.722 7.328,21.915 7.917,22.119 8.606 C 22.324 9.296,22.518 9.892,22.552 9.930 C 22.605 9.991,22.693 10.000,23.261 10.000 C 23.795 10.000,23.919 9.989,23.961 9.939 C 24.003 9.888,23.765 9.063,22.540 5.029 C 21.730 2.362,21.043 0.139,21.013 0.090 C 20.959 0.001,20.951 0.000,20.009 0.001 C 19.487 0.001,19.039 0.015,19.013 0.031 M20.173 2.070 C 20.226 2.241,20.491 3.124,20.761 4.034 C 21.166 5.395,21.243 5.694,21.197 5.723 C 21.165 5.743,20.625 5.759,19.995 5.759 C 19.081 5.760,18.841 5.749,18.805 5.706 C 18.763 5.656,19.003 4.805,19.823 2.090 C 19.903 1.826,19.938 1.760,20.000 1.760 C 20.061 1.760,20.097 1.824,20.173 2.070 M16.048 14.048 C 15.997 14.099,15.977 15.293,16.024 15.417 C 16.046 15.474,16.321 15.480,18.721 15.480 C 20.191 15.480,21.422 15.491,21.457 15.504 C 21.492 15.518,21.520 15.553,21.520 15.584 C 21.520 15.614,20.278 17.299,18.760 19.328 L 16.000 23.017 16.000 23.461 C 16.000 23.752,16.016 23.920,16.048 23.952 C 16.118 24.022,23.882 24.022,23.952 23.952 C 24.003 23.901,24.023 22.707,23.976 22.583 C 23.954 22.526,23.679 22.520,21.279 22.520 C 19.809 22.520,18.578 22.509,18.543 22.496 C 18.508 22.482,18.480 22.446,18.480 22.416 C 18.480 22.385,19.722 20.704,21.240 18.680 L 24.000 14.999 24.000 14.548 C 24.000 14.250,23.984 14.080,23.952 14.048 C 23.882 13.978,16.118 13.978,16.048 14.048 " fill="#333333" stroke="none" fill-rule="evenodd"></path></svg>