<svg width="24" height="24" viewBox="0 0 24 24" fill="none" xmlns="http://www.w3.org/2000/svg"><path d="M18.147 0.088 C 18.114 0.138,17.978 0.523,17.843 0.943 C 17.553 1.845,17.411 2.109,16.994 2.526 C 16.603 2.915,16.299 3.070,15.283 3.397 C 14.530 3.639,14.515 3.646,14.528 3.749 C 14.539 3.847,14.587 3.869,15.346 4.122 C 16.378 4.466,16.573 4.570,17.002 4.998 C 17.430 5.427,17.534 5.622,17.878 6.654 C 18.131 7.413,18.153 7.461,18.251 7.472 C 18.354 7.485,18.361 7.469,18.600 6.722 C 18.926 5.707,19.090 5.384,19.478 5.000 C 19.897 4.585,20.156 4.448,21.102 4.141 C 21.895 3.884,22.030 3.817,21.988 3.706 C 21.976 3.676,21.584 3.522,21.117 3.365 C 20.649 3.207,20.166 3.022,20.043 2.952 C 19.770 2.797,19.217 2.252,19.059 1.980 C 18.995 1.870,18.807 1.384,18.641 0.900 C 18.327 -0.017,18.271 -0.109,18.147 0.088 M6.415 2.031 C 6.390 2.047,6.230 2.482,6.060 2.998 C 5.889 3.514,5.681 4.068,5.598 4.229 C 5.298 4.808,4.807 5.299,4.228 5.599 C 4.065 5.682,3.507 5.892,2.987 6.063 C 2.018 6.383,1.921 6.436,2.040 6.580 C 2.065 6.610,2.503 6.774,3.013 6.943 C 3.523 7.113,4.058 7.310,4.203 7.383 C 4.795 7.678,5.363 8.262,5.642 8.860 C 5.724 9.036,5.923 9.581,6.085 10.070 C 6.385 10.979,6.439 11.077,6.580 10.960 C 6.610 10.935,6.774 10.497,6.943 9.987 C 7.113 9.477,7.310 8.942,7.383 8.797 C 7.663 8.235,8.235 7.663,8.797 7.383 C 8.942 7.310,9.477 7.113,9.987 6.943 C 10.497 6.774,10.935 6.610,10.960 6.580 C 11.078 6.438,10.980 6.385,10.010 6.064 C 9.488 5.891,8.942 5.690,8.797 5.618 C 8.244 5.341,7.668 4.769,7.391 4.223 C 7.323 4.089,7.127 3.560,6.956 3.046 C 6.784 2.533,6.623 2.087,6.597 2.056 C 6.545 1.994,6.484 1.986,6.415 2.031 M12.345 9.051 C 12.302 9.083,12.076 9.703,11.744 10.701 C 11.451 11.581,11.145 12.435,11.062 12.600 C 10.550 13.621,9.691 14.497,8.703 15.006 C 8.424 15.150,7.832 15.368,6.704 15.744 C 5.720 16.071,5.081 16.304,5.050 16.346 C 4.986 16.434,4.986 16.566,5.050 16.654 C 5.081 16.696,5.722 16.929,6.709 17.258 C 8.464 17.842,8.848 18.010,9.449 18.462 C 10.097 18.948,10.693 19.665,11.062 20.400 C 11.144 20.565,11.452 21.420,11.745 22.300 C 12.071 23.280,12.304 23.919,12.346 23.950 C 12.434 24.014,12.566 24.014,12.654 23.950 C 12.696 23.919,12.929 23.280,13.255 22.300 C 13.548 21.420,13.856 20.565,13.938 20.400 C 14.307 19.665,14.903 18.948,15.551 18.462 C 16.152 18.010,16.536 17.842,18.291 17.258 C 19.278 16.929,19.919 16.696,19.950 16.654 C 20.014 16.566,20.014 16.434,19.950 16.346 C 19.919 16.304,19.280 16.071,18.296 15.744 C 17.168 15.368,16.576 15.150,16.297 15.006 C 15.309 14.497,14.449 13.620,13.938 12.600 C 13.856 12.435,13.548 11.580,13.255 10.700 C 12.929 9.720,12.696 9.081,12.654 9.050 C 12.565 8.986,12.434 8.986,12.345 9.051 " fill="#333333" stroke="none" fill-rule="evenodd"></path></svg>