<svg width="24" height="24" viewBox="0 0 24 24" fill="none" xmlns="http://www.w3.org/2000/svg"><path d="M11.773 0.056 C 11.703 0.088,11.616 0.159,11.580 0.214 C 11.544 0.270,10.878 1.679,10.102 3.346 C 9.256 5.162,8.658 6.398,8.610 6.430 C 8.543 6.475,7.988 6.427,4.984 6.118 L 1.438 5.753 1.293 5.829 C 1.042 5.959,0.933 6.274,1.056 6.512 C 1.087 6.571,2.032 7.808,3.156 9.260 C 4.607 11.134,5.199 11.929,5.199 12.000 C 5.199 12.071,4.603 12.870,3.156 14.740 C 2.032 16.192,1.087 17.429,1.056 17.488 C 0.931 17.728,1.042 18.041,1.298 18.174 L 1.449 18.253 4.994 17.888 C 7.893 17.589,8.552 17.532,8.613 17.572 C 8.655 17.600,9.331 18.999,10.134 20.720 C 11.717 24.112,11.653 24.000,12.000 24.000 C 12.347 24.000,12.283 24.112,13.865 20.720 C 14.674 18.987,15.344 17.600,15.386 17.573 C 15.448 17.532,16.098 17.588,19.006 17.888 L 22.551 18.253 22.702 18.174 C 22.958 18.041,23.069 17.728,22.944 17.488 C 22.913 17.429,21.968 16.192,20.844 14.740 C 19.395 12.868,18.801 12.071,18.801 12.000 C 18.801 11.929,19.395 11.132,20.844 9.260 C 21.968 7.808,22.913 6.571,22.944 6.512 C 23.068 6.274,22.958 5.959,22.707 5.828 L 22.561 5.753 19.015 6.118 C 16.011 6.427,15.458 6.475,15.390 6.430 C 15.343 6.399,14.731 5.136,13.865 3.282 C 12.803 1.006,12.393 0.166,12.317 0.110 C 12.179 0.009,11.931 -0.015,11.773 0.056 " fill="#333333" stroke="none" fill-rule="evenodd"></path></svg>