<svg width="24" height="24" viewBox="0 0 24 24" fill="none" xmlns="http://www.w3.org/2000/svg"><path d="M11.772 1.057 C 11.702 1.088,11.602 1.183,11.550 1.267 C 11.498 1.351,10.729 2.833,9.841 4.560 C 8.954 6.287,8.200 7.743,8.166 7.795 C 8.132 7.848,8.047 7.915,7.978 7.944 C 7.908 7.972,6.164 8.232,4.101 8.519 C 2.038 8.807,0.321 9.058,0.285 9.077 C 0.249 9.097,0.175 9.161,0.120 9.220 C 0.039 9.306,0.020 9.367,0.020 9.540 C 0.020 9.712,0.039 9.775,0.120 9.862 C 0.175 9.922,1.418 11.091,2.881 12.461 C 4.345 13.830,5.565 14.999,5.591 15.057 C 5.618 15.116,5.640 15.196,5.640 15.235 C 5.640 15.274,5.351 16.915,4.999 18.883 C 4.616 21.018,4.366 22.510,4.379 22.583 C 4.424 22.837,4.759 23.051,5.010 22.985 C 5.059 22.972,6.618 22.196,8.473 21.261 C 11.174 19.899,11.877 19.560,12.000 19.560 C 12.123 19.560,12.826 19.899,15.527 21.261 C 17.382 22.196,18.941 22.972,18.990 22.985 C 19.241 23.051,19.576 22.837,19.621 22.583 C 19.634 22.510,19.383 21.013,19.001 18.883 C 18.649 16.916,18.360 15.275,18.360 15.235 C 18.360 15.196,18.382 15.116,18.409 15.057 C 18.436 14.998,19.655 13.829,21.119 12.460 C 22.582 11.091,23.823 9.924,23.875 9.868 C 24.070 9.656,24.008 9.272,23.752 9.104 C 23.690 9.064,22.423 8.871,19.904 8.520 C 17.838 8.232,16.089 7.972,16.017 7.941 C 15.945 7.911,15.862 7.845,15.833 7.793 C 15.804 7.742,15.024 6.235,14.100 4.444 C 12.964 2.243,12.386 1.163,12.317 1.111 C 12.180 1.009,11.932 0.985,11.772 1.057 " fill="#333333" stroke="none" fill-rule="evenodd"></path></svg>