<svg width="24" height="24" viewBox="0 0 24 24" fill="none" xmlns="http://www.w3.org/2000/svg"><path d="M18.139 0.037 C 16.845 0.245,15.740 1.177,14.980 2.700 C 14.662 3.339,14.479 3.838,14.280 4.620 C 13.886 6.165,13.731 8.068,13.836 10.074 C 13.900 11.287,13.928 11.488,14.068 11.713 C 14.271 12.041,14.399 12.099,15.316 12.280 C 16.755 12.563,17.855 12.850,19.309 13.323 C 20.063 13.569,20.219 13.593,20.493 13.511 C 20.772 13.428,20.922 13.237,21.293 12.495 C 22.777 9.526,23.301 6.734,22.818 4.360 C 22.376 2.190,21.139 0.616,19.500 0.141 C 19.111 0.028,18.488 -0.019,18.139 0.037 M4.820 4.059 C 3.552 4.295,2.370 5.299,1.721 6.690 C 0.812 8.637,0.766 11.103,1.587 13.760 C 1.988 15.057,2.891 17.056,3.204 17.339 C 3.520 17.625,3.794 17.626,4.646 17.343 C 5.961 16.907,7.170 16.589,8.609 16.301 C 9.553 16.112,9.695 16.055,9.891 15.792 C 10.035 15.599,10.076 15.439,10.130 14.881 C 10.208 14.075,10.193 11.474,10.106 10.742 C 9.873 8.775,9.439 7.325,8.736 6.167 C 7.771 4.577,6.298 3.784,4.820 4.059 M13.905 14.059 C 13.573 14.177,13.333 14.532,13.182 15.129 C 12.973 15.953,12.954 16.704,13.125 17.400 C 13.422 18.613,14.305 19.574,15.402 19.878 C 16.770 20.257,18.156 19.694,18.993 18.419 C 19.455 17.715,19.850 16.491,19.776 15.991 C 19.742 15.762,19.590 15.505,19.430 15.407 C 19.234 15.288,17.715 14.789,16.920 14.583 C 16.086 14.367,15.478 14.234,14.710 14.100 C 14.055 13.985,14.106 13.987,13.905 14.059 M9.580 18.045 C 8.011 18.327,6.734 18.643,5.544 19.044 C 5.085 19.199,4.643 19.370,4.561 19.424 C 4.480 19.477,4.372 19.597,4.320 19.689 C 4.032 20.201,4.459 21.695,5.162 22.639 C 5.858 23.571,6.884 24.064,7.964 23.984 C 9.576 23.864,10.786 22.593,10.970 20.827 C 11.024 20.313,10.973 19.741,10.822 19.142 C 10.663 18.516,10.399 18.139,10.053 18.043 C 9.880 17.995,9.857 17.995,9.580 18.045 " fill="#333333" stroke="none" fill-rule="evenodd"></path></svg>