<svg width="24" height="24" viewBox="0 0 24 24" fill="none" xmlns="http://www.w3.org/2000/svg"><path d="M1.082 1.078 C 1.037 1.123,1.000 1.194,1.000 1.235 C 1.000 1.277,1.468 2.316,2.040 3.545 L 3.080 5.780 5.611 8.310 C 7.590 10.288,8.163 10.840,8.240 10.840 C 8.383 10.840,10.840 8.383,10.840 8.240 C 10.840 8.163,10.285 7.587,8.300 5.601 L 5.760 3.060 3.556 2.040 C 2.343 1.479,1.309 1.014,1.258 1.008 C 1.204 1.000,1.130 1.030,1.082 1.078 M20.450 2.033 L 18.240 3.060 12.430 8.870 C 7.170 14.130,6.608 14.680,6.494 14.680 C 6.380 14.680,6.289 14.591,5.520 13.719 C 5.054 13.191,4.639 12.741,4.599 12.719 C 4.558 12.698,4.440 12.680,4.335 12.680 L 4.146 12.680 3.512 13.310 C 2.811 14.005,2.745 14.111,2.851 14.365 C 2.913 14.512,3.079 14.670,4.553 15.974 C 5.022 16.388,5.415 16.753,5.427 16.784 C 5.439 16.815,5.438 16.881,5.426 16.930 C 5.413 16.980,4.437 17.938,3.258 19.060 C 2.078 20.182,1.088 21.149,1.056 21.208 C 0.904 21.499,1.000 21.667,1.714 22.372 C 2.334 22.983,2.441 23.049,2.707 22.982 C 2.844 22.947,2.944 22.846,5.158 20.510 C 6.757 18.822,7.021 18.560,7.120 18.560 C 7.248 18.560,7.197 18.507,8.627 20.120 C 9.195 20.761,9.509 21.084,9.614 21.135 C 9.880 21.265,9.977 21.207,10.690 20.488 L 11.320 19.854 11.320 19.665 C 11.320 19.560,11.303 19.442,11.281 19.403 C 11.260 19.363,10.810 18.949,10.281 18.482 C 9.408 17.711,9.320 17.622,9.320 17.507 C 9.320 17.392,9.863 16.836,15.150 11.540 L 20.980 5.700 21.980 3.529 C 22.530 2.336,22.986 1.315,22.992 1.262 C 23.008 1.142,22.874 0.999,22.750 1.003 C 22.701 1.005,21.665 1.469,20.450 2.033 M19.387 12.732 C 19.346 12.759,18.935 13.207,18.474 13.730 C 17.713 14.590,17.622 14.680,17.508 14.680 C 17.399 14.680,17.285 14.583,16.619 13.920 C 16.049 13.352,15.831 13.160,15.758 13.160 C 15.618 13.160,13.160 15.618,13.160 15.758 C 13.160 15.831,13.352 16.049,13.917 16.618 C 14.333 17.037,14.677 17.407,14.682 17.440 C 14.686 17.473,14.687 17.530,14.685 17.566 C 14.682 17.603,14.251 18.012,13.727 18.476 C 13.202 18.939,12.752 19.365,12.727 19.421 C 12.701 19.478,12.680 19.598,12.680 19.689 C 12.680 19.849,12.701 19.875,13.309 20.488 C 13.980 21.163,14.078 21.227,14.339 21.155 C 14.492 21.113,14.547 21.055,15.907 19.520 C 16.625 18.709,16.757 18.578,16.866 18.568 C 16.985 18.556,17.105 18.675,19.063 20.737 C 20.617 22.373,21.169 22.930,21.270 22.963 C 21.558 23.058,21.649 23.003,22.326 22.326 C 23.004 21.648,23.058 21.558,22.963 21.268 C 22.929 21.165,22.387 20.627,20.758 19.076 C 19.569 17.945,18.587 16.980,18.574 16.930 C 18.562 16.881,18.561 16.814,18.573 16.783 C 18.586 16.751,19.006 16.362,19.508 15.918 C 21.014 14.584,21.116 14.487,21.153 14.348 C 21.224 14.076,21.164 13.982,20.490 13.311 L 19.855 12.680 19.658 12.682 C 19.549 12.684,19.427 12.706,19.387 12.732 " fill="#333333" stroke="none" fill-rule="evenodd"></path></svg>