<svg width="24" height="24" viewBox="0 0 24 24" fill="none" xmlns="http://www.w3.org/2000/svg"><path d="M20.450 2.033 L 18.240 3.060 12.430 8.870 C 7.170 14.130,6.608 14.680,6.494 14.680 C 6.380 14.680,6.289 14.591,5.520 13.719 C 5.054 13.191,4.639 12.741,4.599 12.719 C 4.558 12.698,4.440 12.680,4.335 12.680 L 4.146 12.680 3.512 13.310 C 2.811 14.005,2.745 14.111,2.851 14.365 C 2.913 14.512,3.079 14.670,4.553 15.974 C 5.022 16.388,5.415 16.753,5.427 16.784 C 5.439 16.815,5.438 16.881,5.426 16.930 C 5.413 16.980,4.437 17.938,3.258 19.060 C 2.078 20.182,1.088 21.149,1.056 21.208 C 0.904 21.499,1.000 21.667,1.714 22.372 C 2.334 22.983,2.441 23.049,2.707 22.982 C 2.844 22.947,2.944 22.846,5.158 20.510 C 6.757 18.822,7.021 18.560,7.120 18.560 C 7.248 18.560,7.197 18.507,8.627 20.120 C 9.195 20.761,9.509 21.084,9.614 21.135 C 9.880 21.265,9.977 21.207,10.690 20.488 L 11.320 19.854 11.320 19.665 C 11.320 19.560,11.303 19.442,11.281 19.403 C 11.260 19.363,10.810 18.949,10.281 18.482 C 9.408 17.711,9.320 17.622,9.320 17.507 C 9.320 17.392,9.863 16.836,15.150 11.540 L 20.980 5.700 21.980 3.529 C 22.530 2.336,22.986 1.315,22.992 1.262 C 23.008 1.142,22.874 0.999,22.750 1.003 C 22.701 1.005,21.665 1.469,20.450 2.033 " fill="#333333" stroke="none" fill-rule="evenodd"></path></svg>