<svg width="24" height="24" viewBox="0 0 24 24" fill="none" xmlns="http://www.w3.org/2000/svg"><path d="M0.321 3.292 C 0.242 3.320,0.144 3.398,0.091 3.476 C 0.003 3.607,0.000 3.641,0.000 4.496 C 0.000 5.312,0.006 5.390,0.081 5.512 C 0.244 5.780,-0.726 5.760,12.000 5.760 C 24.726 5.760,23.756 5.780,23.919 5.512 C 23.994 5.390,24.000 5.312,24.000 4.496 C 24.000 3.641,23.997 3.607,23.909 3.476 C 23.856 3.398,23.758 3.320,23.679 3.292 C 23.477 3.223,0.523 3.223,0.321 3.292 M0.281 10.811 C 0.227 10.839,0.141 10.922,0.091 10.996 C 0.003 11.127,0.000 11.163,0.000 12.000 C 0.000 12.837,0.003 12.873,0.091 13.004 C 0.141 13.078,0.227 13.161,0.281 13.189 C 0.426 13.262,23.574 13.262,23.719 13.189 C 23.773 13.161,23.859 13.078,23.909 13.004 C 23.997 12.873,24.000 12.837,24.000 12.000 C 24.000 11.163,23.997 11.127,23.909 10.996 C 23.859 10.922,23.773 10.839,23.719 10.811 C 23.574 10.738,0.426 10.738,0.281 10.811 M0.382 18.269 C 0.238 18.306,0.110 18.415,0.055 18.547 C 0.014 18.643,-0.000 18.896,-0.000 19.500 C -0.000 20.404,0.024 20.526,0.225 20.662 C 0.338 20.738,0.450 20.740,6.000 20.740 C 11.550 20.740,11.662 20.738,11.775 20.662 C 11.976 20.526,12.000 20.404,12.000 19.500 C 12.000 18.596,11.976 18.474,11.775 18.338 C 11.662 18.262,11.546 18.260,6.060 18.254 C 2.980 18.251,0.425 18.258,0.382 18.269 " fill="#333333" stroke="none" fill-rule="evenodd"></path></svg>