<svg width="24" height="24" viewBox="0 0 24 24" fill="none" xmlns="http://www.w3.org/2000/svg"><path d="M12.252 3.078 C 12.063 3.194,12.000 3.348,12.000 3.698 L 12.000 4.000 6.198 4.000 C -0.210 4.000,0.243 3.981,0.078 4.252 C 0.010 4.364,0.000 4.456,0.000 4.992 C -0.000 5.676,0.030 5.786,0.252 5.922 C 0.377 5.998,0.498 6.000,6.190 6.000 L 12.000 6.000 12.000 6.310 C 12.000 6.547,12.019 6.650,12.078 6.748 C 12.213 6.970,12.325 7.000,13.000 7.000 C 13.675 7.000,13.787 6.970,13.922 6.748 C 13.996 6.627,14.000 6.536,14.000 5.000 C 14.000 3.464,13.996 3.373,13.922 3.252 C 13.786 3.030,13.676 3.000,12.992 3.000 C 12.456 3.000,12.364 3.010,12.252 3.078 M16.252 4.078 C 16.030 4.213,16.000 4.325,16.000 5.000 C 16.000 5.675,16.030 5.787,16.252 5.922 C 16.376 5.998,16.480 6.000,19.992 6.000 C 23.979 6.000,23.759 6.014,23.922 5.748 C 23.990 5.636,24.000 5.545,24.000 5.000 C 24.000 4.455,23.990 4.364,23.922 4.252 C 23.759 3.986,23.979 4.000,19.992 4.000 C 16.480 4.000,16.376 4.002,16.252 4.078 M7.252 10.078 C 7.063 10.194,7.000 10.348,7.000 10.698 L 7.000 11.000 3.698 11.000 C 0.053 11.000,0.240 10.987,0.078 11.252 C 0.010 11.364,0.000 11.455,0.000 12.000 C 0.000 12.545,0.010 12.636,0.078 12.748 C 0.240 13.013,0.053 13.000,3.698 13.000 L 7.000 13.000 7.000 13.310 C 7.000 13.547,7.019 13.650,7.078 13.748 C 7.213 13.970,7.325 14.000,8.000 14.000 C 8.675 14.000,8.787 13.970,8.922 13.748 C 8.996 13.627,9.000 13.536,9.000 12.000 C 9.000 10.464,8.996 10.373,8.922 10.252 C 8.786 10.030,8.676 10.000,7.992 10.000 C 7.456 10.000,7.364 10.010,7.252 10.078 M11.252 11.078 C 11.030 11.213,11.000 11.325,11.000 12.000 C 11.000 12.675,11.030 12.787,11.252 12.922 C 11.377 12.998,11.501 13.000,17.500 13.000 C 23.499 13.000,23.623 12.998,23.748 12.922 C 23.970 12.787,24.000 12.675,24.000 12.000 C 24.000 11.325,23.970 11.213,23.748 11.078 C 23.623 11.002,23.499 11.000,17.500 11.000 C 11.501 11.000,11.377 11.002,11.252 11.078 M14.252 17.078 C 14.063 17.194,14.000 17.348,14.000 17.698 L 14.000 18.000 7.190 18.000 C 0.506 18.000,0.378 18.002,0.252 18.078 C 0.030 18.213,-0.000 18.325,-0.000 19.000 C 0.000 19.675,0.030 19.787,0.252 19.922 C 0.378 19.998,0.506 20.000,7.190 20.000 L 14.000 20.000 14.000 20.310 C 14.000 20.547,14.019 20.650,14.078 20.748 C 14.213 20.970,14.325 21.000,15.000 21.000 C 15.675 21.000,15.787 20.970,15.922 20.748 C 15.996 20.627,16.000 20.536,16.000 19.000 C 16.000 17.464,15.996 17.373,15.922 17.252 C 15.786 17.030,15.676 17.000,14.992 17.000 C 14.456 17.000,14.364 17.010,14.252 17.078 M18.252 18.078 C 18.030 18.213,18.000 18.325,18.000 19.000 C 18.000 19.675,18.030 19.787,18.252 19.922 C 18.376 19.997,18.472 20.000,21.000 20.000 C 23.528 20.000,23.624 19.997,23.748 19.922 C 23.970 19.787,24.000 19.675,24.000 19.000 C 24.000 18.325,23.970 18.213,23.748 18.078 C 23.624 18.003,23.528 18.000,21.000 18.000 C 18.472 18.000,18.376 18.003,18.252 18.078 " fill="#333333" stroke="none" fill-rule="evenodd"></path></svg>