<svg width="2084" height="500" viewBox="0 0 2084 500" fill="none" xmlns="http://www.w3.org/2000/svg">
<path d="M1559.36 94.5946V97.973C1534.03 119.932 1534.03 195.946 1534.03 221.284V407.095H1601.59C1626.93 407.095 1702.95 407.095 1724.91 381.757H1728.28L1702.95 500H1699.57C1677.61 491.554 1626.93 491.554 1601.59 491.554H1407.34V488.176C1432.68 466.216 1432.68 390.203 1432.68 364.865V221.284C1432.68 195.946 1432.68 119.932 1407.34 97.973V94.5946H1559.36Z" fill="white"/>
<path d="M1914.09 94.5946V97.973C1888.76 119.932 1888.76 195.946 1888.76 221.284V407.095H1956.32C1981.66 407.095 2057.68 407.095 2079.64 381.757H2083.01L2057.68 500H2054.3C2032.34 491.554 1981.66 491.554 1956.32 491.554H1762.07V488.176C1787.41 466.216 1787.41 390.203 1787.41 364.865V221.284C1787.41 195.946 1787.41 119.932 1762.07 97.973V94.5946H1914.09Z" fill="white"/>
<path d="M934.39 293.074C934.373 294.476 934.365 295.883 934.365 297.297V288.851C934.365 290.266 934.373 291.673 934.39 293.074Z" fill="white"/>
<path fill-rule="evenodd" clip-rule="evenodd" d="M1365.08 293.074C1363.51 425.569 1287.68 500 1153.96 500H1145.51C1011.79 500 935.962 425.569 934.39 293.074C935.962 160.58 1011.79 86.1487 1145.51 86.1487H1153.96C1287.68 86.1487 1363.51 160.58 1365.08 293.074ZM1035.73 293.074C1035.72 293.904 1035.72 294.737 1035.72 295.574V290.575C1035.72 291.412 1035.72 292.245 1035.73 293.074ZM1263.74 293.074C1262.91 371.49 1222.77 415.541 1151.97 415.541H1147.5C1076.71 415.541 1036.56 371.49 1035.73 293.074C1036.56 214.659 1076.71 170.608 1147.5 170.608H1151.97C1222.77 170.608 1262.91 214.659 1263.74 293.074ZM1263.74 293.074C1263.75 292.245 1263.76 291.412 1263.76 290.575V295.574C1263.76 294.737 1263.75 293.904 1263.74 293.074Z" fill="white"/>
<path d="M1365.08 293.074C1365.1 291.673 1365.11 290.266 1365.11 288.851V297.297C1365.11 295.883 1365.1 294.476 1365.08 293.074Z" fill="white"/>
<path fill-rule="evenodd" clip-rule="evenodd" d="M520.513 96.2838V92.9054H734.075C816.705 92.9054 883.689 153.407 883.689 228.041C883.689 280.162 851.02 325.391 803.167 347.934L823.371 382.928C836.04 404.872 876.104 468.314 909.027 474.662V478.041C887.186 491.655 863.195 498.264 839.77 498.311C793.444 498.403 748.845 473.44 724.061 430.513L685.184 363.176H647.203C647.203 388.514 647.203 464.527 672.541 486.486V489.865H520.513V486.486C545.851 464.527 545.851 388.514 545.851 363.176V219.595C545.851 194.257 545.851 118.243 520.513 96.2838ZM647.203 287.162V177.365H719.596C754.248 177.365 782.338 201.944 782.338 232.264C782.338 262.583 754.248 287.162 719.596 287.162H647.203Z" fill="white"/>
<path fill-rule="evenodd" clip-rule="evenodd" d="M358.085 398.022L350.099 398.012C353.218 432.76 360.679 470.335 378.533 485.78V489.862H204.724V485.78C222.578 470.335 230.039 432.76 233.157 398.012H30.9154L0.24324 300.039L204.724 10.2028H378.533V14.285C347.861 40.8193 347.861 132.669 347.861 163.286V306.163H358.085C387.087 307.354 403.444 296.397 410.764 278.386C428.161 235.587 378.533 202.877 378.533 142.877C378.533 100.821 394.55 76.2549 421.661 52.1994C431.264 43.6796 433.096 30.5721 424.56 20.9058C441.775 6.73578 470.293 0.298535 504.288 0.00645955C529.7 -0.211881 557.453 5.1092 583.014 15.3147C514.512 15.3147 501.661 47.2492 490.997 71.4386C474.639 62.2537 456.235 60.2126 436.81 68.377C417.384 76.5414 402.162 94.9113 401.026 120.425C398.981 166.35 447.584 182.371 476.683 230.645C507.443 281.672 524.736 398.022 358.085 398.022ZM112.708 306.163L235.396 142.874V306.163H112.708Z" fill="#FF1919"/>
</svg>
