<svg width="19" height="18" viewBox="0 0 19 18" fill="none" xmlns="http://www.w3.org/2000/svg">
<g clip-path="url(#clip0_1487_7388)">
<path d="M18.2939 9.19985C18.2939 8.45985 18.234 7.91986 18.1045 7.35986H9.67947V10.6998H14.6247C14.5251 11.5298 13.9867 12.7799 12.7902 13.6198L12.7734 13.7316L15.4373 15.8014L15.6218 15.8199C17.3168 14.2498 18.2939 11.9398 18.2939 9.19985Z" fill="#4285F4"/>
<path d="M9.67947 17.9998C12.1022 17.9998 14.1362 17.1997 15.6218 15.8198L12.7902 13.6197C12.0325 14.1497 11.0155 14.5197 9.67947 14.5197C7.30653 14.5197 5.29253 12.9498 4.57459 10.7798L4.46935 10.7887L1.69947 12.9388L1.66325 13.0397C3.13885 15.9797 6.16986 17.9998 9.67947 17.9998Z" fill="#34A853"/>
<path d="M4.57459 10.7798C4.38515 10.2198 4.27552 9.61979 4.27552 8.99983C4.27552 8.37979 4.38515 7.77981 4.56462 7.21982L4.5596 7.10056L1.75501 4.91602L1.66324 4.95979C1.05508 6.17981 0.706108 7.54983 0.706108 8.99983C0.706108 10.4498 1.05508 11.8198 1.66324 13.0398L4.57459 10.7798Z" fill="#FBBC05"/>
<path d="M9.67947 3.47997C11.3644 3.47997 12.501 4.20997 13.1491 4.82001L15.6816 2.34C14.1263 0.890003 12.1022 0 9.67947 0C6.16986 0 3.13885 2.01998 1.66325 4.95996L4.56462 7.21999C5.29252 5.04999 7.30653 3.47997 9.67947 3.47997Z" fill="#EB4335"/>
</g>
<defs>
<clipPath id="clip0_1487_7388">
<rect width="18" height="18" fill="white" transform="translate(0.5)"/>
</clipPath>
</defs>
</svg>
