<svg width="24" height="24" viewBox="0 0 24 24" fill="none" xmlns="http://www.w3.org/2000/svg">
<path fill-rule="evenodd" clip-rule="evenodd" d="M0 23.5C0 23.7761 0.223857 24 0.5 24H23.5C23.7761 24 24 23.7761 24 23.5V0.5C24 0.223858 23.7761 0 23.5 0H0.5C0.223858 0 0 0.223857 0 0.5V23.5ZM11.6465 13.7678C11.8417 13.5725 12.1583 13.5725 12.3536 13.7678L19.7322 21.1464C20.0472 21.4614 19.8241 22 19.3787 22H4.62133C4.17587 22 3.95279 21.4614 4.26777 21.1464L11.6465 13.7678ZM12.3536 10.2322C12.1583 10.4275 11.8417 10.4275 11.6465 10.2322L4.26777 2.85355C3.95279 2.53857 4.17587 2 4.62133 2L19.3787 2C19.8241 2 20.0472 2.53857 19.7322 2.85355L12.3536 10.2322ZM13.7678 12.3536C13.5725 12.1583 13.5725 11.8417 13.7678 11.6464L21.1464 4.26777C21.4614 3.95279 22 4.17587 22 4.62132V19.3787C22 19.8241 21.4614 20.0472 21.1464 19.7322L13.7678 12.3536ZM10.2322 11.6464C10.4275 11.8417 10.4275 12.1583 10.2322 12.3536L2.85355 19.7322C2.53857 20.0472 2 19.8241 2 19.3787V4.62132C2 4.17586 2.53857 3.95278 2.85355 4.26776L10.2322 11.6464Z" fill="#333333"/>
</svg>
